<?xml version="1.0" standalone="no"?>
<!DOCTYPE svg PUBLIC "-//W3C//DTD SVG 1.1//EN" "http://www.w3.org/Graphics/SVG/1.1/DTD/svg11.dtd" >
<svg>
<metadata>
Created by FontForge 20090622 at Fri Dec  8 09:52:08 2017
 By deploy user
Copyright &#194;&#169; 2016 by Chris Simpson.
</metadata>
<defs>
<font id="Metropolis-SemiBold" horiz-adv-x="652" >
  <font-face 
    font-family="Metropolis Semi Bold"
    font-weight="600"
    font-stretch="normal"
    units-per-em="1000"
    panose-1="0 0 7 0 0 0 0 0 0 0"
    ascent="795"
    descent="-205"
    x-height="517"
    cap-height="687"
    bbox="-202 -285 1162 974"
    underline-thickness="20"
    underline-position="-113"
    unicode-range="U+0020-U+2212"
  />
<missing-glyph horiz-adv-x="500" 
d="M410 795v-1000h-317v1000h317zM333 728h-165v-33h65v-37h-66v-33h166v33h-66v37h66v33zM267 599h-100v-104h166v34h-66v70zM233 565v-36h-33v36h33zM333 468h-166v-33h66v-37h-66v-33h100v70h66v33zM333 408h-33v-66h-133v-34h166v100zM333 286h-100v-56h34v23h33v-47
h-100v80h-33v-113h166v113zM333 113h-166v-113h166v113zM300 80v-47h-100v47h100zM333 -23h-166v-33h70l-70 -47v-33h166v33h-102l70 47h32v33z" />
    <glyph glyph-name=".notdef" horiz-adv-x="500" 
d="M410 795v-1000h-317v1000h317zM333 728h-165v-33h65v-37h-66v-33h166v33h-66v37h66v33zM267 599h-100v-104h166v34h-66v70zM233 565v-36h-33v36h33zM333 468h-166v-33h66v-37h-66v-33h100v70h66v33zM333 408h-33v-66h-133v-34h166v100zM333 286h-100v-56h34v23h33v-47
h-100v80h-33v-113h166v113zM333 113h-166v-113h166v113zM300 80v-47h-100v47h100zM333 -23h-166v-33h70l-70 -47v-33h166v33h-102l70 47h32v33z" />
    <glyph glyph-name=".null" horiz-adv-x="0" 
 />
    <glyph glyph-name="nonmarkingreturn" horiz-adv-x="333" 
 />
    <glyph glyph-name="space" unicode=" " horiz-adv-x="283" 
 />
    <glyph glyph-name="exclam" unicode="!" horiz-adv-x="295" 
d="M108 225l-29 462h142l-29 -462h-84zM150 -12q-34 0 -57 23.5t-23 56.5q0 31 23 54t57 23q31 0 54 -23t23 -54q0 -33 -22.5 -56.5t-54.5 -23.5z" />
    <glyph glyph-name="quotedbl" unicode="&#x22;" horiz-adv-x="482" 
d="M104 405q-39 158 -39 215q0 27 19.5 47t46.5 20t46.5 -20t19.5 -47q0 -57 -39 -215h-54zM324 405q-39 158 -39 215q0 27 19.5 47t46.5 20t46.5 -20t19.5 -47q0 -57 -39 -215h-54z" />
    <glyph glyph-name="numbersign" unicode="#" horiz-adv-x="675" 
d="M618 429h-104l-44 -173h105l-23 -90h-104l-42 -166h-93l42 166h-127l-42 -166h-94l42 166h-100l22 90h100l44 173h-102l22 90h103l42 168h94l-42 -168h127l42 168h93l-42 -168h103zM377 256l44 173h-127l-44 -173h127z" />
    <glyph glyph-name="dollar" unicode="$" horiz-adv-x="626" 
d="M583 199q0 -88 -60.5 -145t-167.5 -64v-64h-91v67q-134 16 -233 107l72 89q74 -67 161 -86v195q-103 27 -154.5 69.5t-51.5 124.5q0 81 57 138t149 68v61h91v-62q116 -12 210 -93l-68 -92q-68 59 -142 75v-188q113 -26 170.5 -70t57.5 -130zM184 503q0 -29 19 -47t61 -33
v166q-36 -9 -58 -32.5t-22 -53.5zM355 97q49 6 76 31t27 59q0 33 -23.5 52.5t-79.5 35.5v-178z" />
    <glyph glyph-name="percent" unicode="%" horiz-adv-x="823" 
d="M208 345q-74 0 -120.5 50t-46.5 123q0 75 47 125t120 50q74 0 121 -50t47 -124q0 -75 -47 -124.5t-121 -49.5zM129 0l475 687h92l-475 -687h-92zM208 420q35 0 58 27.5t23 70.5q0 44 -23 72t-58 28q-36 0 -58.5 -27.5t-22.5 -72.5q0 -43 23 -70.5t58 -27.5zM614 -10
q-73 0 -120 50t-47 124t47 124.5t121 50.5t120.5 -50.5t46.5 -123.5q0 -75 -47 -125t-121 -50zM615 65q35 0 58 27.5t23 71.5q0 43 -23.5 71t-58.5 28t-57.5 -27.5t-22.5 -70.5q0 -44 23 -72t58 -28z" />
    <glyph glyph-name="ampersand" unicode="&#x26;" horiz-adv-x="676" 
d="M644 34l-104 -47l-78 81q-89 -80 -203 -80q-100 0 -163 53.5t-63 144.5q0 67 36 113.5t115 82.5q-52 73 -52 143q0 71 54 120.5t134 49.5q79 0 131 -48.5t52 -120.5q0 -57 -38 -94.5t-121 -75.5q50 -59 122 -135q41 61 70 135l93 -44q-49 -99 -95 -163zM322 604
q-35 0 -58 -22t-23 -57q0 -46 47 -103q60 24 83.5 46t23.5 57q0 34 -21 56.5t-52 22.5zM271 85q61 0 124 53q-87 91 -155 171q-86 -47 -86 -117q0 -49 34 -78t83 -29z" />
    <glyph glyph-name="quotesingle" unicode="'" horiz-adv-x="262" 
d="M104 405q-39 158 -39 215q0 27 19.5 47t46.5 20t46.5 -20t19.5 -47q0 -57 -39 -215h-54z" />
    <glyph glyph-name="parenleft" unicode="(" horiz-adv-x="375" 
d="M273 -170q-105 80 -162 192t-57 243t57 242.5t162 192.5l63 -66q-81 -83 -119.5 -170.5t-38.5 -198.5t38.5 -198t119.5 -170z" />
    <glyph glyph-name="parenright" unicode=")" horiz-adv-x="375" 
d="M101 -170l-63 67q82 83 120.5 170t38.5 198t-38.5 198.5t-120.5 170.5l63 66q105 -80 162 -192t57 -243t-57 -243t-162 -192z" />
    <glyph glyph-name="asterisk" unicode="*" horiz-adv-x="401" 
d="M201 356q-14 0 -24 9t-10 21q0 22 9 64.5t10 53.5q-11 -8 -42 -36t-50 -39q-10 -7 -23 -3t-20 17q-7 12 -4.5 25t13.5 19q19 11 59.5 24t52.5 18q-10 4 -51.5 18t-60.5 25q-11 6 -13.5 18.5t4.5 25.5q7 12 20 16t23 -2q19 -11 51 -40t41 -36q-1 11 -10 53.5t-9 64.5
q0 12 10 21t23 9q14 0 24 -9t10 -21q0 -22 -9 -64t-11 -54q10 8 42 36t51 39q10 7 23 3t20 -17q7 -12 4 -25t-14 -19q-18 -11 -59.5 -24t-52.5 -18q10 -4 51.5 -18t60.5 -25q11 -6 14 -18.5t-4 -25.5q-7 -12 -20 -16t-23 2q-19 11 -51 40t-41 36q2 -12 11 -54t9 -64
q0 -12 -10 -21t-24 -9z" />
    <glyph glyph-name="plus" unicode="+" horiz-adv-x="599" 
d="M537 386v-104h-183v-185h-109v185h-183v104h183v186h109v-186h183z" />
    <glyph glyph-name="comma" unicode="," horiz-adv-x="283" 
d="M129 -142l-48 36q46 46 58 94q-31 0 -53.5 23.5t-22.5 55.5t23 55t55 23q38 0 61 -30.5t23 -78.5q0 -75 -96 -178z" />
    <glyph glyph-name="hyphen" unicode="-" horiz-adv-x="367" 
d="M49 221v107h269v-107h-269z" />
    <glyph glyph-name="period" unicode="." horiz-adv-x="277" 
d="M141 -12q-34 0 -57 23.5t-23 56.5q0 31 23 54t57 23q31 0 54 -23t23 -54q0 -33 -22.5 -56.5t-54.5 -23.5z" />
    <glyph glyph-name="slash" unicode="/" horiz-adv-x="446" 
d="M-21 -74l346 817h131l-346 -817h-131z" />
    <glyph glyph-name="zero" unicode="0" horiz-adv-x="701" 
d="M351 -12q-133 0 -217.5 99.5t-84.5 256.5q0 156 84.5 255.5t217.5 99.5q132 0 216 -99.5t84 -255.5q0 -157 -84 -256.5t-216 -99.5zM351 102q76 0 124.5 68t48.5 174t-48.5 173.5t-124.5 67.5q-77 0 -125.5 -67.5t-48.5 -173.5t48.5 -174t125.5 -68z" />
    <glyph glyph-name="one" unicode="1" horiz-adv-x="394" 
d="M187 0v543l-118 -75l-51 88l193 131h100v-687h-124z" />
    <glyph glyph-name="two" unicode="2" horiz-adv-x="603" 
d="M45 0v102l253 202q64 51 91 93t27 85q0 47 -34.5 76t-82.5 29q-93 0 -174 -97l-81 75q102 134 259 134q103 0 171.5 -60t68.5 -154q0 -69 -36.5 -128.5t-123.5 -126.5l-144 -116h311v-114h-505z" />
    <glyph glyph-name="three" unicode="3" horiz-adv-x="599" 
d="M298 -12q-171 0 -268 116l76 82q77 -87 188 -87q61 0 97 28t36 73q0 93 -148 93l-77 -1v108h77q62 -1 98 23.5t36 68.5q0 42 -36 68.5t-92 26.5q-90 0 -167 -85l-74 76q96 121 252 121q109 0 176 -52.5t67 -134.5q0 -60 -36 -101t-94 -58q61 -14 103 -56t42 -107
q0 -89 -70.5 -145.5t-185.5 -56.5z" />
    <glyph glyph-name="four" unicode="4" horiz-adv-x="640" 
d="M381 0v149h-339l-12 97l326 441h149v-431h95v-107h-95v-149h-124zM163 256h218v295z" />
    <glyph glyph-name="five" unicode="5" horiz-adv-x="611" 
d="M300 -12q-156 0 -257 106l74 89q89 -87 185 -87q62 0 99.5 34.5t37.5 86.5q0 53 -38 85t-99 32q-78 0 -140 -48l-85 36l10 365h440v-114h-323l-6 -177q61 42 139 42q96 0 161.5 -58t65.5 -158q0 -106 -73 -170t-191 -64z" />
    <glyph glyph-name="six" unicode="6" horiz-adv-x="636" 
d="M355 439q98 0 164.5 -58.5t66.5 -158.5q0 -102 -72.5 -168t-183.5 -66q-141 0 -211.5 94t-70.5 250q0 160 85 263.5t219 103.5q115 0 205 -77l-61 -95q-70 62 -145 62q-72 0 -120 -63t-54 -165q67 78 178 78zM324 94q61 0 98 36.5t37 86.5q0 55 -39.5 87.5t-97.5 32.5
q-49 0 -86.5 -25.5t-52.5 -69.5q24 -148 141 -148z" />
    <glyph glyph-name="seven" unicode="7" horiz-adv-x="602" 
d="M122 0l280 573h-351v114h496v-94l-284 -593h-141z" />
    <glyph glyph-name="eight" unicode="8" horiz-adv-x="618" 
d="M309 -12q-115 0 -191 53t-76 142q0 60 38.5 104.5t101.5 67.5q-122 52 -122 159q0 85 73.5 135t175.5 50q104 0 177 -50.5t73 -134.5q0 -109 -122 -159q64 -24 102 -68.5t38 -103.5q0 -90 -76.5 -142.5t-191.5 -52.5zM309 400q49 2 88 29t39 69q0 40 -36.5 67.5
t-90.5 27.5t-90 -27t-36 -68q0 -43 39 -69t87 -29zM309 95q61 0 101.5 28t40.5 72q0 45 -44.5 74t-97.5 31q-53 -3 -97.5 -31.5t-44.5 -73.5q0 -44 40 -72t102 -28z" />
    <glyph glyph-name="nine" unicode="9" horiz-adv-x="636" 
d="M306 699q141 0 211.5 -94t70.5 -250q0 -160 -85 -263.5t-219 -103.5q-115 0 -205 77l61 95q70 -62 145 -62q72 0 120 63t54 165q-67 -78 -178 -78q-98 0 -164.5 58.5t-66.5 158.5q0 102 72.5 168t183.5 66zM314 350q49 0 86.5 25.5t52.5 69.5q-24 148 -141 148
q-61 0 -98 -36.5t-37 -86.5q0 -55 39.5 -87.5t97.5 -32.5z" />
    <glyph glyph-name="colon" unicode=":" horiz-adv-x="277" 
d="M141 367q-34 0 -57 23.5t-23 56.5q0 31 23 54t57 23q31 0 54 -23t23 -54q0 -33 -22.5 -56.5t-54.5 -23.5zM141 -12q-34 0 -57 23.5t-23 56.5q0 31 23 54t57 23q31 0 54 -23t23 -54q0 -33 -22.5 -56.5t-54.5 -23.5z" />
    <glyph glyph-name="semicolon" unicode=";" horiz-adv-x="283" 
d="M143 367q-34 0 -57 23.5t-23 56.5q0 31 23 54t57 23q31 0 54 -23t23 -54q0 -33 -22.5 -56.5t-54.5 -23.5zM129 -142l-48 36q46 46 58 94q-31 0 -53.5 23.5t-22.5 55.5t23 55t55 23q38 0 61 -30.5t23 -78.5q0 -75 -96 -178z" />
    <glyph glyph-name="less" unicode="&#x3c;" horiz-adv-x="590" 
d="M518 84l-463 211v97l463 211v-102l-361 -157l361 -157v-103z" />
    <glyph glyph-name="equal" unicode="=" horiz-adv-x="599" 
d="M62 397v104h475v-104h-475zM62 171v104h475v-104h-475z" />
    <glyph glyph-name="greater" unicode="&#x3e;" horiz-adv-x="590" 
d="M72 84v103l361 157l-361 157v102l463 -211v-97z" />
    <glyph glyph-name="question" unicode="?" horiz-adv-x="505" 
d="M174 221v173q76 4 124 32.5t48 68.5q0 38 -31 65t-81 27q-77 0 -142 -72l-73 74q96 110 232 110q98 0 159 -54.5t61 -137.5q0 -67 -51.5 -121.5t-132.5 -72.5v-92h-113zM231 -12q-34 0 -57 23.5t-23 56.5q0 31 23 54t57 23q31 0 54 -23t23 -54q0 -33 -22.5 -56.5
t-54.5 -23.5z" />
    <glyph glyph-name="at" unicode="@" horiz-adv-x="880" 
d="M425 -116q-159 0 -270 110t-111 265q0 170 123.5 293t294.5 123q157 0 266 -103.5t109 -246.5q0 -119 -59.5 -184.5t-136.5 -65.5q-96 0 -121 82q-61 -81 -152 -81q-75 0 -121.5 49.5t-46.5 129.5q0 102 69.5 175.5t158.5 73.5q90 0 133 -74l12 60l103 -8l-17.5 -89
l-15 -74l-10.5 -53t-7 -41.5t-2 -25.5q0 -28 16 -43.5t43 -15.5q45 0 79.5 47.5t34.5 137.5q0 130 -97.5 221t-239.5 91q-155 0 -265.5 -111t-110.5 -266q0 -140 100 -239.5t244 -99.5q112 0 214 61l20 -29q-110 -69 -237 -69zM402 163q56 0 92.5 41t42.5 104q5 50 -18 79.5
t-70 29.5q-59 0 -100 -46.5t-41 -108.5q0 -45 26 -72t68 -27z" />
    <glyph glyph-name="A" unicode="A" horiz-adv-x="752" 
d="M594 0l-52 124h-332l-52 -124h-139l287 687h139l287 -687h-138zM255 232h242l-121 289z" />
    <glyph glyph-name="B" unicode="B" horiz-adv-x="694" 
d="M80 0v687h337q89 0 146 -48.5t57 -123.5q0 -100 -97 -152q60 -29 93 -74.5t33 -101.5q0 -82 -61.5 -134.5t-157.5 -52.5h-350zM204 406h183q46 0 75.5 24.5t29.5 61.5q0 38 -29.5 62.5t-75.5 24.5h-183v-173zM204 108h201q51 0 83.5 27.5t32.5 70.5t-32.5 70.5
t-83.5 27.5h-201v-196z" />
    <glyph glyph-name="C" unicode="C" horiz-adv-x="690" 
d="M406 -12q-147 0 -254 105.5t-107 250.5t107 250t254 105q151 0 259 -111l-89 -83q-69 80 -170 80q-95 0 -164.5 -71.5t-69.5 -169.5q0 -99 69.5 -170.5t164.5 -71.5q101 0 171 80l88 -82q-107 -112 -259 -112z" />
    <glyph glyph-name="D" unicode="D" horiz-adv-x="761" 
d="M80 0v687h242q170 0 278.5 -96t108.5 -247t-108.5 -247.5t-278.5 -96.5h-242zM205 113h130q109 0 178 65t69 166t-69 165.5t-178 64.5h-130v-461z" />
    <glyph glyph-name="E" unicode="E" horiz-adv-x="637" 
d="M588 573h-392v-166h355v-114h-355v-179h392v-114h-517v687h517v-114z" />
    <glyph glyph-name="F" unicode="F" horiz-adv-x="626" 
d="M588 573h-392v-174h355v-114h-355v-285h-125v687h517v-114z" />
    <glyph glyph-name="G" unicode="G" horiz-adv-x="743" 
d="M388 276v102h293v-278q-49 -51 -123.5 -81.5t-149.5 -30.5q-148 0 -255.5 105.5t-107.5 250.5t107.5 250t255.5 105q76 0 150 -30t123 -81l-89 -83q-32 37 -82.5 58.5t-101.5 21.5q-96 0 -166 -71.5t-70 -169.5q0 -99 70 -170.5t166 -71.5q83 0 151 49v125h-171z" />
    <glyph glyph-name="H" unicode="H" horiz-adv-x="735" 
d="M539 687h125v-687h-125v293h-343v-293h-125v687h125v-280h343v280z" />
    <glyph glyph-name="I" unicode="I" horiz-adv-x="270" 
d="M73 0v687h124v-687h-124z" />
    <glyph glyph-name="J" unicode="J" horiz-adv-x="543" 
d="M241 -12q-65 0 -127.5 32t-96.5 82l84 82q18 -36 54 -59.5t75 -23.5q51 0 83.5 36.5t32.5 94.5v455h124v-463q0 -104 -64.5 -170t-164.5 -66z" />
    <glyph glyph-name="K" unicode="K" horiz-adv-x="686" 
d="M79 0v687h125v-336l301 336h153l-275 -303l295 -384h-154l-227 296l-93 -100v-196h-125z" />
    <glyph glyph-name="L" unicode="L" horiz-adv-x="572" 
d="M189 114h353v-114h-477v687h124v-573z" />
    <glyph glyph-name="M" unicode="M" horiz-adv-x="863" 
d="M80 0v687h125l226 -419l227 419h124v-687h-124v459l-227 -419l-226 419v-459h-125z" />
    <glyph glyph-name="N" unicode="N" horiz-adv-x="772" 
d="M80 0v687h125l363 -483v483h124v-687h-124l-363 483v-483h-125z" />
    <glyph glyph-name="O" unicode="O" horiz-adv-x="810" 
d="M406 -12q-147 0 -254 105.5t-107 250.5t107 250t254 105q146 0 253 -105t107 -250t-107 -250.5t-253 -105.5zM406 102q95 0 163.5 71.5t68.5 170.5q0 98 -68.5 169.5t-163.5 71.5t-164.5 -71.5t-69.5 -169.5q0 -99 69.5 -170.5t164.5 -71.5z" />
    <glyph glyph-name="P" unicode="P" horiz-adv-x="654" 
d="M71 0v687h299q111 0 184 -64t73 -164t-73 -164t-184 -64h-174v-231h-125zM196 346h160q65 0 104.5 30.5t39.5 82.5t-39.5 82.5t-104.5 30.5h-160v-226z" />
    <glyph glyph-name="Q" unicode="Q" horiz-adv-x="810" 
d="M766 344q0 -115 -70 -207l69 -60l-66 -77l-74 64q-99 -76 -219 -76q-147 0 -254 105.5t-107 250.5t107 250t254 105q146 0 253 -105t107 -250zM406 102q70 0 128 41l-89 78l66 77l92 -80q35 59 35 126q0 98 -68.5 169.5t-163.5 71.5t-164.5 -71.5t-69.5 -169.5
q0 -99 69.5 -170.5t164.5 -71.5z" />
    <glyph glyph-name="R" unicode="R" horiz-adv-x="669" 
d="M633 0h-142l-162 231h-133v-231h-125v687h299q111 0 184 -64t73 -164q0 -77 -45 -134t-121 -81zM196 572v-226h160q65 0 104.5 30.5t39.5 82.5t-39.5 82.5t-104.5 30.5h-160z" />
    <glyph glyph-name="S" unicode="S" horiz-adv-x="626" 
d="M325 -11q-175 0 -294 111l72 89q103 -93 226 -93q61 0 95 26t34 65q0 40 -35 60.5t-124 41.5q-122 28 -181.5 71t-59.5 132q0 90 69.5 149t177.5 59q148 0 260 -96l-68 -92q-93 81 -197 81q-51 0 -83.5 -26.5t-32.5 -63.5q0 -40 36 -60.5t124 -40.5q119 -27 179 -71.5
t60 -131.5q0 -94 -68.5 -152t-189.5 -58z" />
    <glyph glyph-name="T" unicode="T" horiz-adv-x="636" 
d="M256 0v573h-220v114h564v-114h-220v-573h-124z" />
    <glyph glyph-name="U" unicode="U" horiz-adv-x="752" 
d="M376 -12q-133 0 -218 85.5t-85 219.5v394h125v-390q0 -86 50 -141t128 -55q79 0 129 55t50 141v390h124v-394q0 -134 -85 -219.5t-218 -85.5z" />
    <glyph glyph-name="V" unicode="V" horiz-adv-x="753" 
d="M594 687h139l-287 -687h-139l-287 687h138l218 -521z" />
    <glyph glyph-name="W" unicode="W" horiz-adv-x="1079" 
d="M243 0l-218 687h137l147 -492l163 492h136l162 -492l147 492h137l-217 -687h-125l-172 510l-173 -510h-124z" />
    <glyph glyph-name="X" unicode="X" horiz-adv-x="707" 
d="M682 687l-255 -343l255 -344h-148l-181 244l-182 -244h-147l255 343l-255 344h149l181 -244l182 244h146z" />
    <glyph glyph-name="Y" unicode="Y" horiz-adv-x="686" 
d="M280 0v258l-272 429h147l189 -311l192 311h142l-271 -429v-258h-127z" />
    <glyph glyph-name="Z" unicode="Z" horiz-adv-x="653" 
d="M51 0v95l379 478h-372v114h542v-95l-378 -478h383v-114h-554z" />
    <glyph glyph-name="bracketleft" unicode="[" horiz-adv-x="379" 
d="M74 -133v849h260v-83h-161v-683h161v-83h-260z" />
    <glyph glyph-name="backslash" unicode="\" horiz-adv-x="446" 
d="M336 -74l-346 817h131l346 -817h-131z" />
    <glyph glyph-name="bracketright" unicode="]" horiz-adv-x="379" 
d="M45 -133v83h161v683h-161v83h260v-849h-260z" />
    <glyph glyph-name="asciicircum" unicode="^" horiz-adv-x="488" 
d="M47 413l154 274h87l154 -274h-91l-107 195l-107 -195h-90z" />
    <glyph glyph-name="underscore" unicode="_" horiz-adv-x="592" 
d="M-2 -149v80h596v-80h-596z" />
    <glyph glyph-name="grave" unicode="`" horiz-adv-x="357" 
d="M209 575l-146 130l114 22l117 -152h-85z" />
    <glyph glyph-name="a" unicode="a" horiz-adv-x="579" 
d="M292 529q102 0 162 -59.5t60 -158.5v-311h-119v62q-28 -35 -72.5 -54.5t-90.5 -19.5q-84 0 -138.5 45.5t-54.5 119.5q0 75 61 123.5t150 48.5q72 0 145 -28v14q0 50 -30.5 84t-96.5 34q-62 0 -140 -39l-42 85q109 54 206 54zM259 77q47 0 86.5 23t49.5 62v58
q-58 20 -127 20q-46 0 -78 -23.5t-32 -59.5t28.5 -58t72.5 -22z" />
    <glyph glyph-name="b" unicode="b" 
d="M372 529q103 0 170 -76t67 -194q0 -119 -67 -195t-170 -76q-115 0 -180 94v-82h-122v699h122v-264q65 94 180 94zM339 92q65 0 107 47t42 120t-42 119.5t-107 46.5q-64 0 -105 -46.5t-41 -119.5t41 -120t105 -47z" />
    <glyph glyph-name="c" unicode="c" horiz-adv-x="546" 
d="M316 -12q-112 0 -194 80.5t-82 190.5t82.5 190t195.5 80q115 0 196 -84l-82 -72q-47 52 -115 52q-64 0 -110 -49t-46 -117t46 -117.5t110 -49.5q71 0 118 54l82 -71q-82 -87 -201 -87z" />
    <glyph glyph-name="d" unicode="d" 
d="M460 699h122v-699h-122v80q-65 -92 -179 -92q-103 0 -170 76t-67 195q0 118 67 194t170 76q114 0 179 -92v262zM314 92q64 0 105 47t41 120t-41 119.5t-105 46.5q-65 0 -107 -46.5t-42 -119.5t42 -120t107 -47z" />
    <glyph glyph-name="e" unicode="e" horiz-adv-x="594" 
d="M308 96q36 0 74 15t60 37l77 -80q-33 -35 -93 -57.5t-117 -22.5q-113 0 -191.5 77t-78.5 195q0 115 76 192t187 77q119 0 186 -84t67 -228h-390q11 -54 49.5 -87.5t93.5 -33.5zM307 421q-51 0 -89.5 -30t-51.5 -81h272q-11 51 -44.5 81t-86.5 30z" />
    <glyph glyph-name="f" unicode="f" horiz-adv-x="370" 
d="M223 560v-43h117v-101h-117v-416h-119v416h-75v101h75v54q0 65 41 107t105 42q62 0 110 -41l-35 -78q-19 19 -51 19q-22 0 -36.5 -17t-14.5 -43z" />
    <glyph glyph-name="g" unicode="g" horiz-adv-x="644" 
d="M452 517h122v-462q0 -100 -75.5 -163.5t-194.5 -63.5q-134 0 -222 69l45 89q59 -54 159 -54q76 0 121 34t45 93v67q-66 -88 -177 -88q-101 0 -167 69t-66 177q0 107 66 176t167 69q55 0 102 -24t75 -65v77zM310 142q62 0 102 40t40 102t-40 101.5t-102 39.5t-101.5 -39.5
t-39.5 -101.5t39.5 -102t101.5 -40z" />
    <glyph glyph-name="h" unicode="h" horiz-adv-x="606" 
d="M349 529q85 0 138.5 -56t53.5 -144v-329h-118v305q0 53 -30.5 86.5t-78.5 33.5q-52 0 -89 -33t-37 -79v-313h-122v699h122v-253q24 38 67 60.5t94 22.5z" />
    <glyph glyph-name="i" unicode="i" horiz-adv-x="257" 
d="M129 595q-29 0 -49.5 21t-20.5 49t20.5 48.5t49.5 20.5q28 0 48.5 -20.5t20.5 -48.5t-20.5 -49t-48.5 -21zM67 0v517h122v-517h-122z" />
    <glyph glyph-name="j" unicode="j" horiz-adv-x="257" 
d="M129 595q-29 0 -49.5 21t-20.5 49t20.5 48.5t49.5 20.5q28 0 48.5 -20.5t20.5 -48.5t-20.5 -49t-48.5 -21zM40 -178q-56 0 -96 19l15 93q23 -10 57 -10q22 0 36.5 17t14.5 43v533h122v-542q0 -68 -41.5 -110.5t-107.5 -42.5z" />
    <glyph glyph-name="k" unicode="k" horiz-adv-x="562" 
d="M555 517l-213 -231l206 -286h-142l-146 206l-73 -77v-129h-122v699h122v-427l224 245h144z" />
    <glyph glyph-name="l" unicode="l" horiz-adv-x="257" 
d="M67 0v699h122v-699h-122z" />
    <glyph glyph-name="m" unicode="m" horiz-adv-x="918" 
d="M664 529q81 0 135 -56.5t54 -143.5v-329h-119v309q0 51 -28 83.5t-72 32.5q-50 0 -81.5 -30.5t-31.5 -77.5v-317h-119v309q0 51 -28 83.5t-73 32.5q-49 0 -81 -30.5t-32 -77.5v-317h-122v517h122v-70q20 38 58 60t86 22q54 0 97.5 -26t67.5 -72q19 45 64 71.5t103 26.5z
" />
    <glyph glyph-name="n" unicode="n" horiz-adv-x="606" 
d="M349 529q85 0 138.5 -56t53.5 -144v-329h-118v305q0 53 -30.5 86.5t-78.5 33.5t-83.5 -28t-41.5 -70v-327h-122v517h122v-69q24 37 67 59t93 22z" />
    <glyph glyph-name="o" unicode="o" horiz-adv-x="633" 
d="M317 -12q-113 0 -195 80.5t-82 190.5t82 190t195 80t195 -80t82 -190t-82 -190.5t-195 -80.5zM317 92q64 0 110.5 49.5t46.5 117.5q0 67 -46.5 116.5t-110.5 49.5t-111 -49t-47 -117t46.5 -117.5t111.5 -49.5z" />
    <glyph glyph-name="p" unicode="p" 
d="M372 529q103 0 170 -76t67 -194q0 -119 -67 -195t-170 -76q-115 0 -180 94v-254h-122v689h122v-82q65 94 180 94zM339 92q65 0 107 47t42 120t-42 119.5t-107 46.5q-64 0 -105 -46.5t-41 -119.5t41 -120t105 -47z" />
    <glyph glyph-name="q" unicode="q" 
d="M460 517h122v-689h-122v252q-65 -92 -179 -92q-103 0 -170 76t-67 195q0 118 67 194t170 76q114 0 179 -92v80zM314 92q64 0 105 47t41 120t-41 119.5t-105 46.5q-65 0 -107 -46.5t-42 -119.5t42 -120t107 -47z" />
    <glyph glyph-name="r" unicode="r" horiz-adv-x="400" 
d="M192 417q25 52 73.5 82t111.5 30v-104q-83 0 -134 -45t-51 -119v-261h-122v517h122v-100z" />
    <glyph glyph-name="s" unicode="s" horiz-adv-x="500" 
d="M258 -12q-129 0 -226 78l55 85q83 -60 173 -60q37 0 60 14.5t23 38.5q0 19 -15.5 32.5t-33.5 20t-55 16.5q-94 24 -138.5 56.5t-45.5 96.5q0 73 54.5 118t140.5 45q104 0 198 -62l-51 -89q-74 47 -147 47q-33 0 -54.5 -12.5t-21.5 -33.5q0 -23 21 -35t85 -31
q33 -9 53 -16t47.5 -20.5t43 -29t26.5 -40.5t11 -56q0 -74 -56 -118.5t-147 -44.5z" />
    <glyph glyph-name="t" unicode="t" horiz-adv-x="388" 
d="M325 111l35 -82q-48 -41 -110 -41q-64 0 -105 42t-41 107v279h-75v101h75v142h119v-142h117v-101h-117v-264q0 -26 14.5 -43t36.5 -17q32 0 51 19z" />
    <glyph glyph-name="u" unicode="u" horiz-adv-x="606" 
d="M417 517h122v-517h-122v69q-24 -37 -67 -59t-93 -22q-85 0 -138.5 56t-53.5 144v329h118v-305q0 -53 30.5 -86.5t78.5 -33.5t83.5 28t41.5 70v327z" />
    <glyph glyph-name="v" unicode="v" horiz-adv-x="592" 
d="M240 0l-222 517h129l150 -376l147 376h130l-219 -517h-115z" />
    <glyph glyph-name="w" unicode="w" horiz-adv-x="839" 
d="M199 0l-175 517h122l108 -353l115 353h102l116 -353l107 353h122l-174 -517h-111l-111 354l-110 -354h-111z" />
    <glyph glyph-name="x" unicode="x" horiz-adv-x="561" 
d="M541 0h-135l-126 173l-127 -173h-133l194 264l-185 253h134l118 -161l118 161h133l-185 -252z" />
    <glyph glyph-name="y" unicode="y" horiz-adv-x="599" 
d="M172 -180q-64 0 -113 27l26 88q35 -19 66 -19q46 0 66 34l22 46l-219 521h129l151 -386l142 386h126l-219 -553q-57 -142 -177 -144z" />
    <glyph glyph-name="z" unicode="z" horiz-adv-x="526" 
d="M46 0v89l274 321h-268v107h429l-1 -89l-275 -321h278v-107h-437z" />
    <glyph glyph-name="braceleft" unicode="{" horiz-adv-x="402" 
d="M354 -166q-122 11 -172 52t-50 125l1 127q0 47 -22.5 68t-74.5 21v77q53 0 75 21t22 69l-1 126q0 84 50 125t172 52l10 -77q-83 -12 -108.5 -33t-25.5 -75l1 -133q0 -87 -77 -113q77 -27 77 -114l-1 -132q0 -55 25.5 -76t108.5 -33z" />
    <glyph glyph-name="bar" unicode="|" horiz-adv-x="292" 
d="M102 -74v817h88v-817h-88z" />
    <glyph glyph-name="braceright" unicode="}" horiz-adv-x="402" 
d="M48 -166l-9 77q83 12 108.5 33t25.5 76l-1 132q0 87 76 114q-76 26 -76 113l1 133q0 54 -25.5 75t-108.5 33l9 77q122 -11 172.5 -52t50.5 -125l-1 -126q0 -48 22 -69t74 -21v-77q-52 0 -74 -21t-22 -68l1 -127q0 -84 -50 -125t-173 -52z" />
    <glyph glyph-name="asciitilde" unicode="~" horiz-adv-x="450" 
d="M292 296q-32 0 -74 28t-57 28q-35 0 -45 -57l-63 9q15 128 106 128q31 0 73 -28t57 -28q35 0 45 58l64 -10q-15 -128 -106 -128z" />
    <glyph glyph-name="exclamdown" unicode="&#xa1;" horiz-adv-x="295" 
d="M145 529q34 0 57 -23.5t23 -56.5q0 -31 -23 -54t-57 -23q-31 0 -54 23t-23 54q0 33 22.5 56.5t54.5 23.5zM187 292l29 -462h-142l29 462h84z" />
    <glyph glyph-name="cent" unicode="&#xa2;" horiz-adv-x="546" 
d="M517 75q-68 -73 -167 -85v-64h-90v68q-93 20 -156.5 95t-63.5 170t63 169.5t157 94.5v66h90v-62q97 -12 164 -82l-82 -72q-34 38 -82 48v-325q50 11 85 50zM161 259q0 -52 27.5 -94t71.5 -61v309q-44 -19 -71.5 -61t-27.5 -93z" />
    <glyph glyph-name="sterling" unicode="&#xa3;" horiz-adv-x="642" 
d="M252 102h353v-102h-556v53l79 49v155h-67v75h67v131q0 104 64.5 170t165.5 66q69 0 132 -32t92 -82l-85 -82q-13 36 -49.5 59.5t-79.5 23.5q-50 0 -83 -36.5t-33 -94.5v-123h176v-75h-176v-155z" />
    <glyph glyph-name="yen" unicode="&#xa5;" horiz-adv-x="686" 
d="M678 687l-229 -363h143v-75h-185v-69h185v-75h-185v-105h-127v105h-184v75h184v69h-184v75h142l-230 363h147l189 -311l192 311h142z" />
    <glyph glyph-name="dieresis" unicode="&#xa8;" horiz-adv-x="456" 
d="M125 588q-26 0 -44 18.5t-18 44.5q0 25 18 43.5t44 18.5q25 0 43.5 -19t18.5 -43q0 -26 -18 -44.5t-44 -18.5zM331 588q-27 0 -45 18.5t-18 44.5q0 25 18.5 43.5t44.5 18.5q25 0 43.5 -19t18.5 -43q0 -26 -18 -44.5t-44 -18.5z" />
    <glyph glyph-name="guillemotleft" unicode="&#xab;" horiz-adv-x="564" 
d="M202 50l-163 203l163 201l97 -22l-144 -178l144 -181zM424 50l-163 203l163 201l97 -22l-144 -178l144 -181z" />
    <glyph glyph-name="macron" unicode="&#xaf;" horiz-adv-x="460" 
d="M63 586v75h334v-75h-334z" />
    <glyph glyph-name="acute" unicode="&#xb4;" horiz-adv-x="357" 
d="M63 575l117 152l114 -22l-146 -130h-85z" />
    <glyph glyph-name="paragraph" unicode="&#xb6;" horiz-adv-x="675" 
d="M270 -50v337q-107 0 -172 55t-65 143q0 90 62.5 145.5t161.5 55.5h316v-736h-92v650h-119v-650h-92z" />
    <glyph glyph-name="periodcentered" unicode="&#xb7;" horiz-adv-x="256" 
d="M129 203q-30 0 -51 21t-21 51t21 51t51 21q29 0 50 -21t21 -51t-21 -51t-50 -21z" />
    <glyph glyph-name="cedilla" unicode="&#xb8;" horiz-adv-x="323" 
d="M188 -44q31 0 51.5 -19t20.5 -48q0 -38 -29.5 -61t-75.5 -23q-56 0 -92 29l24 52q29 -23 62 -23q19 0 31.5 9t12.5 24q0 29 -34 29q-18 0 -31 -10l-20 20l32 76h67l-24 -55h5z" />
    <glyph glyph-name="guillemotright" unicode="&#xbb;" horiz-adv-x="564" 
d="M141 50l-97 23l144 181l-144 178l97 22l163 -201zM363 50l-97 23l144 181l-144 178l97 22l163 -201z" />
    <glyph glyph-name="questiondown" unicode="&#xbf;" horiz-adv-x="505" 
d="M274 529q34 0 57 -23.5t23 -56.5q0 -31 -23 -54t-57 -23q-31 0 -54 23t-23 54q0 33 22.5 56.5t54.5 23.5zM331 296v-173q-76 -4 -124 -32.5t-48 -68.5q0 -38 31 -65t81 -27q77 0 142 72l73 -74q-96 -110 -232 -110q-98 0 -159 54.5t-61 137.5q0 67 51.5 121.5t132.5 72.5
v92h113z" />
    <glyph glyph-name="Agrave" unicode="&#xc0;" horiz-adv-x="753" 
d="M422 745h-85l-146 130l114 22zM594 0l-52 124h-332l-52 -124h-139l287 687h139l287 -687h-138zM255 232h242l-121 289z" />
    <glyph glyph-name="Aacute" unicode="&#xc1;" horiz-adv-x="753" 
d="M563 875l-146 -130h-85l117 152zM594 0l-52 124h-332l-52 -124h-139l287 687h139l287 -687h-138zM255 232h242l-121 289z" />
    <glyph glyph-name="Acircumflex" unicode="&#xc2;" horiz-adv-x="752" 
d="M376 824l-76 -79h-79l103 144h104l105 -144h-80zM594 0l-52 124h-332l-52 -124h-139l287 687h139l287 -687h-138zM255 232h242l-121 289z" />
    <glyph glyph-name="Atilde" unicode="&#xc3;" horiz-adv-x="752" 
d="M311 799q-35 0 -45 -57l-63 9q15 128 106 128q31 0 73 -28t57 -28q35 0 45 58l64 -10q-15 -128 -106 -128q-32 0 -74 28t-57 28zM594 0l-52 124h-332l-52 -124h-139l287 687h139l287 -687h-138zM255 232h242l-121 289z" />
    <glyph glyph-name="Adieresis" unicode="&#xc4;" horiz-adv-x="752" 
d="M273 758q-26 0 -44 18.5t-18 44.5q0 25 18 43.5t44 18.5q25 0 43.5 -19t18.5 -43q0 -26 -18 -44.5t-44 -18.5zM479 758q-27 0 -45 18.5t-18 44.5q0 25 18.5 43.5t44.5 18.5q25 0 43.5 -19t18.5 -43q0 -26 -18 -44.5t-44 -18.5zM594 0l-52 124h-332l-52 -124h-139l287 687
h139l287 -687h-138zM255 232h242l-121 289z" />
    <glyph glyph-name="Aring" unicode="&#xc5;" horiz-adv-x="752" 
d="M376 753q-45 0 -77.5 32.5t-32.5 78.5t32.5 78t77.5 32q46 0 78 -32t32 -78t-32 -78.5t-78 -32.5zM376 919q-22 0 -38.5 -16.5t-16.5 -38.5t16.5 -38.5t38.5 -16.5t38.5 16.5t16.5 38.5t-16.5 38.5t-38.5 16.5zM594 0l-52 124h-332l-52 -124h-139l287 687h139l287 -687
h-138zM255 232h242l-121 289z" />
    <glyph glyph-name="AE" unicode="&#xc6;" horiz-adv-x="1060" 
d="M1011 573h-392v-166h355v-114h-355v-179h392v-114h-517v130h-256l-75 -130h-143l396 687h595v-114zM297 232h197v341z" />
    <glyph glyph-name="Ccedilla" unicode="&#xc7;" horiz-adv-x="690" 
d="M406 102q101 0 171 80l88 -82q-97 -102 -236 -111l-14 -33h5q31 0 51.5 -19t20.5 -48q0 -38 -29.5 -61t-75.5 -23q-56 0 -92 29l24 52q29 -23 62 -23q19 0 31.5 9t12.5 24q0 29 -34 29q-18 0 -31 -10l-20 20l23 56q-133 16 -225.5 118t-92.5 235q0 145 107 250t254 105
q151 0 259 -111l-89 -83q-69 80 -170 80q-95 0 -164.5 -71.5t-69.5 -169.5q0 -99 69.5 -170.5t164.5 -71.5z" />
    <glyph glyph-name="Egrave" unicode="&#xc8;" horiz-adv-x="637" 
d="M415 745h-85l-146 130l114 22zM588 573h-392v-166h355v-114h-355v-179h392v-114h-517v687h517v-114z" />
    <glyph glyph-name="Eacute" unicode="&#xc9;" horiz-adv-x="637" 
d="M465 875l-146 -130h-85l117 152zM588 573h-392v-166h355v-114h-355v-179h392v-114h-517v687h517v-114z" />
    <glyph glyph-name="Ecircumflex" unicode="&#xca;" horiz-adv-x="637" 
d="M330 824l-76 -79h-79l103 144h104l105 -144h-80zM588 573h-392v-166h355v-114h-355v-179h392v-114h-517v687h517v-114z" />
    <glyph glyph-name="Edieresis" unicode="&#xcb;" horiz-adv-x="637" 
d="M227 758q-26 0 -44 18.5t-18 44.5q0 25 18 43.5t44 18.5q25 0 43.5 -19t18.5 -43q0 -26 -18 -44.5t-44 -18.5zM433 758q-27 0 -45 18.5t-18 44.5q0 25 18.5 43.5t44.5 18.5q25 0 43.5 -19t18.5 -43q0 -26 -18 -44.5t-44 -18.5zM588 573h-392v-166h355v-114h-355v-179h392
v-114h-517v687h517v-114z" />
    <glyph glyph-name="Igrave" unicode="&#xcc;" horiz-adv-x="270" 
d="M93 745l-146 130l114 22l117 -152h-85zM73 0v687h124v-687h-124z" />
    <glyph glyph-name="Iacute" unicode="&#xcd;" horiz-adv-x="270" 
d="M91 745l117 152l114 -22l-146 -130h-85zM73 0v687h124v-687h-124z" />
    <glyph glyph-name="Icircumflex" unicode="&#xce;" horiz-adv-x="270" 
d="M-20 745l103 144h104l105 -144h-80l-77 79l-76 -79h-79zM73 0v687h124v-687h-124z" />
    <glyph glyph-name="Idieresis" unicode="&#xcf;" horiz-adv-x="270" 
d="M32 758q-26 0 -44 18.5t-18 44.5q0 25 18 43.5t44 18.5q25 0 43.5 -19t18.5 -43q0 -26 -18 -44.5t-44 -18.5zM238 758q-27 0 -45 18.5t-18 44.5q0 25 18.5 43.5t44.5 18.5q25 0 43.5 -19t18.5 -43q0 -26 -18 -44.5t-44 -18.5zM73 0v687h124v-687h-124z" />
    <glyph glyph-name="Eth" unicode="&#xd0;" horiz-adv-x="795" 
d="M355 687q170 0 278.5 -96t108.5 -247t-108.5 -247.5t-278.5 -96.5h-242v291h-72v114h72v282h242zM368 113q109 0 178 65t69 166t-69 165.5t-178 64.5h-130v-169h172l-1 -114h-171v-178h130z" />
    <glyph glyph-name="Ntilde" unicode="&#xd1;" horiz-adv-x="772" 
d="M452 743q-32 0 -74 28t-57 28q-35 0 -45 -57l-63 9q15 128 106 128q31 0 73 -28t57 -28q35 0 45 58l64 -10q-15 -128 -106 -128zM80 0v687h125l363 -483v483h124v-687h-124l-363 483v-483h-125z" />
    <glyph glyph-name="Ograve" unicode="&#xd2;" horiz-adv-x="810" 
d="M365 745l-146 130l114 22l117 -152h-85zM406 -12q-147 0 -254 105.5t-107 250.5t107 250t254 105q146 0 253 -105t107 -250t-107 -250.5t-253 -105.5zM406 102q95 0 163.5 71.5t68.5 170.5q0 98 -68.5 169.5t-163.5 71.5t-164.5 -71.5t-69.5 -169.5q0 -99 69.5 -170.5
t164.5 -71.5z" />
    <glyph glyph-name="Oacute" unicode="&#xd3;" horiz-adv-x="810" 
d="M360 745l117 152l114 -22l-146 -130h-85zM406 -12q-147 0 -254 105.5t-107 250.5t107 250t254 105q146 0 253 -105t107 -250t-107 -250.5t-253 -105.5zM406 102q95 0 163.5 71.5t68.5 170.5q0 98 -68.5 169.5t-163.5 71.5t-164.5 -71.5t-69.5 -169.5q0 -99 69.5 -170.5
t164.5 -71.5z" />
    <glyph glyph-name="Ocircumflex" unicode="&#xd4;" horiz-adv-x="810" 
d="M251 745l103 144h104l105 -144h-80l-77 79l-76 -79h-79zM406 -12q-147 0 -254 105.5t-107 250.5t107 250t254 105q146 0 253 -105t107 -250t-107 -250.5t-253 -105.5zM406 102q95 0 163.5 71.5t68.5 170.5q0 98 -68.5 169.5t-163.5 71.5t-164.5 -71.5t-69.5 -169.5
q0 -99 69.5 -170.5t164.5 -71.5z" />
    <glyph glyph-name="Otilde" unicode="&#xd5;" horiz-adv-x="810" 
d="M472 743q-32 0 -74 28t-57 28q-35 0 -45 -57l-63 9q15 128 106 128q31 0 73 -28t57 -28q35 0 45 58l64 -10q-15 -128 -106 -128zM406 -12q-147 0 -254 105.5t-107 250.5t107 250t254 105q146 0 253 -105t107 -250t-107 -250.5t-253 -105.5zM406 102q95 0 163.5 71.5
t68.5 170.5q0 98 -68.5 169.5t-163.5 71.5t-164.5 -71.5t-69.5 -169.5q0 -99 69.5 -170.5t164.5 -71.5z" />
    <glyph glyph-name="Odieresis" unicode="&#xd6;" horiz-adv-x="810" 
d="M303 758q-26 0 -44 18.5t-18 44.5q0 25 18 43.5t44 18.5q25 0 43.5 -19t18.5 -43q0 -26 -18 -44.5t-44 -18.5zM509 758q-27 0 -45 18.5t-18 44.5q0 25 18.5 43.5t44.5 18.5q25 0 43.5 -19t18.5 -43q0 -26 -18 -44.5t-44 -18.5zM406 -12q-147 0 -254 105.5t-107 250.5
t107 250t254 105q146 0 253 -105t107 -250t-107 -250.5t-253 -105.5zM406 102q95 0 163.5 71.5t68.5 170.5q0 98 -68.5 169.5t-163.5 71.5t-164.5 -71.5t-69.5 -169.5q0 -99 69.5 -170.5t164.5 -71.5z" />
    <glyph glyph-name="multiply" unicode="&#xd7;" horiz-adv-x="554" 
d="M483 205l-77 -77l-130 131l-130 -130l-74 74l130 130l-131 131l77 77l131 -131l129 129l74 -74l-129 -129z" />
    <glyph glyph-name="Oslash" unicode="&#xd8;" horiz-adv-x="810" 
d="M669 584q97 -103 97 -240q0 -145 -107 -250.5t-253 -105.5q-106 0 -197 59l-40 -47h-115l88 103q-97 103 -97 241q0 145 107 250t254 105q105 0 196 -59l40 47h115zM172 344q0 -82 50 -148l303 354q-56 35 -119 35q-95 0 -164.5 -71.5t-69.5 -169.5zM406 102
q95 0 163.5 71.5t68.5 170.5q0 82 -49 147l-303 -354q57 -35 120 -35z" />
    <glyph glyph-name="Ugrave" unicode="&#xd9;" horiz-adv-x="752" 
d="M376 745l-146 130l114 22l117 -152h-85zM376 -12q-133 0 -218 85.5t-85 219.5v394h125v-390q0 -86 50 -141t128 -55q79 0 129 55t50 141v390h124v-394q0 -134 -85 -219.5t-218 -85.5z" />
    <glyph glyph-name="Uacute" unicode="&#xda;" horiz-adv-x="752" 
d="M280 745l117 152l114 -22l-146 -130h-85zM376 -12q-133 0 -218 85.5t-85 219.5v394h125v-390q0 -86 50 -141t128 -55q79 0 129 55t50 141v390h124v-394q0 -134 -85 -219.5t-218 -85.5z" />
    <glyph glyph-name="Ucircumflex" unicode="&#xdb;" horiz-adv-x="752" 
d="M221 745l103 144h104l105 -144h-80l-77 79l-76 -79h-79zM376 -12q-133 0 -218 85.5t-85 219.5v394h125v-390q0 -86 50 -141t128 -55q79 0 129 55t50 141v390h124v-394q0 -134 -85 -219.5t-218 -85.5z" />
    <glyph glyph-name="Udieresis" unicode="&#xdc;" horiz-adv-x="752" 
d="M273 758q-26 0 -44 18.5t-18 44.5q0 25 18 43.5t44 18.5q25 0 43.5 -19t18.5 -43q0 -26 -18 -44.5t-44 -18.5zM479 758q-27 0 -45 18.5t-18 44.5q0 25 18.5 43.5t44.5 18.5q25 0 43.5 -19t18.5 -43q0 -26 -18 -44.5t-44 -18.5zM376 -12q-133 0 -218 85.5t-85 219.5v394
h125v-390q0 -86 50 -141t128 -55q79 0 129 55t50 141v390h124v-394q0 -134 -85 -219.5t-218 -85.5z" />
    <glyph glyph-name="Yacute" unicode="&#xdd;" horiz-adv-x="686" 
d="M248 745l117 152l114 -22l-146 -130h-85zM280 0v258l-272 429h147l189 -311l192 311h142l-271 -429v-258h-127z" />
    <glyph glyph-name="Thorn" unicode="&#xde;" horiz-adv-x="654" 
d="M71 0v687h124v-113h175q111 0 184 -64.5t73 -163.5q0 -100 -73 -164t-184 -64h-174v-118h-125zM196 232h160q64 0 104 31t40 83t-39.5 82.5t-104.5 30.5h-160v-227z" />
    <glyph glyph-name="germandbls" unicode="&#xdf;" horiz-adv-x="601" 
d="M71 0v521q0 85 65 139t167 54q101 0 166 -54t65 -139q0 -106 -97 -158q60 -29 93 -74.5t33 -101.5q0 -82 -61.5 -134.5t-157.5 -52.5h-77v108h53q50 0 82.5 27.5t32.5 70.5t-32.5 70.5t-82.5 27.5h-53v102h34q45 0 75 27t30 65q0 41 -29 67t-76 26t-76.5 -27t-29.5 -71
v-493h-124z" />
    <glyph glyph-name="agrave" unicode="&#xe0;" horiz-adv-x="579" 
d="M383 575h-85l-146 130l114 22zM292 529q102 0 162 -59.5t60 -158.5v-311h-119v62q-28 -35 -72.5 -54.5t-90.5 -19.5q-84 0 -138.5 45.5t-54.5 119.5q0 75 61 123.5t150 48.5q72 0 145 -28v14q0 50 -30.5 84t-96.5 34q-62 0 -140 -39l-42 85q109 54 206 54zM259 77
q47 0 86.5 23t49.5 62v58q-58 20 -127 20q-46 0 -78 -23.5t-32 -59.5t28.5 -58t72.5 -22z" />
    <glyph glyph-name="aacute" unicode="&#xe1;" horiz-adv-x="579" 
d="M433 705l-146 -130h-85l117 152zM292 529q102 0 162 -59.5t60 -158.5v-311h-119v62q-28 -35 -72.5 -54.5t-90.5 -19.5q-84 0 -138.5 45.5t-54.5 119.5q0 75 61 123.5t150 48.5q72 0 145 -28v14q0 50 -30.5 84t-96.5 34q-62 0 -140 -39l-42 85q109 54 206 54zM259 77
q47 0 86.5 23t49.5 62v58q-58 20 -127 20q-46 0 -78 -23.5t-32 -59.5t28.5 -58t72.5 -22z" />
    <glyph glyph-name="acircumflex" unicode="&#xe2;" horiz-adv-x="579" 
d="M298 654l-76 -79h-79l103 144h104l105 -144h-80zM292 529q102 0 162 -59.5t60 -158.5v-311h-119v62q-28 -35 -72.5 -54.5t-90.5 -19.5q-84 0 -138.5 45.5t-54.5 119.5q0 75 61 123.5t150 48.5q72 0 145 -28v14q0 50 -30.5 84t-96.5 34q-62 0 -140 -39l-42 85
q109 54 206 54zM259 77q47 0 86.5 23t49.5 62v58q-58 20 -127 20q-46 0 -78 -23.5t-32 -59.5t28.5 -58t72.5 -22z" />
    <glyph glyph-name="atilde" unicode="&#xe3;" horiz-adv-x="579" 
d="M233 629q-35 0 -45 -57l-63 9q15 128 106 128q31 0 73 -28t57 -28q35 0 45 58l64 -10q-15 -128 -106 -128q-32 0 -74 28t-57 28zM292 529q102 0 162 -59.5t60 -158.5v-311h-119v62q-28 -35 -72.5 -54.5t-90.5 -19.5q-84 0 -138.5 45.5t-54.5 119.5q0 75 61 123.5
t150 48.5q72 0 145 -28v14q0 50 -30.5 84t-96.5 34q-62 0 -140 -39l-42 85q109 54 206 54zM259 77q47 0 86.5 23t49.5 62v58q-58 20 -127 20q-46 0 -78 -23.5t-32 -59.5t28.5 -58t72.5 -22z" />
    <glyph glyph-name="adieresis" unicode="&#xe4;" horiz-adv-x="579" 
d="M195 588q-26 0 -44 18.5t-18 44.5q0 25 18 43.5t44 18.5q25 0 43.5 -19t18.5 -43q0 -26 -18 -44.5t-44 -18.5zM401 588q-27 0 -45 18.5t-18 44.5q0 25 18.5 43.5t44.5 18.5q25 0 43.5 -19t18.5 -43q0 -26 -18 -44.5t-44 -18.5zM292 529q102 0 162 -59.5t60 -158.5v-311
h-119v62q-28 -35 -72.5 -54.5t-90.5 -19.5q-84 0 -138.5 45.5t-54.5 119.5q0 75 61 123.5t150 48.5q72 0 145 -28v14q0 50 -30.5 84t-96.5 34q-62 0 -140 -39l-42 85q109 54 206 54zM259 77q47 0 86.5 23t49.5 62v58q-58 20 -127 20q-46 0 -78 -23.5t-32 -59.5t28.5 -58
t72.5 -22z" />
    <glyph glyph-name="aring" unicode="&#xe5;" horiz-adv-x="579" 
d="M298 583q-45 0 -77.5 32.5t-32.5 78.5t32.5 78t77.5 32q46 0 78 -32t32 -78t-32 -78.5t-78 -32.5zM298 749q-22 0 -38.5 -16.5t-16.5 -38.5t16.5 -38.5t38.5 -16.5t38.5 16.5t16.5 38.5t-16.5 38.5t-38.5 16.5zM292 529q102 0 162 -59.5t60 -158.5v-311h-119v62
q-28 -35 -72.5 -54.5t-90.5 -19.5q-84 0 -138.5 45.5t-54.5 119.5q0 75 61 123.5t150 48.5q72 0 145 -28v14q0 50 -30.5 84t-96.5 34q-62 0 -140 -39l-42 85q109 54 206 54zM259 77q47 0 86.5 23t49.5 62v58q-58 20 -127 20q-46 0 -78 -23.5t-32 -59.5t28.5 -58t72.5 -22z
" />
    <glyph glyph-name="ae" unicode="&#xe6;" horiz-adv-x="948" 
d="M663 96q36 0 74 15t60 37l77 -80q-33 -35 -93 -57.5t-117 -22.5q-127 0 -208 95q-32 -44 -86 -69.5t-120 -25.5q-96 0 -153.5 44.5t-57.5 120.5q0 75 61 123.5t150 48.5q72 0 145 -28v14q0 50 -30.5 84t-96.5 34q-62 0 -140 -39l-42 85q109 54 198 54q123 0 178 -85
q77 85 195 85q119 0 186 -84t67 -228h-390q11 -54 49.5 -87.5t93.5 -33.5zM662 421q-51 0 -89.5 -30t-51.5 -81h272q-11 51 -44.5 81t-86.5 30zM265 77q55 0 92.5 32t37.5 78v33q-58 20 -127 20q-46 0 -78 -23.5t-32 -59.5q0 -37 29 -58.5t78 -21.5z" />
    <glyph glyph-name="ccedilla" unicode="&#xe7;" horiz-adv-x="546" 
d="M517 75q-73 -76 -174 -86l-15 -33h5q31 0 51.5 -19t20.5 -48q0 -38 -29.5 -61t-75.5 -23q-56 0 -92 29l24 52q29 -23 62 -23q19 0 31.5 9t12.5 24q0 29 -34 29q-18 0 -31 -10l-20 20l24 56q-100 14 -168.5 91t-68.5 177q0 110 82.5 190t195.5 80q115 0 196 -84l-82 -72
q-47 52 -115 52q-64 0 -110 -49t-46 -117t46 -117.5t110 -49.5q71 0 118 54z" />
    <glyph glyph-name="egrave" unicode="&#xe8;" horiz-adv-x="594" 
d="M387 575h-85l-146 130l114 22zM308 96q36 0 74 15t60 37l77 -80q-33 -35 -93 -57.5t-117 -22.5q-113 0 -191.5 77t-78.5 195q0 115 76 192t187 77q119 0 186 -84t67 -228h-390q11 -54 49.5 -87.5t93.5 -33.5zM307 421q-51 0 -89.5 -30t-51.5 -81h272q-11 51 -44.5 81
t-86.5 30z" />
    <glyph glyph-name="eacute" unicode="&#xe9;" horiz-adv-x="594" 
d="M437 705l-146 -130h-85l117 152zM308 96q36 0 74 15t60 37l77 -80q-33 -35 -93 -57.5t-117 -22.5q-113 0 -191.5 77t-78.5 195q0 115 76 192t187 77q119 0 186 -84t67 -228h-390q11 -54 49.5 -87.5t93.5 -33.5zM307 421q-51 0 -89.5 -30t-51.5 -81h272q-11 51 -44.5 81
t-86.5 30z" />
    <glyph glyph-name="ecircumflex" unicode="&#xea;" horiz-adv-x="594" 
d="M302 654l-76 -79h-79l103 144h104l105 -144h-80zM308 96q36 0 74 15t60 37l77 -80q-33 -35 -93 -57.5t-117 -22.5q-113 0 -191.5 77t-78.5 195q0 115 76 192t187 77q119 0 186 -84t67 -228h-390q11 -54 49.5 -87.5t93.5 -33.5zM307 421q-51 0 -89.5 -30t-51.5 -81h272
q-11 51 -44.5 81t-86.5 30z" />
    <glyph glyph-name="edieresis" unicode="&#xeb;" horiz-adv-x="594" 
d="M199 588q-26 0 -44 18.5t-18 44.5q0 25 18 43.5t44 18.5q25 0 43.5 -19t18.5 -43q0 -26 -18 -44.5t-44 -18.5zM405 588q-27 0 -45 18.5t-18 44.5q0 25 18.5 43.5t44.5 18.5q25 0 43.5 -19t18.5 -43q0 -26 -18 -44.5t-44 -18.5zM308 96q36 0 74 15t60 37l77 -80
q-33 -35 -93 -57.5t-117 -22.5q-113 0 -191.5 77t-78.5 195q0 115 76 192t187 77q119 0 186 -84t67 -228h-390q11 -54 49.5 -87.5t93.5 -33.5zM307 421q-51 0 -89.5 -30t-51.5 -81h272q-11 51 -44.5 81t-86.5 30z" />
    <glyph glyph-name="igrave" unicode="&#xec;" horiz-adv-x="257" 
d="M87 575l-146 130l114 22l117 -152h-85zM67 0v517h122v-517h-122z" />
    <glyph glyph-name="iacute" unicode="&#xed;" horiz-adv-x="257" 
d="M85 575l117 152l114 -22l-146 -130h-85zM67 0v517h122v-517h-122z" />
    <glyph glyph-name="icircumflex" unicode="&#xee;" horiz-adv-x="257" 
d="M-26 575l103 144h104l105 -144h-80l-77 79l-76 -79h-79zM67 0v517h122v-517h-122z" />
    <glyph glyph-name="idieresis" unicode="&#xef;" horiz-adv-x="257" 
d="M26 588q-26 0 -44 18.5t-18 44.5q0 25 18 43.5t44 18.5q25 0 43.5 -19t18.5 -43q0 -26 -18 -44.5t-44 -18.5zM232 588q-27 0 -45 18.5t-18 44.5q0 25 18.5 43.5t44.5 18.5q25 0 43.5 -19t18.5 -43q0 -26 -18 -44.5t-44 -18.5zM67 0v517h122v-517h-122z" />
    <glyph glyph-name="eth" unicode="&#xf0;" horiz-adv-x="630" 
d="M409 612q89 -83 131 -162t42 -173q0 -127 -74.5 -208t-190.5 -81q-117 0 -192 73t-75 188q0 108 64 177.5t164 69.5q92 0 157 -76q-38 75 -125 148l-111 -49l-31 73l71 32l-74 51l113 47l65 -52l93 42l32 -73zM317 93q63 0 103.5 42.5t40.5 108.5q0 64 -40.5 107
t-105.5 43q-64 0 -104.5 -41.5t-40.5 -106.5q0 -67 41 -110t106 -43z" />
    <glyph glyph-name="ntilde" unicode="&#xf1;" horiz-adv-x="606" 
d="M252 629q-35 0 -45 -57l-63 9q15 128 106 128q31 0 73 -28t57 -28q35 0 45 58l64 -10q-15 -128 -106 -128q-32 0 -74 28t-57 28zM349 529q85 0 138.5 -56t53.5 -144v-329h-118v305q0 53 -30.5 86.5t-78.5 33.5t-83.5 -28t-41.5 -70v-327h-122v517h122v-69q24 37 67 59
t93 22z" />
    <glyph glyph-name="ograve" unicode="&#xf2;" horiz-adv-x="633" 
d="M317 575l-146 130l114 22l117 -152h-85zM317 -12q-113 0 -195 80.5t-82 190.5t82 190t195 80t195 -80t82 -190t-82 -190.5t-195 -80.5zM317 92q64 0 110.5 49.5t46.5 117.5q0 67 -46.5 116.5t-110.5 49.5t-111 -49t-47 -117t46.5 -117.5t111.5 -49.5z" />
    <glyph glyph-name="oacute" unicode="&#xf3;" horiz-adv-x="633" 
d="M221 575l117 152l114 -22l-146 -130h-85zM317 -12q-113 0 -195 80.5t-82 190.5t82 190t195 80t195 -80t82 -190t-82 -190.5t-195 -80.5zM317 92q64 0 110.5 49.5t46.5 117.5q0 67 -46.5 116.5t-110.5 49.5t-111 -49t-47 -117t46.5 -117.5t111.5 -49.5z" />
    <glyph glyph-name="ocircumflex" unicode="&#xf4;" horiz-adv-x="633" 
d="M162 575l103 144h104l105 -144h-80l-77 79l-76 -79h-79zM317 -12q-113 0 -195 80.5t-82 190.5t82 190t195 80t195 -80t82 -190t-82 -190.5t-195 -80.5zM317 92q64 0 110.5 49.5t46.5 117.5q0 67 -46.5 116.5t-110.5 49.5t-111 -49t-47 -117t46.5 -117.5t111.5 -49.5z" />
    <glyph glyph-name="otilde" unicode="&#xf5;" horiz-adv-x="633" 
d="M383 573q-32 0 -74 28t-57 28q-35 0 -45 -57l-63 9q15 128 106 128q31 0 73 -28t57 -28q35 0 45 58l64 -10q-15 -128 -106 -128zM317 -12q-113 0 -195 80.5t-82 190.5t82 190t195 80t195 -80t82 -190t-82 -190.5t-195 -80.5zM317 92q64 0 110.5 49.5t46.5 117.5
q0 67 -46.5 116.5t-110.5 49.5t-111 -49t-47 -117t46.5 -117.5t111.5 -49.5z" />
    <glyph glyph-name="odieresis" unicode="&#xf6;" horiz-adv-x="633" 
d="M214 588q-26 0 -44 18.5t-18 44.5q0 25 18 43.5t44 18.5q25 0 43.5 -19t18.5 -43q0 -26 -18 -44.5t-44 -18.5zM420 588q-27 0 -45 18.5t-18 44.5q0 25 18.5 43.5t44.5 18.5q25 0 43.5 -19t18.5 -43q0 -26 -18 -44.5t-44 -18.5zM317 -12q-113 0 -195 80.5t-82 190.5
t82 190t195 80t195 -80t82 -190t-82 -190.5t-195 -80.5zM317 92q64 0 110.5 49.5t46.5 117.5q0 67 -46.5 116.5t-110.5 49.5t-111 -49t-47 -117t46.5 -117.5t111.5 -49.5z" />
    <glyph glyph-name="divide" unicode="&#xf7;" horiz-adv-x="599" 
d="M302 442q-31 0 -52 21.5t-21 51.5q0 28 21.5 49t51.5 21q28 0 49 -21t21 -49q0 -30 -20.5 -51.5t-49.5 -21.5zM62 282v104h475v-104h-475zM302 83q-31 0 -52 21.5t-21 51.5q0 28 21.5 49t51.5 21q28 0 49 -21t21 -49q0 -30 -20.5 -51.5t-49.5 -21.5z" />
    <glyph glyph-name="oslash" unicode="&#xf8;" horiz-adv-x="633" 
d="M522 438q72 -77 72 -179q0 -110 -82 -190.5t-195 -80.5q-77 0 -146 42l-26 -30h-99l67 78q-73 78 -73 181q0 110 82 190t195 80q78 0 148 -43l26 31h99zM159 259q0 -51 28 -95l206 239q-36 22 -76 22q-64 0 -111 -49t-47 -117zM317 92q64 0 110.5 49.5t46.5 117.5
q0 49 -27 92l-205 -238q33 -21 75 -21z" />
    <glyph glyph-name="ugrave" unicode="&#xf9;" horiz-adv-x="606" 
d="M387 575h-85l-146 130l114 22zM417 517h122v-517h-122v69q-24 -37 -67 -59t-93 -22q-85 0 -138.5 56t-53.5 144v329h118v-305q0 -53 30.5 -86.5t78.5 -33.5t83.5 28t41.5 70v327z" />
    <glyph glyph-name="uacute" unicode="&#xfa;" horiz-adv-x="606" 
d="M437 705l-146 -130h-85l117 152zM417 517h122v-517h-122v69q-24 -37 -67 -59t-93 -22q-85 0 -138.5 56t-53.5 144v329h118v-305q0 -53 30.5 -86.5t78.5 -33.5t83.5 28t41.5 70v327z" />
    <glyph glyph-name="ucircumflex" unicode="&#xfb;" horiz-adv-x="606" 
d="M302 654l-76 -79h-79l103 144h104l105 -144h-80zM417 517h122v-517h-122v69q-24 -37 -67 -59t-93 -22q-85 0 -138.5 56t-53.5 144v329h118v-305q0 -53 30.5 -86.5t78.5 -33.5t83.5 28t41.5 70v327z" />
    <glyph glyph-name="udieresis" unicode="&#xfc;" horiz-adv-x="606" 
d="M199 588q-26 0 -44 18.5t-18 44.5q0 25 18 43.5t44 18.5q25 0 43.5 -19t18.5 -43q0 -26 -18 -44.5t-44 -18.5zM405 588q-27 0 -45 18.5t-18 44.5q0 25 18.5 43.5t44.5 18.5q25 0 43.5 -19t18.5 -43q0 -26 -18 -44.5t-44 -18.5zM417 517h122v-517h-122v69q-24 -37 -67 -59
t-93 -22q-85 0 -138.5 56t-53.5 144v329h118v-305q0 -53 30.5 -86.5t78.5 -33.5t83.5 28t41.5 70v327z" />
    <glyph glyph-name="yacute" unicode="&#xfd;" horiz-adv-x="599" 
d="M204 575l117 152l114 -22l-146 -130h-85zM172 -180q-64 0 -113 27l26 88q35 -19 66 -19q46 0 66 34l22 46l-219 521h129l151 -386l142 386h126l-219 -553q-57 -142 -177 -144z" />
    <glyph glyph-name="thorn" unicode="&#xfe;" 
d="M372 529q103 0 170 -76t67 -194q0 -119 -67 -195t-170 -76q-115 0 -180 94v-254h-122v871h122v-264q65 94 180 94zM339 92q65 0 107 47t42 120t-42 119.5t-107 46.5q-64 0 -105 -46.5t-41 -119.5t41 -120t105 -47z" />
    <glyph glyph-name="ydieresis" unicode="&#xff;" horiz-adv-x="599" 
d="M197 588q-26 0 -44 18.5t-18 44.5q0 25 18 43.5t44 18.5q25 0 43.5 -19t18.5 -43q0 -26 -18 -44.5t-44 -18.5zM403 588q-27 0 -45 18.5t-18 44.5q0 25 18.5 43.5t44.5 18.5q25 0 43.5 -19t18.5 -43q0 -26 -18 -44.5t-44 -18.5zM172 -180q-64 0 -113 27l26 88
q35 -19 66 -19q46 0 66 34l22 46l-219 521h129l151 -386l142 386h126l-219 -553q-57 -142 -177 -144z" />
    <glyph glyph-name="Amacron" unicode="&#x100;" horiz-adv-x="752" 
d="M543 831v-75h-334v75h334zM594 0l-52 124h-332l-52 -124h-139l287 687h139l287 -687h-138zM255 232h242l-121 289z" />
    <glyph glyph-name="amacron" unicode="&#x101;" horiz-adv-x="579" 
d="M465 661v-75h-334v75h334zM292 529q102 0 162 -59.5t60 -158.5v-311h-119v62q-28 -35 -72.5 -54.5t-90.5 -19.5q-84 0 -138.5 45.5t-54.5 119.5q0 75 61 123.5t150 48.5q72 0 145 -28v14q0 50 -30.5 84t-96.5 34q-62 0 -140 -39l-42 85q109 54 206 54zM259 77
q47 0 86.5 23t49.5 62v58q-58 20 -127 20q-46 0 -78 -23.5t-32 -59.5t28.5 -58t72.5 -22z" />
    <glyph glyph-name="Abreve" unicode="&#x102;" horiz-adv-x="752" 
d="M532 818q-65 -65 -156 -65q-89 0 -156 65l58 58q43 -43 98 -43t98 43zM594 0l-52 124h-332l-52 -124h-139l287 687h139l287 -687h-138zM255 232h242l-121 289z" />
    <glyph glyph-name="abreve" unicode="&#x103;" horiz-adv-x="579" 
d="M454 648q-65 -65 -156 -65q-89 0 -156 65l58 58q43 -43 98 -43t98 43zM292 529q102 0 162 -59.5t60 -158.5v-311h-119v62q-28 -35 -72.5 -54.5t-90.5 -19.5q-84 0 -138.5 45.5t-54.5 119.5q0 75 61 123.5t150 48.5q72 0 145 -28v14q0 50 -30.5 84t-96.5 34
q-62 0 -140 -39l-42 85q109 54 206 54zM259 77q47 0 86.5 23t49.5 62v58q-58 20 -127 20q-46 0 -78 -23.5t-32 -59.5t28.5 -58t72.5 -22z" />
    <glyph glyph-name="Aogonek" unicode="&#x104;" horiz-adv-x="752" 
d="M774 -79l28 -63q-38 -31 -88 -31q-49 0 -79.5 30t-30.5 80q0 36 21 63h-31l-52 124h-332l-52 -124h-139l287 687h139l287 -687h1q-22 0 -36 -13.5t-14 -35.5t13.5 -34t37.5 -12t40 16zM255 232h242l-121 289z" />
    <glyph glyph-name="aogonek" unicode="&#x105;" horiz-adv-x="579" 
d="M555 -79l28 -63q-38 -31 -88 -31q-49 0 -79.5 30t-30.5 80q0 36 21 63h-11v62q-28 -35 -72.5 -54.5t-90.5 -19.5q-84 0 -138.5 45.5t-54.5 119.5q0 75 61 123.5t150 48.5q72 0 145 -28v14q0 50 -30.5 84t-96.5 34q-62 0 -140 -39l-42 85q109 54 206 54q102 0 162 -59.5
t60 -158.5v-311q-22 0 -36 -13.5t-14 -35.5t13.5 -34t37.5 -12t40 16zM259 77q47 0 86.5 23t49.5 62v58q-58 20 -127 20q-46 0 -78 -23.5t-32 -59.5t28.5 -58t72.5 -22z" />
    <glyph glyph-name="Cacute" unicode="&#x106;" horiz-adv-x="690" 
d="M288 745l117 152l114 -22l-146 -130h-85zM406 -12q-147 0 -254 105.5t-107 250.5t107 250t254 105q151 0 259 -111l-89 -83q-69 80 -170 80q-95 0 -164.5 -71.5t-69.5 -169.5q0 -99 69.5 -170.5t164.5 -71.5q101 0 171 80l88 -82q-107 -112 -259 -112z" />
    <glyph glyph-name="cacute" unicode="&#x107;" horiz-adv-x="546" 
d="M201 575l117 152l114 -22l-146 -130h-85zM316 -12q-112 0 -194 80.5t-82 190.5t82.5 190t195.5 80q115 0 196 -84l-82 -72q-47 52 -115 52q-64 0 -110 -49t-46 -117t46 -117.5t110 -49.5q71 0 118 54l82 -71q-82 -87 -201 -87z" />
    <glyph glyph-name="Ccaron" unicode="&#x10c;" horiz-adv-x="690" 
d="M332 745l-103 144h79l76 -78l77 78h80l-105 -144h-104zM406 -12q-147 0 -254 105.5t-107 250.5t107 250t254 105q151 0 259 -111l-89 -83q-69 80 -170 80q-95 0 -164.5 -71.5t-69.5 -169.5q0 -99 69.5 -170.5t164.5 -71.5q101 0 171 80l88 -82q-107 -112 -259 -112z" />
    <glyph glyph-name="ccaron" unicode="&#x10d;" horiz-adv-x="546" 
d="M245 575l-103 144h79l76 -78l77 78h80l-105 -144h-104zM316 -12q-112 0 -194 80.5t-82 190.5t82.5 190t195.5 80q115 0 196 -84l-82 -72q-47 52 -115 52q-64 0 -110 -49t-46 -117t46 -117.5t110 -49.5q71 0 118 54l82 -71q-82 -87 -201 -87z" />
    <glyph glyph-name="Dcaron" unicode="&#x10e;" horiz-adv-x="761" 
d="M270 745l-103 144h79l76 -78l77 78h80l-105 -144h-104zM80 0v687h242q170 0 278.5 -96t108.5 -247t-108.5 -247.5t-278.5 -96.5h-242zM205 113h130q109 0 178 65t69 166t-69 165.5t-178 64.5h-130v-461z" />
    <glyph glyph-name="dcaron" unicode="&#x10f;" 
d="M460 437v262h122v-699h-122v80q-65 -92 -179 -92q-103 0 -170 76t-67 195q0 118 67 194t170 76q114 0 179 -92zM713 699q29 0 47.5 -24.5t18.5 -62.5q0 -57 -77 -140l-37 28q37 35 46 75q-25 0 -42.5 18t-17.5 44q0 25 18.5 43.5t43.5 18.5zM314 92q64 0 105 47t41 120
t-41 119.5t-105 46.5q-65 0 -107 -46.5t-42 -119.5t42 -120t107 -47z" />
    <glyph glyph-name="Dcroat" unicode="&#x110;" horiz-adv-x="795" 
d="M355 687q170 0 278.5 -96t108.5 -247t-108.5 -247.5t-278.5 -96.5h-242v291h-72v114h72v282h242zM368 113q109 0 178 65t69 166t-69 165.5t-178 64.5h-130v-169h172l-1 -114h-171v-178h130z" />
    <glyph glyph-name="dcroat" unicode="&#x111;" horiz-adv-x="676" 
d="M644 643v-66h-62v-577h-122v80q-65 -92 -179 -92q-103 0 -170 76t-67 195q0 118 67 194t170 76q114 0 179 -92v140h-158v66h158v56h122v-56h62zM314 92q64 0 105 47t41 120t-41 119.5t-105 46.5q-65 0 -107 -46.5t-42 -119.5t42 -120t107 -47z" />
    <glyph glyph-name="Emacron" unicode="&#x112;" horiz-adv-x="637" 
d="M497 831v-75h-334v75h334zM588 573h-392v-166h355v-114h-355v-179h392v-114h-517v687h517v-114z" />
    <glyph glyph-name="emacron" unicode="&#x113;" horiz-adv-x="594" 
d="M469 661v-75h-334v75h334zM308 96q36 0 74 15t60 37l77 -80q-33 -35 -93 -57.5t-117 -22.5q-113 0 -191.5 77t-78.5 195q0 115 76 192t187 77q119 0 186 -84t67 -228h-390q11 -54 49.5 -87.5t93.5 -33.5zM307 421q-51 0 -89.5 -30t-51.5 -81h272q-11 51 -44.5 81
t-86.5 30z" />
    <glyph glyph-name="Edotaccent" unicode="&#x116;" horiz-adv-x="637" 
d="M330 758q-26 0 -44 18.5t-18 44.5q0 25 18 43.5t44 18.5q25 0 43.5 -19t18.5 -43q0 -26 -18 -44.5t-44 -18.5zM588 573h-392v-166h355v-114h-355v-179h392v-114h-517v687h517v-114z" />
    <glyph glyph-name="edotaccent" unicode="&#x117;" horiz-adv-x="594" 
d="M302 588q-26 0 -44 18.5t-18 44.5q0 25 18 43.5t44 18.5q25 0 43.5 -19t18.5 -43q0 -26 -18 -44.5t-44 -18.5zM308 96q36 0 74 15t60 37l77 -80q-33 -35 -93 -57.5t-117 -22.5q-113 0 -191.5 77t-78.5 195q0 115 76 192t187 77q119 0 186 -84t67 -228h-390
q11 -54 49.5 -87.5t93.5 -33.5zM307 421q-51 0 -89.5 -30t-51.5 -81h272q-11 51 -44.5 81t-86.5 30z" />
    <glyph glyph-name="Eogonek" unicode="&#x118;" horiz-adv-x="637" 
d="M561 -79l28 -63q-38 -31 -88 -31q-49 0 -79.5 30t-30.5 80q0 36 21 63h-341v687h517v-114h-392v-166h355v-114h-355v-179h392v-114h-68q-22 0 -36 -13.5t-14 -35.5t13.5 -34t37.5 -12t40 16z" />
    <glyph glyph-name="eogonek" unicode="&#x119;" horiz-adv-x="593" 
d="M519 68q-37 -40 -107 -63q-12 -14 -12 -33q0 -22 13.5 -34t37.5 -12t40 16l28 -63q-38 -31 -88 -31q-49 0 -79.5 30t-30.5 80q0 12 4 30h-16q-113 0 -191.5 77t-78.5 195q0 115 76 192t187 77q119 0 186 -84t67 -228h-390q11 -54 49.5 -87.5t93.5 -33.5q36 0 74 15t60 37
zM307 421q-51 0 -89.5 -30t-51.5 -81h272q-11 51 -44.5 81t-86.5 30z" />
    <glyph glyph-name="Ecaron" unicode="&#x11a;" horiz-adv-x="637" 
d="M382 745h-104l-103 144h79l76 -78l77 78h80zM588 573h-392v-166h355v-114h-355v-179h392v-114h-517v687h517v-114z" />
    <glyph glyph-name="ecaron" unicode="&#x11b;" horiz-adv-x="594" 
d="M354 575h-104l-103 144h79l76 -78l77 78h80zM308 96q36 0 74 15t60 37l77 -80q-33 -35 -93 -57.5t-117 -22.5q-113 0 -191.5 77t-78.5 195q0 115 76 192t187 77q119 0 186 -84t67 -228h-390q11 -54 49.5 -87.5t93.5 -33.5zM307 421q-51 0 -89.5 -30t-51.5 -81h272
q-11 51 -44.5 81t-86.5 30z" />
    <glyph glyph-name="Gbreve" unicode="&#x11e;" horiz-adv-x="743" 
d="M564 818q-65 -65 -156 -65q-89 0 -156 65l58 58q43 -43 98 -43t98 43zM388 276v102h293v-278q-49 -51 -123.5 -81.5t-149.5 -30.5q-148 0 -255.5 105.5t-107.5 250.5t107.5 250t255.5 105q76 0 150 -30t123 -81l-89 -83q-32 37 -82.5 58.5t-101.5 21.5q-96 0 -166 -71.5
t-70 -169.5q0 -99 70 -170.5t166 -71.5q83 0 151 49v125h-171z" />
    <glyph glyph-name="gbreve" unicode="&#x11f;" horiz-adv-x="644" 
d="M489 648q-65 -65 -156 -65q-89 0 -156 65l58 58q43 -43 98 -43t98 43zM452 517h122v-462q0 -100 -75.5 -163.5t-194.5 -63.5q-134 0 -222 69l45 89q59 -54 159 -54q76 0 121 34t45 93v67q-66 -88 -177 -88q-101 0 -167 69t-66 177q0 107 66 176t167 69q55 0 102 -24
t75 -65v77zM310 142q62 0 102 40t40 102t-40 101.5t-102 39.5t-101.5 -39.5t-39.5 -101.5t39.5 -102t101.5 -40z" />
    <glyph glyph-name="Gcommaaccent" unicode="&#x122;" horiz-adv-x="743" 
d="M388 276v102h293v-278q-49 -51 -123.5 -81.5t-149.5 -30.5q-148 0 -255.5 105.5t-107.5 250.5t107.5 250t255.5 105q76 0 150 -30t123 -81l-89 -83q-32 37 -82.5 58.5t-101.5 21.5q-96 0 -166 -71.5t-70 -169.5q0 -99 70 -170.5t166 -71.5q83 0 151 49v125h-171zM405 -58
q29 0 47.5 -24.5t18.5 -62.5q0 -57 -77 -140l-37 28q37 35 46 75q-25 0 -42.5 18t-17.5 44q0 25 18.5 43.5t43.5 18.5z" />
    <glyph glyph-name="gcommaaccent" unicode="&#x123;" horiz-adv-x="644" 
d="M315 588q-29 0 -47.5 24.5t-18.5 62.5q0 57 77 140l37 -28q-37 -35 -46 -75q25 0 42.5 -18t17.5 -44q0 -25 -18.5 -43.5t-43.5 -18.5zM452 517h122v-462q0 -100 -75.5 -163.5t-194.5 -63.5q-134 0 -222 69l45 89q59 -54 159 -54q76 0 121 34t45 93v67q-66 -88 -177 -88
q-101 0 -167 69t-66 177q0 107 66 176t167 69q55 0 102 -24t75 -65v77zM310 142q62 0 102 40t40 102t-40 101.5t-102 39.5t-101.5 -39.5t-39.5 -101.5t39.5 -102t101.5 -40z" />
    <glyph glyph-name="Imacron" unicode="&#x12a;" horiz-adv-x="270" 
d="M-32 756v75h334v-75h-334zM73 0v687h124v-687h-124z" />
    <glyph glyph-name="imacron" unicode="&#x12b;" horiz-adv-x="257" 
d="M-38 586v75h334v-75h-334zM67 0v517h122v-517h-122z" />
    <glyph glyph-name="Iogonek" unicode="&#x12e;" horiz-adv-x="270" 
d="M226 -79l28 -63q-38 -31 -88 -31q-49 0 -79.5 30t-30.5 80q0 36 21 63h-4v687h124v-687h-12q-22 0 -36 -13.5t-14 -35.5t13.5 -34t37.5 -12t40 16z" />
    <glyph glyph-name="iogonek" unicode="&#x12f;" horiz-adv-x="257" 
d="M129 588q-26 0 -44 18.5t-18 44.5q0 25 18 43.5t44 18.5q25 0 43.5 -19t18.5 -43q0 -26 -18 -44.5t-44 -18.5zM170 -79l28 -63q-38 -31 -88 -31q-49 0 -79.5 30t-30.5 80q0 61 52 90l15 -5v495h122v-517h-60q-22 0 -36 -13.5t-14 -35.5t13.5 -34t37.5 -12t40 16z" />
    <glyph glyph-name="Idotaccent" unicode="&#x130;" horiz-adv-x="270" 
d="M135 758q-26 0 -44 18.5t-18 44.5q0 25 18 43.5t44 18.5q25 0 43.5 -19t18.5 -43q0 -26 -18 -44.5t-44 -18.5zM73 0v687h124v-687h-124z" />
    <glyph glyph-name="dotlessi" unicode="&#x131;" horiz-adv-x="257" 
d="M67 0v517h122v-517h-122z" />
    <glyph glyph-name="Kcommaaccent" unicode="&#x136;" horiz-adv-x="686" 
d="M79 0v687h125v-336l301 336h153l-275 -303l295 -384h-154l-227 296l-93 -100v-196h-125zM343 -285l-37 28q37 35 46 75q-25 0 -42.5 18t-17.5 44q0 25 18.5 43.5t43.5 18.5q29 0 47.5 -24.5t18.5 -62.5q0 -57 -77 -140z" />
    <glyph glyph-name="kcommaaccent" unicode="&#x137;" horiz-adv-x="562" 
d="M555 517l-213 -231l206 -286h-142l-146 206l-73 -77v-129h-122v699h122v-427l224 245h144zM290 -58q29 0 47.5 -24.5t18.5 -62.5q0 -57 -77 -140l-37 28q37 35 46 75q-25 0 -42.5 18t-17.5 44q0 25 18.5 43.5t43.5 18.5z" />
    <glyph glyph-name="Lacute" unicode="&#x139;" horiz-adv-x="572" 
d="M313 875l-146 -130h-85l117 152zM189 114h353v-114h-477v687h124v-573z" />
    <glyph glyph-name="lacute" unicode="&#x13a;" horiz-adv-x="257" 
d="M85 757l117 152l114 -22l-146 -130h-85zM67 0v699h122v-699h-122z" />
    <glyph glyph-name="Lcaron" unicode="&#x13d;" horiz-adv-x="572" 
d="M318 575q-25 0 -42.5 18t-17.5 44q0 25 18.5 43.5t43.5 18.5q29 0 47.5 -24.5t18.5 -62.5q0 -57 -77 -140l-37 28q37 35 46 75zM189 114h353v-114h-477v687h124v-573z" />
    <glyph glyph-name="lcaron" unicode="&#x13e;" horiz-adv-x="257" 
d="M67 0v699h122v-699h-122zM309 472l-37 28q37 35 46 75q-25 0 -42.5 18t-17.5 44q0 25 18.5 43.5t43.5 18.5q29 0 47.5 -24.5t18.5 -62.5q0 -57 -77 -140z" />
    <glyph glyph-name="Lslash" unicode="&#x141;" horiz-adv-x="613" 
d="M231 114h353v-114h-477v251l-78 -39v111l78 39v325h124v-262l124 63v-112l-124 -62v-200z" />
    <glyph glyph-name="lslash" unicode="&#x142;" horiz-adv-x="338" 
d="M308 464v-112l-81 -41v-311h-122v250l-76 -38v111l76 38v338h122v-276z" />
    <glyph glyph-name="Nacute" unicode="&#x143;" horiz-adv-x="772" 
d="M290 745l117 152l114 -22l-146 -130h-85zM80 0v687h125l363 -483v483h124v-687h-124l-363 483v-483h-125z" />
    <glyph glyph-name="nacute" unicode="&#x144;" horiz-adv-x="606" 
d="M452 705l-146 -130h-85l117 152zM349 529q85 0 138.5 -56t53.5 -144v-329h-118v305q0 53 -30.5 86.5t-78.5 33.5t-83.5 -28t-41.5 -70v-327h-122v517h122v-69q24 37 67 59t93 22z" />
    <glyph glyph-name="Ncommaaccent" unicode="&#x145;" horiz-adv-x="772" 
d="M80 0v687h125l363 -483v483h124v-687h-124l-363 483v-483h-125zM375 -285l-37 28q37 35 46 75q-25 0 -42.5 18t-17.5 44q0 25 18.5 43.5t43.5 18.5q29 0 47.5 -24.5t18.5 -62.5q0 -57 -77 -140z" />
    <glyph glyph-name="ncommaaccent" unicode="&#x146;" horiz-adv-x="606" 
d="M349 529q85 0 138.5 -56t53.5 -144v-329h-118v305q0 53 -30.5 86.5t-78.5 33.5t-83.5 -28t-41.5 -70v-327h-122v517h122v-69q24 37 67 59t93 22zM317 -58q29 0 47.5 -24.5t18.5 -62.5q0 -57 -77 -140l-37 28q37 35 46 75q-25 0 -42.5 18t-17.5 44q0 25 18.5 43.5
t43.5 18.5z" />
    <glyph glyph-name="Ncaron" unicode="&#x147;" horiz-adv-x="772" 
d="M334 745l-103 144h79l76 -78l77 78h80l-105 -144h-104zM80 0v687h125l363 -483v483h124v-687h-124l-363 483v-483h-125z" />
    <glyph glyph-name="ncaron" unicode="&#x148;" horiz-adv-x="606" 
d="M369 575h-104l-103 144h79l76 -78l77 78h80zM349 529q85 0 138.5 -56t53.5 -144v-329h-118v305q0 53 -30.5 86.5t-78.5 33.5t-83.5 -28t-41.5 -70v-327h-122v517h122v-69q24 37 67 59t93 22z" />
    <glyph glyph-name="Omacron" unicode="&#x14c;" horiz-adv-x="810" 
d="M239 756v75h334v-75h-334zM406 -12q-147 0 -254 105.5t-107 250.5t107 250t254 105q146 0 253 -105t107 -250t-107 -250.5t-253 -105.5zM406 102q95 0 163.5 71.5t68.5 170.5q0 98 -68.5 169.5t-163.5 71.5t-164.5 -71.5t-69.5 -169.5q0 -99 69.5 -170.5t164.5 -71.5z
" />
    <glyph glyph-name="omacron" unicode="&#x14d;" horiz-adv-x="633" 
d="M150 586v75h334v-75h-334zM317 -12q-113 0 -195 80.5t-82 190.5t82 190t195 80t195 -80t82 -190t-82 -190.5t-195 -80.5zM317 92q64 0 110.5 49.5t46.5 117.5q0 67 -46.5 116.5t-110.5 49.5t-111 -49t-47 -117t46.5 -117.5t111.5 -49.5z" />
    <glyph glyph-name="Ohungarumlaut" unicode="&#x150;" horiz-adv-x="810" 
d="M241 745l117 152l114 -22l-146 -130h-85zM464 745l118 151l113 -22l-146 -129h-85zM406 -12q-147 0 -254 105.5t-107 250.5t107 250t254 105q146 0 253 -105t107 -250t-107 -250.5t-253 -105.5zM406 102q95 0 163.5 71.5t68.5 170.5q0 98 -68.5 169.5t-163.5 71.5
t-164.5 -71.5t-69.5 -169.5q0 -99 69.5 -170.5t164.5 -71.5z" />
    <glyph glyph-name="ohungarumlaut" unicode="&#x151;" horiz-adv-x="633" 
d="M157 575l117 152l114 -22l-146 -130h-85zM380 575l118 151l113 -22l-146 -129h-85zM317 -12q-113 0 -195 80.5t-82 190.5t82 190t195 80t195 -80t82 -190t-82 -190.5t-195 -80.5zM317 92q64 0 110.5 49.5t46.5 117.5q0 67 -46.5 116.5t-110.5 49.5t-111 -49t-47 -117
t46.5 -117.5t111.5 -49.5z" />
    <glyph glyph-name="OE" unicode="&#x152;" horiz-adv-x="1038" 
d="M989 573h-392v-166h355v-114h-355v-179h392v-114h-583q-149 0 -255 97.5t-106 240.5q0 144 106.5 246.5t254.5 102.5h583v-114zM406 114h66v459h-66q-96 0 -165 -68.5t-69 -166.5q0 -97 68.5 -160.5t165.5 -63.5z" />
    <glyph glyph-name="oe" unicode="&#x153;" horiz-adv-x="1030" 
d="M745 96q36 0 74 15t60 37l77 -80q-33 -35 -93 -57.5t-117 -22.5q-65 0 -120.5 27t-93.5 76q-39 -48 -95 -75.5t-120 -27.5q-113 0 -195 80.5t-82 190.5t82 190t195 80q63 0 119 -27t95 -74q77 101 208 101q119 0 186 -84t67 -228h-390q11 -54 49.5 -87.5t93.5 -33.5z
M317 92q64 0 110.5 49.5t46.5 117.5q0 67 -46.5 116.5t-110.5 49.5t-111 -49t-47 -117t46.5 -117.5t111.5 -49.5zM744 421q-51 0 -89.5 -30t-51.5 -81h272q-11 51 -44.5 81t-86.5 30z" />
    <glyph glyph-name="Racute" unicode="&#x154;" horiz-adv-x="669" 
d="M472 875l-146 -130h-85l117 152zM633 0h-142l-162 231h-133v-231h-125v687h299q111 0 184 -64t73 -164q0 -77 -45 -134t-121 -81zM196 572v-226h160q65 0 104.5 30.5t39.5 82.5t-39.5 82.5t-104.5 30.5h-160z" />
    <glyph glyph-name="racute" unicode="&#x155;" horiz-adv-x="400" 
d="M362 705l-146 -130h-85l117 152zM192 417q25 52 73.5 82t111.5 30v-104q-83 0 -134 -45t-51 -119v-261h-122v517h122v-100z" />
    <glyph glyph-name="Rcommaaccent" unicode="&#x156;" horiz-adv-x="669" 
d="M461 244l172 -244h-142l-162 231h-133v-231h-125v687h299q111 0 184 -64t73 -164q0 -77 -45 -134t-121 -81zM196 572v-226h160q65 0 104.5 30.5t39.5 82.5t-39.5 82.5t-104.5 30.5h-160zM331 -58q29 0 47.5 -24.5t18.5 -62.5q0 -57 -77 -140l-37 28q37 35 46 75
q-25 0 -42.5 18t-17.5 44q0 25 18.5 43.5t43.5 18.5z" />
    <glyph glyph-name="rcommaaccent" unicode="&#x157;" horiz-adv-x="400" 
d="M192 417q25 52 73.5 82t111.5 30v-104q-83 0 -134 -45t-51 -119v-261h-122v517h122v-100zM178 -58q29 0 47.5 -24.5t18.5 -62.5q0 -57 -77 -140l-37 28q37 35 46 75q-25 0 -42.5 18t-17.5 44q0 25 18.5 43.5t43.5 18.5z" />
    <glyph glyph-name="Rcaron" unicode="&#x158;" horiz-adv-x="669" 
d="M389 745h-104l-103 144h79l76 -78l77 78h80zM633 0h-142l-162 231h-133v-231h-125v687h299q111 0 184 -64t73 -164q0 -77 -45 -134t-121 -81zM196 572v-226h160q65 0 104.5 30.5t39.5 82.5t-39.5 82.5t-104.5 30.5h-160z" />
    <glyph glyph-name="rcaron" unicode="&#x159;" horiz-adv-x="400" 
d="M279 575h-104l-103 144h79l76 -78l77 78h80zM192 417q25 52 73.5 82t111.5 30v-104q-83 0 -134 -45t-51 -119v-261h-122v517h122v-100z" />
    <glyph glyph-name="Sacute" unicode="&#x15a;" horiz-adv-x="626" 
d="M209 745l117 152l114 -22l-146 -130h-85zM325 -11q-175 0 -294 111l72 89q103 -93 226 -93q61 0 95 26t34 65q0 40 -35 60.5t-124 41.5q-122 28 -181.5 71t-59.5 132q0 90 69.5 149t177.5 59q148 0 260 -96l-68 -92q-93 81 -197 81q-51 0 -83.5 -26.5t-32.5 -63.5
q0 -40 36 -60.5t124 -40.5q119 -27 179 -71.5t60 -131.5q0 -94 -68.5 -152t-189.5 -58z" />
    <glyph glyph-name="sacute" unicode="&#x15b;" horiz-adv-x="500" 
d="M154 575l117 152l114 -22l-146 -130h-85zM258 -12q-129 0 -226 78l55 85q83 -60 173 -60q37 0 60 14.5t23 38.5q0 19 -15.5 32.5t-33.5 20t-55 16.5q-94 24 -138.5 56.5t-45.5 96.5q0 73 54.5 118t140.5 45q104 0 198 -62l-51 -89q-74 47 -147 47q-33 0 -54.5 -12.5
t-21.5 -33.5q0 -23 21 -35t85 -31q33 -9 53 -16t47.5 -20.5t43 -29t26.5 -40.5t11 -56q0 -74 -56 -118.5t-147 -44.5z" />
    <glyph glyph-name="Scedilla" unicode="&#x15e;" horiz-adv-x="626" 
d="M583 199q0 -89 -62 -146t-172 -63l-15 -34h5q31 0 51.5 -19t20.5 -48q0 -38 -29.5 -61t-75.5 -23q-56 0 -92 29l24 52q29 -23 62 -23q19 0 31.5 9t12.5 24q0 29 -34 29q-18 0 -31 -10l-20 20l23 56q-146 12 -251 109l72 89q103 -93 226 -93q61 0 95 26t34 65
q0 40 -35 60.5t-124 41.5q-122 28 -181.5 71t-59.5 132q0 90 69.5 149t177.5 59q148 0 260 -96l-68 -92q-93 81 -197 81q-51 0 -83.5 -26.5t-32.5 -63.5q0 -40 36 -60.5t124 -40.5q119 -27 179 -71.5t60 -131.5z" />
    <glyph glyph-name="scedilla" unicode="&#x15f;" horiz-adv-x="500" 
d="M461 151q0 -68 -48 -111.5t-127 -50.5l-15 -33h5q31 0 51.5 -19t20.5 -48q0 -38 -29.5 -61t-75.5 -23q-56 0 -92 29l24 52q29 -23 62 -23q19 0 31.5 9t12.5 24q0 29 -34 29q-18 0 -31 -10l-20 20l23 55q-109 13 -187 76l55 85q83 -60 173 -60q37 0 60 14.5t23 38.5
q0 19 -15.5 32.5t-33.5 20t-55 16.5q-94 24 -138.5 56.5t-45.5 96.5q0 73 54.5 118t140.5 45q104 0 198 -62l-51 -89q-74 47 -147 47q-33 0 -54.5 -12.5t-21.5 -33.5q0 -23 21 -35t85 -31q33 -9 53 -16t47.5 -20.5t43 -29t26.5 -40.5t11 -56z" />
    <glyph glyph-name="Scaron" unicode="&#x160;" horiz-adv-x="626" 
d="M253 745l-103 144h79l76 -78l77 78h80l-105 -144h-104zM325 -11q-175 0 -294 111l72 89q103 -93 226 -93q61 0 95 26t34 65q0 40 -35 60.5t-124 41.5q-122 28 -181.5 71t-59.5 132q0 90 69.5 149t177.5 59q148 0 260 -96l-68 -92q-93 81 -197 81q-51 0 -83.5 -26.5
t-32.5 -63.5q0 -40 36 -60.5t124 -40.5q119 -27 179 -71.5t60 -131.5q0 -94 -68.5 -152t-189.5 -58z" />
    <glyph glyph-name="scaron" unicode="&#x161;" horiz-adv-x="500" 
d="M198 575l-103 144h79l76 -78l77 78h80l-105 -144h-104zM258 -12q-129 0 -226 78l55 85q83 -60 173 -60q37 0 60 14.5t23 38.5q0 19 -15.5 32.5t-33.5 20t-55 16.5q-94 24 -138.5 56.5t-45.5 96.5q0 73 54.5 118t140.5 45q104 0 198 -62l-51 -89q-74 47 -147 47
q-33 0 -54.5 -12.5t-21.5 -33.5q0 -23 21 -35t85 -31q33 -9 53 -16t47.5 -20.5t43 -29t26.5 -40.5t11 -56q0 -74 -56 -118.5t-147 -44.5z" />
    <glyph glyph-name="uni0162" unicode="&#x162;" horiz-adv-x="636" 
d="M380 0h-27l-19 -44h5q31 0 51.5 -19t20.5 -48q0 -38 -29.5 -61t-75.5 -23q-56 0 -92 29l24 52q29 -23 62 -23q19 0 31.5 9t12.5 24q0 29 -34 29q-18 0 -31 -10l-20 20l27 65h-30v573h-220v114h564v-114h-220v-573z" />
    <glyph glyph-name="uni0163" unicode="&#x163;" horiz-adv-x="388" 
d="M278 -44q31 0 51.5 -19t20.5 -48q0 -38 -29.5 -61t-75.5 -23q-56 0 -92 29l24 52q29 -23 62 -23q19 0 31.5 9t12.5 24q0 29 -34 29q-18 0 -31 -10l-20 20l23 55q-53 10 -85 50t-32 97v279h-75v101h75v142h119v-142h117v-101h-117v-264q0 -26 14.5 -43t36.5 -17
q32 0 51 19l35 -82q-27 -24 -71 -36l-16 -37h5z" />
    <glyph glyph-name="Tcaron" unicode="&#x164;" horiz-adv-x="636" 
d="M266 745l-103 144h79l76 -78l77 78h80l-105 -144h-104zM256 0v573h-220v114h564v-114h-220v-573h-124z" />
    <glyph glyph-name="tcaron" unicode="&#x165;" horiz-adv-x="388" 
d="M470 699q29 0 47.5 -24.5t18.5 -62.5q0 -57 -77 -140l-37 28q37 35 46 75q-25 0 -42.5 18t-17.5 44q0 25 18.5 43.5t43.5 18.5zM274 92q32 0 51 19l35 -82q-48 -41 -110 -41q-64 0 -105 42t-41 107v279h-75v101h75v142h119v-142h117v-101h-117v-264q0 -26 14.5 -43
t36.5 -17z" />
    <glyph glyph-name="Umacron" unicode="&#x16a;" horiz-adv-x="752" 
d="M209 756v75h334v-75h-334zM376 -12q-133 0 -218 85.5t-85 219.5v394h125v-390q0 -86 50 -141t128 -55q79 0 129 55t50 141v390h124v-394q0 -134 -85 -219.5t-218 -85.5z" />
    <glyph glyph-name="umacron" unicode="&#x16b;" horiz-adv-x="606" 
d="M469 661v-75h-334v75h334zM417 517h122v-517h-122v69q-24 -37 -67 -59t-93 -22q-85 0 -138.5 56t-53.5 144v329h118v-305q0 -53 30.5 -86.5t78.5 -33.5t83.5 28t41.5 70v327z" />
    <glyph glyph-name="Uring" unicode="&#x16e;" horiz-adv-x="752" 
d="M376 753q-45 0 -77.5 32.5t-32.5 78.5t32.5 78t77.5 32q46 0 78 -32t32 -78t-32 -78.5t-78 -32.5zM376 809q22 0 38.5 16.5t16.5 38.5t-16.5 38.5t-38.5 16.5t-38.5 -16.5t-16.5 -38.5t16.5 -38.5t38.5 -16.5zM376 -12q-133 0 -218 85.5t-85 219.5v394h125v-390
q0 -86 50 -141t128 -55q79 0 129 55t50 141v390h124v-394q0 -134 -85 -219.5t-218 -85.5z" />
    <glyph glyph-name="uring" unicode="&#x16f;" horiz-adv-x="606" 
d="M302 583q-45 0 -77.5 32.5t-32.5 78.5t32.5 78t77.5 32q46 0 78 -32t32 -78t-32 -78.5t-78 -32.5zM302 749q-22 0 -38.5 -16.5t-16.5 -38.5t16.5 -38.5t38.5 -16.5t38.5 16.5t16.5 38.5t-16.5 38.5t-38.5 16.5zM417 517h122v-517h-122v69q-24 -37 -67 -59t-93 -22
q-85 0 -138.5 56t-53.5 144v329h118v-305q0 -53 30.5 -86.5t78.5 -33.5t83.5 28t41.5 70v327z" />
    <glyph glyph-name="Uhungarumlaut" unicode="&#x170;" horiz-adv-x="752" 
d="M205 745l117 152l114 -22l-146 -130h-85zM428 745l118 151l113 -22l-146 -129h-85zM376 -12q-133 0 -218 85.5t-85 219.5v394h125v-390q0 -86 50 -141t128 -55q79 0 129 55t50 141v390h124v-394q0 -134 -85 -219.5t-218 -85.5z" />
    <glyph glyph-name="uhungarumlaut" unicode="&#x171;" horiz-adv-x="606" 
d="M366 705l-146 -130h-85l117 152zM443 575h-85l118 151l113 -22zM417 190v327h122v-517h-122v69q-24 -37 -67 -59t-93 -22q-85 0 -138.5 56t-53.5 144v329h118v-305q0 -53 30.5 -86.5t78.5 -33.5t83.5 28t41.5 70z" />
    <glyph glyph-name="Uogonek" unicode="&#x172;" horiz-adv-x="752" 
d="M555 687h124v-394q0 -134 -84.5 -219.5t-217.5 -85.5q-16 -14 -16 -37q0 -22 13.5 -34t37.5 -12t40 16l28 -63q-38 -31 -88 -31q-49 0 -79.5 30t-30.5 80q0 33 18 59q-103 23 -165 103.5t-62 193.5v394h125v-390q0 -86 50 -141t128 -55q79 0 129 55t50 141v390z" />
    <glyph glyph-name="uogonek" unicode="&#x173;" horiz-adv-x="606" 
d="M581 -79l28 -63q-38 -31 -88 -31q-49 0 -79.5 30t-30.5 80q0 36 21 63h-15v69q-24 -37 -67 -59t-93 -22q-85 0 -138.5 56t-53.5 144v329h118v-305q0 -53 30.5 -86.5t78.5 -33.5t83.5 28t41.5 70v327h122v-517h1q-22 0 -36 -13.5t-14 -35.5t13.5 -34t37.5 -12t40 16z" />
    <glyph glyph-name="Wcircumflex" unicode="&#x174;" horiz-adv-x="1079" 
d="M385 745l103 144h104l105 -144h-80l-77 79l-76 -79h-79zM243 0l-218 687h137l147 -492l163 492h136l162 -492l147 492h137l-217 -687h-125l-172 510l-173 -510h-124z" />
    <glyph glyph-name="wcircumflex" unicode="&#x175;" horiz-adv-x="839" 
d="M265 575l103 144h104l105 -144h-80l-77 79l-76 -79h-79zM199 0l-175 517h122l108 -353l115 353h102l116 -353l107 353h122l-174 -517h-111l-111 354l-110 -354h-111z" />
    <glyph glyph-name="Ycircumflex" unicode="&#x176;" horiz-adv-x="686" 
d="M189 745l103 144h104l105 -144h-80l-77 79l-76 -79h-79zM280 0v258l-272 429h147l189 -311l192 311h142l-271 -429v-258h-127z" />
    <glyph glyph-name="ycircumflex" unicode="&#x177;" horiz-adv-x="599" 
d="M145 575l103 144h104l105 -144h-80l-77 79l-76 -79h-79zM172 -180q-64 0 -113 27l26 88q35 -19 66 -19q46 0 66 34l22 46l-219 521h129l151 -386l142 386h126l-219 -553q-57 -142 -177 -144z" />
    <glyph glyph-name="Ydieresis" unicode="&#x178;" horiz-adv-x="686" 
d="M241 758q-26 0 -44 18.5t-18 44.5q0 25 18 43.5t44 18.5q25 0 43.5 -19t18.5 -43q0 -26 -18 -44.5t-44 -18.5zM447 758q-27 0 -45 18.5t-18 44.5q0 25 18.5 43.5t44.5 18.5q25 0 43.5 -19t18.5 -43q0 -26 -18 -44.5t-44 -18.5zM280 0v258l-272 429h147l189 -311l192 311
h142l-271 -429v-258h-127z" />
    <glyph glyph-name="Zacute" unicode="&#x179;" horiz-adv-x="653" 
d="M234 745l117 152l114 -22l-146 -130h-85zM51 0v95l379 478h-372v114h542v-95l-378 -478h383v-114h-554z" />
    <glyph glyph-name="zacute" unicode="&#x17a;" horiz-adv-x="526" 
d="M174 575l117 152l114 -22l-146 -130h-85zM46 0v89l274 321h-268v107h429l-1 -89l-275 -321h278v-107h-437z" />
    <glyph glyph-name="Zdotaccent" unicode="&#x17b;" horiz-adv-x="653" 
d="M330 758q-26 0 -44 18.5t-18 44.5q0 25 18 43.5t44 18.5q25 0 43.5 -19t18.5 -43q0 -26 -18 -44.5t-44 -18.5zM51 0v95l379 478h-372v114h542v-95l-378 -478h383v-114h-554z" />
    <glyph glyph-name="zdotaccent" unicode="&#x17c;" horiz-adv-x="526" 
d="M270 588q-26 0 -44 18.5t-18 44.5q0 25 18 43.5t44 18.5q25 0 43.5 -19t18.5 -43q0 -26 -18 -44.5t-44 -18.5zM46 0v89l274 321h-268v107h429l-1 -89l-275 -321h278v-107h-437z" />
    <glyph glyph-name="Zcaron" unicode="&#x17d;" horiz-adv-x="653" 
d="M278 745l-103 144h79l76 -78l77 78h80l-105 -144h-104zM51 0v95l379 478h-372v114h542v-95l-378 -478h383v-114h-554z" />
    <glyph glyph-name="zcaron" unicode="&#x17e;" horiz-adv-x="526" 
d="M218 575l-103 144h79l76 -78l77 78h80l-105 -144h-104zM46 0v89l274 321h-268v107h429l-1 -89l-275 -321h278v-107h-437z" />
    <glyph glyph-name="uni0237" unicode="&#x237;" horiz-adv-x="257" 
d="M40 -178q-56 0 -96 19l15 93q23 -10 57 -10q22 0 36.5 17t14.5 43v533h122v-542q0 -68 -41.5 -110.5t-107.5 -42.5z" />
    <glyph glyph-name="circumflex" unicode="&#x2c6;" horiz-adv-x="438" 
d="M63 575l103 144h104l105 -144h-80l-77 79l-76 -79h-79z" />
    <glyph glyph-name="caron" unicode="&#x2c7;" horiz-adv-x="438" 
d="M166 575l-103 144h79l76 -78l77 78h80l-105 -144h-104z" />
    <glyph glyph-name="breve" unicode="&#x2d8;" horiz-adv-x="438" 
d="M219 583q-89 0 -156 65l58 58q43 -43 98 -43t98 43l58 -58q-65 -65 -156 -65z" />
    <glyph glyph-name="dotaccent" unicode="&#x2d9;" horiz-adv-x="250" 
d="M125 588q-26 0 -44 18.5t-18 44.5q0 25 18 43.5t44 18.5q25 0 43.5 -19t18.5 -43q0 -26 -18 -44.5t-44 -18.5z" />
    <glyph glyph-name="ring" unicode="&#x2da;" horiz-adv-x="346" 
d="M173 583q-45 0 -77.5 32.5t-32.5 78.5t32.5 78t77.5 32q46 0 78 -32t32 -78t-32 -78.5t-78 -32.5zM173 639q23 0 39 16.5t16 38.5t-16 38.5t-39 16.5t-39 -16.5t-16 -38.5t16 -38.5t39 -16.5z" />
    <glyph glyph-name="ogonek" unicode="&#x2db;" horiz-adv-x="324" 
d="M173 -173q-49 0 -79.5 30t-30.5 80q0 61 52 90l77 -27q-22 0 -36 -13.5t-14 -35.5t13.5 -34t37.5 -12t40 16l28 -63q-38 -31 -88 -31z" />
    <glyph glyph-name="tilde" unicode="&#x2dc;" horiz-adv-x="446" 
d="M290 573q-32 0 -74 28t-57 28q-35 0 -45 -57l-63 9q15 128 106 128q31 0 73 -28t57 -28q35 0 45 58l64 -10q-15 -128 -106 -128z" />
    <glyph glyph-name="hungarumlaut" unicode="&#x2dd;" horiz-adv-x="581" 
d="M63 575l117 152l114 -22l-146 -130h-85zM286 575l118 151l113 -22l-146 -129h-85z" />
    <glyph glyph-name="uni0326" unicode="&#x326;" horiz-adv-x="0" 
d="M-151 -285l-37 28q37 35 46 75q-25 0 -42.5 18t-17.5 44q0 25 18.5 43.5t43.5 18.5q29 0 47.5 -24.5t18.5 -62.5q0 -57 -77 -140z" />
    <glyph glyph-name="Wgrave" unicode="&#x1e80;" horiz-adv-x="1079" 
d="M499 745l-146 130l114 22l117 -152h-85zM243 0l-218 687h137l147 -492l163 492h136l162 -492l147 492h137l-217 -687h-125l-172 510l-173 -510h-124z" />
    <glyph glyph-name="wgrave" unicode="&#x1e81;" horiz-adv-x="839" 
d="M379 575l-146 130l114 22l117 -152h-85zM199 0l-175 517h122l108 -353l115 353h102l116 -353l107 353h122l-174 -517h-111l-111 354l-110 -354h-111z" />
    <glyph glyph-name="Wacute" unicode="&#x1e82;" horiz-adv-x="1079" 
d="M495 745l117 152l114 -22l-146 -130h-85zM243 0l-218 687h137l147 -492l163 492h136l162 -492l147 492h137l-217 -687h-125l-172 510l-173 -510h-124z" />
    <glyph glyph-name="wacute" unicode="&#x1e83;" horiz-adv-x="839" 
d="M377 575l117 152l114 -22l-146 -130h-85zM199 0l-175 517h122l108 -353l115 353h102l116 -353l107 353h122l-174 -517h-111l-111 354l-110 -354h-111z" />
    <glyph glyph-name="Wdieresis" unicode="&#x1e84;" horiz-adv-x="1079" 
d="M437 758q-26 0 -44 18.5t-18 44.5q0 25 18 43.5t44 18.5q25 0 43.5 -19t18.5 -43q0 -26 -18 -44.5t-44 -18.5zM643 758q-27 0 -45 18.5t-18 44.5q0 25 18.5 43.5t44.5 18.5q25 0 43.5 -19t18.5 -43q0 -26 -18 -44.5t-44 -18.5zM243 0l-218 687h137l147 -492l163 492h136
l162 -492l147 492h137l-217 -687h-125l-172 510l-173 -510h-124z" />
    <glyph glyph-name="wdieresis" unicode="&#x1e85;" horiz-adv-x="839" 
d="M317 588q-26 0 -44 18.5t-18 44.5q0 25 18 43.5t44 18.5q25 0 43.5 -19t18.5 -43q0 -26 -18 -44.5t-44 -18.5zM523 588q-27 0 -45 18.5t-18 44.5q0 25 18.5 43.5t44.5 18.5q25 0 43.5 -19t18.5 -43q0 -26 -18 -44.5t-44 -18.5zM199 0l-175 517h122l108 -353l115 353h102
l116 -353l107 353h122l-174 -517h-111l-111 354l-110 -354h-111z" />
    <glyph glyph-name="uni1EB8" unicode="&#x1eb8;" horiz-adv-x="637" 
d="M588 573h-392v-166h355v-114h-355v-179h392v-114h-517v687h517v-114zM330 -73q25 0 43.5 -19t18.5 -43q0 -26 -18 -44.5t-44 -18.5t-44 18.5t-18 44.5q0 25 18 43.5t44 18.5z" />
    <glyph glyph-name="uni1EB9" unicode="&#x1eb9;" horiz-adv-x="593" 
d="M308 96q36 0 74 15t60 37l77 -80q-33 -35 -93 -57.5t-117 -22.5q-113 0 -191.5 77t-78.5 195q0 115 76 192t187 77q119 0 186 -84t67 -228h-390q11 -54 49.5 -87.5t93.5 -33.5zM307 421q-51 0 -89.5 -30t-51.5 -81h272q-11 51 -44.5 81t-86.5 30zM300 -74q25 0 43.5 -19
t18.5 -43q0 -26 -18 -44.5t-44 -18.5t-44 18.5t-18 44.5q0 25 18 43.5t44 18.5z" />
    <glyph glyph-name="uni1EBC" unicode="&#x1ebc;" horiz-adv-x="637" 
d="M265 799q-35 0 -45 -57l-63 9q15 128 106 128q31 0 73 -28t57 -28q35 0 45 58l64 -10q-15 -128 -106 -128q-32 0 -74 28t-57 28zM588 573h-392v-166h355v-114h-355v-179h392v-114h-517v687h517v-114z" />
    <glyph glyph-name="uni1EBD" unicode="&#x1ebd;" horiz-adv-x="594" 
d="M237 629q-35 0 -45 -57l-63 9q15 128 106 128q31 0 73 -28t57 -28q35 0 45 58l64 -10q-15 -128 -106 -128q-32 0 -74 28t-57 28zM308 96q36 0 74 15t60 37l77 -80q-33 -35 -93 -57.5t-117 -22.5q-113 0 -191.5 77t-78.5 195q0 115 76 192t187 77q119 0 186 -84t67 -228
h-390q11 -54 49.5 -87.5t93.5 -33.5zM307 421q-51 0 -89.5 -30t-51.5 -81h272q-11 51 -44.5 81t-86.5 30z" />
    <glyph glyph-name="Ygrave" unicode="&#x1ef2;" horiz-adv-x="686" 
d="M344 745l-146 130l114 22l117 -152h-85zM280 0v258l-272 429h147l189 -311l192 311h142l-271 -429v-258h-127z" />
    <glyph glyph-name="ygrave" unicode="&#x1ef3;" horiz-adv-x="599" 
d="M300 575l-146 130l114 22l117 -152h-85zM172 -180q-64 0 -113 27l26 88q35 -19 66 -19q46 0 66 34l22 46l-219 521h129l151 -386l142 386h126l-219 -553q-57 -142 -177 -144z" />
    <glyph glyph-name="uni2002" unicode="&#x2002;" horiz-adv-x="500" 
 />
    <glyph glyph-name="uni2003" unicode="&#x2003;" horiz-adv-x="1000" 
 />
    <glyph glyph-name="uni2004" unicode="&#x2004;" horiz-adv-x="333" 
 />
    <glyph glyph-name="uni2005" unicode="&#x2005;" horiz-adv-x="250" 
 />
    <glyph glyph-name="uni2006" unicode="&#x2006;" horiz-adv-x="166" 
 />
    <glyph glyph-name="endash" unicode="&#x2013;" horiz-adv-x="573" 
d="M49 222v105h475v-105h-475z" />
    <glyph glyph-name="emdash" unicode="&#x2014;" horiz-adv-x="878" 
d="M49 222v105h780v-105h-780z" />
    <glyph glyph-name="quoteleft" unicode="&#x2018;" horiz-adv-x="283" 
d="M154 686l48 -36q-46 -46 -58 -94q31 0 53.5 -23.5t22.5 -55.5t-23 -55t-55 -23q-38 0 -61 30.5t-23 78.5q0 75 96 178z" />
    <glyph glyph-name="quoteright" unicode="&#x2019;" horiz-adv-x="283" 
d="M129 400l-48 36q46 46 58 94q-31 0 -53.5 23.5t-22.5 55.5t23 55t55 23q38 0 61 -30.5t23 -78.5q0 -75 -96 -178z" />
    <glyph glyph-name="quotedblleft" unicode="&#x201c;" horiz-adv-x="523" 
d="M154 686l48 -36q-46 -46 -58 -94q31 0 53.5 -23.5t22.5 -55.5t-23 -55t-55 -23q-38 0 -61 30.5t-23 78.5q0 75 96 178zM394 686l48 -36q-46 -46 -58 -94q31 0 53.5 -23.5t22.5 -55.5t-23 -55t-55 -23q-38 0 -61 30.5t-23 78.5q0 75 96 178z" />
    <glyph glyph-name="quotedblright" unicode="&#x201d;" horiz-adv-x="523" 
d="M129 400l-48 36q46 46 58 94q-31 0 -53.5 23.5t-22.5 55.5t23 55t55 23q38 0 61 -30.5t23 -78.5q0 -75 -96 -178zM369 400l-48 36q46 46 58 94q-31 0 -53.5 23.5t-22.5 55.5t23 55t55 23q38 0 61 -30.5t23 -78.5q0 -75 -96 -178z" />
    <glyph glyph-name="bullet" unicode="&#x2022;" horiz-adv-x="422" 
d="M212 166q-54 0 -93 38.5t-39 93.5q0 54 39 92.5t93 38.5t92.5 -38.5t38.5 -92.5q0 -55 -38.5 -93.5t-92.5 -38.5z" />
    <glyph glyph-name="ellipsis" unicode="&#x2026;" horiz-adv-x="758" 
d="M141 -12q-34 0 -57 23.5t-23 56.5q0 31 23 54t57 23q31 0 54 -23t23 -54q0 -33 -22.5 -56.5t-54.5 -23.5zM381 -12q-34 0 -57 23.5t-23 56.5q0 31 23 54t57 23q31 0 54 -23t23 -54q0 -33 -22.5 -56.5t-54.5 -23.5zM621 -12q-34 0 -57 23.5t-23 56.5q0 31 23 54t57 23
q31 0 54 -23t23 -54q0 -33 -22.5 -56.5t-54.5 -23.5z" />
    <glyph glyph-name="uni202F" unicode="&#x202f;" horiz-adv-x="283" 
 />
    <glyph glyph-name="perthousand" unicode="&#x2030;" horiz-adv-x="1203" 
d="M208 345q-74 0 -120.5 50t-46.5 123q0 75 47 125t120 50q74 0 121 -50t47 -124q0 -75 -47 -124.5t-121 -49.5zM129 0l475 687h92l-475 -687h-92zM208 420q35 0 58 27.5t23 70.5q0 44 -23 72t-58 28q-36 0 -58.5 -27.5t-22.5 -72.5q0 -43 23 -70.5t58 -27.5zM614 -10
q-73 0 -120 50t-47 124t47 124.5t121 50.5t120.5 -50.5t46.5 -123.5q0 -75 -47 -125t-121 -50zM994 -10q-73 0 -120 50t-47 124t47 124.5t121 50.5q73 0 120 -50.5t47 -123.5q0 -75 -47.5 -125t-120.5 -50zM615 65q35 0 58 27.5t23 71.5q0 43 -23.5 71t-58.5 28t-57.5 -27.5
t-22.5 -70.5q0 -44 23 -72t58 -28zM995 65q35 0 58 27.5t23 71.5q0 43 -23.5 71t-58.5 28q-36 0 -58.5 -27.5t-22.5 -70.5q0 -44 23 -72t59 -28z" />
    <glyph glyph-name="guilsinglleft" unicode="&#x2039;" horiz-adv-x="334" 
d="M198 50l-163 203l163 201l97 -22l-144 -178l144 -181z" />
    <glyph glyph-name="guilsinglright" unicode="&#x203a;" horiz-adv-x="334" 
d="M136 50l-97 23l144 181l-144 178l97 22l163 -201z" />
    <glyph glyph-name="Euro" unicode="&#x20ac;" horiz-adv-x="690" 
d="M406 102q101 0 171 80l88 -82q-107 -112 -259 -112q-118 0 -213.5 71t-131.5 181h-80v71h66q-2 22 -2 33q0 24 3 47h-67v71h85q39 104 132.5 170.5t207.5 66.5q151 0 259 -111l-89 -83q-69 80 -170 80q-63 0 -117.5 -33.5t-85.5 -89.5h262v-71h-288q-5 -25 -5 -47
q0 -11 2 -33h291v-71h-270q30 -62 87 -100t124 -38z" />
    <glyph glyph-name="minus" unicode="&#x2212;" horiz-adv-x="599" 
d="M62 282v104h475v-104h-475z" />
    <glyph glyph-name="a.alt" 
d="M460 517h122v-517h-122v80q-65 -92 -179 -92q-103 0 -170 76t-67 195q0 118 67 194t170 76q114 0 179 -92v80zM314 92q64 0 105 47t41 120t-41 119.5t-105 46.5q-65 0 -107 -46.5t-42 -119.5t42 -120t107 -47z" />
    <glyph glyph-name="aacute.alt" 
d="M468 705l-146 -130h-85l117 152zM460 517h122v-517h-122v80q-65 -92 -179 -92q-103 0 -170 76t-67 195q0 118 67 194t170 76q114 0 179 -92v80zM314 92q64 0 105 47t41 120t-41 119.5t-105 46.5q-65 0 -107 -46.5t-42 -119.5t42 -120t107 -47z" />
    <glyph glyph-name="abreve.alt" 
d="M489 648q-65 -65 -156 -65q-89 0 -156 65l58 58q43 -43 98 -43t98 43zM460 517h122v-517h-122v80q-65 -92 -179 -92q-103 0 -170 76t-67 195q0 118 67 194t170 76q114 0 179 -92v80zM314 92q64 0 105 47t41 120t-41 119.5t-105 46.5q-65 0 -107 -46.5t-42 -119.5t42 -120
t107 -47z" />
    <glyph glyph-name="acircumflex.alt" 
d="M333 654l-76 -79h-79l103 144h104l105 -144h-80zM460 517h122v-517h-122v80q-65 -92 -179 -92q-103 0 -170 76t-67 195q0 118 67 194t170 76q114 0 179 -92v80zM314 92q64 0 105 47t41 120t-41 119.5t-105 46.5q-65 0 -107 -46.5t-42 -119.5t42 -120t107 -47z" />
    <glyph glyph-name="adieresis.alt" 
d="M230 588q-26 0 -44 18.5t-18 44.5q0 25 18 43.5t44 18.5q25 0 43.5 -19t18.5 -43q0 -26 -18 -44.5t-44 -18.5zM436 588q-27 0 -45 18.5t-18 44.5q0 25 18.5 43.5t44.5 18.5q25 0 43.5 -19t18.5 -43q0 -26 -18 -44.5t-44 -18.5zM460 517h122v-517h-122v80
q-65 -92 -179 -92q-103 0 -170 76t-67 195q0 118 67 194t170 76q114 0 179 -92v80zM314 92q64 0 105 47t41 120t-41 119.5t-105 46.5q-65 0 -107 -46.5t-42 -119.5t42 -120t107 -47z" />
    <glyph glyph-name="agrave.alt" 
d="M418 575h-85l-146 130l114 22zM460 517h122v-517h-122v80q-65 -92 -179 -92q-103 0 -170 76t-67 195q0 118 67 194t170 76q114 0 179 -92v80zM314 92q64 0 105 47t41 120t-41 119.5t-105 46.5q-65 0 -107 -46.5t-42 -119.5t42 -120t107 -47z" />
    <glyph glyph-name="amacron.alt" 
d="M500 661v-75h-334v75h334zM460 517h122v-517h-122v80q-65 -92 -179 -92q-103 0 -170 76t-67 195q0 118 67 194t170 76q114 0 179 -92v80zM314 92q64 0 105 47t41 120t-41 119.5t-105 46.5q-65 0 -107 -46.5t-42 -119.5t42 -120t107 -47z" />
    <glyph glyph-name="aogonek.alt" 
d="M623 -79l28 -63q-38 -31 -88 -31q-49 0 -79.5 30t-30.5 80q0 36 21 63h-14v80q-65 -92 -179 -92q-103 0 -170 76t-67 195q0 118 67 194t170 76q114 0 179 -92v80h122v-517q-22 0 -36 -13.5t-14 -35.5t13.5 -34t37.5 -12t40 16zM314 92q64 0 105 47t41 120t-41 119.5
t-105 46.5q-65 0 -107 -46.5t-42 -119.5t42 -120t107 -47z" />
    <glyph glyph-name="aring.alt" 
d="M333 583q-45 0 -77.5 32.5t-32.5 78.5t32.5 78t77.5 32q46 0 78 -32t32 -78t-32 -78.5t-78 -32.5zM333 749q-23 0 -39 -16.5t-16 -38.5t16 -38.5t39 -16.5t39 16.5t16 38.5t-16 38.5t-39 16.5zM460 517h122v-517h-122v80q-65 -92 -179 -92q-103 0 -170 76t-67 195
q0 118 67 194t170 76q114 0 179 -92v80zM314 92q64 0 105 47t41 120t-41 119.5t-105 46.5q-65 0 -107 -46.5t-42 -119.5t42 -120t107 -47z" />
    <glyph glyph-name="atilde.alt" 
d="M268 629q-35 0 -45 -57l-63 9q15 128 106 128q31 0 73 -28t57 -28q35 0 45 58l64 -10q-15 -128 -106 -128q-32 0 -74 28t-57 28zM460 517h122v-517h-122v80q-65 -92 -179 -92q-103 0 -170 76t-67 195q0 118 67 194t170 76q114 0 179 -92v80zM314 92q64 0 105 47t41 120
t-41 119.5t-105 46.5q-65 0 -107 -46.5t-42 -119.5t42 -120t107 -47z" />
    <glyph glyph-name="ascender" 
d="M70 0v699h122v-699h-122z" />
    <glyph glyph-name="descender" 
d="M70 -172v689h122v-689h-122z" />
    </font>
</defs>
</svg>
