<svg width="134" height="147" viewBox="0 0 134 147" fill="none" xmlns="http://www.w3.org/2000/svg">
<g clip-path="url(#clip0_401_2)">
<path d="M127.05 60.42C126.14 54.65 124.11 51.79 121.68 51.79C120.45 51.79 120.61 52.98 120.23 54.37C120.17 54.59 120.14 54.81 120.15 55.04C120.15 55.18 120.43 67.99 112.02 75.37C111.26 74.74 110.28 74.21 109.11 74.21C108.14 74.21 106.74 74.57 105.55 76.31C105.21 76.81 105.04 77.35 104.94 77.86C100.48 69.38 88.3499 47.04 77.7799 34.03C76.1199 31.99 73.9599 30.84 72.2199 29.91C71.1399 29.34 70.1299 28.8 69.5999 28.23C67.4899 25.96 65.3299 23.35 63.0399 20.57C56.4199 12.54 48.3099 1.12002 33.3099 0.0500204C28.6199 -0.27998 16.8299 0.91002 9.0899 8.84002C-0.830095 19.01 -7.0101 32.15 14.4299 59.13C13.9299 61.8 13.7299 66.85 14.4499 71.99C14.6599 73.49 14.9399 74.96 15.2799 76.37C15.6699 78 16.1499 79.58 16.7099 81.06C18.2199 85.07 20.3199 88.52 22.9599 91.3C28.2399 96.87 35.5599 99.77 44.7399 99.93C45.0099 99.93 45.7299 99.93 45.7299 99.93C46.5399 99.93 47.3299 99.91 48.0999 99.9C48.5699 102.37 48.3799 104.48 48.1899 106.52C48.0899 107.56 47.9999 108.64 47.9999 109.67C47.9699 110.22 47.4499 113.1 46.9399 115.89C44.1099 131.51 43.5199 136.58 44.2999 138.47C44.3299 138.54 44.3599 138.61 44.3999 138.68C47.3499 144.13 55.4299 146.08 62.0099 146.08C66.3199 146.08 70.4399 145.28 73.5899 143.82C80.4699 140.65 82.5499 122.48 83.1599 110.09C83.6199 112.15 83.8899 114.35 83.9899 116.73C84.1099 119.58 83.9799 122.38 83.8599 124.88C83.6199 129.97 83.4199 133.99 85.4699 136.54C87.9199 139.61 98.1199 139.7 99.2799 139.7C103.56 139.7 109.3 139.15 112.37 136.52C117.03 132.53 119.99 118.17 116.67 106.34C115.12 100.81 113.37 95.8 111.21 90.77C111.6 90.61 111.97 90.45 112.33 90.28C121.35 86.05 129.4 75.17 127.06 60.4L127.05 60.42Z" fill="#4C150C"/>
<path style="mix-blend-mode:color-dodge" d="M84.6699 50.5801C84.6699 60.5301 76.5999 68.6001 66.6499 68.6001C56.6999 68.6001 48.6299 60.5301 48.6299 50.5801C48.6299 40.6301 56.6999 32.5601 66.6499 32.5601C76.5999 32.5601 84.6699 40.6301 84.6699 50.5801Z" fill="url(#paint0_radial_401_2)"/>
<path d="M46.0398 137.11C49.5898 143.66 64.2098 145.01 72.2998 141.27C81.0098 137.25 80.8098 99.02 80.8098 99.02C84.5198 104.7 85.6698 110.63 85.8998 116.13C86.0298 119.08 85.8998 121.89 85.7698 124.44C85.5498 129.01 85.3698 132.73 86.8798 134.62C88.7598 136.97 105.67 138.48 110.55 134.3C114.21 131.16 117.38 117.99 114.15 106.43C112.32 99.9 110.35 94.7 108.47 90.42C102.06 91.06 98.0898 91.01 97.9798 90.75C97.8798 90.53 103.34 90.29 107.84 89.01C107.27 87.76 106.72 86.59 106.19 85.48C105.58 84.21 104.99 83.04 104.44 81.93C102.13 77.31 87.6598 49.66 75.6798 34.91C73.2598 31.94 69.4098 31.17 67.5998 29.23C59.1798 20.21 52.3698 6.63001 39.1798 2.42001C34.8098 1.06001 19.6598 0.170009 10.3498 9.90001C1.03983 19.63 -10.7302 34.81 36.5098 79.19C53.9098 95.54 49.9098 102.76 49.9098 109.23C49.9098 110.96 44.9398 134.48 46.0398 137.12V137.11Z" fill="white"/>
<path opacity="0.15" d="M31.1498 6.08997C31.1498 6.08997 5.84982 8.86997 13.2998 34.34C17.7198 49.45 29.3598 51.12 37.0998 47.28C44.1698 43.77 54.4298 37.34 55.8198 28.33C56.5698 23.43 49.8198 35.03 41.0298 30.7C32.8798 26.68 31.1498 6.08997 31.1498 6.08997V6.08997Z" fill="#B98353"/>
<path d="M39.0699 6.70002C48.2699 9.12002 55.5099 22.09 55.0099 26.75C54.5199 31.41 44.4799 40.74 37.5799 44.07C30.0399 47.71 22.4799 44.94 16.0999 31.46C10.3399 19.29 22.6199 9.98002 22.6199 9.98002C22.6199 9.98002 29.8699 4.27002 39.0599 6.70002H39.0699ZM36.8999 9.78002C35.9599 9.45002 34.9099 9.87002 34.3999 10.72C34.3299 10.83 34.2699 10.96 34.2199 11.09C33.8099 12.19 34.3399 13.38 35.4099 13.75C37.5699 14.5 38.5399 15.23 39.9199 17.11C40.5799 18.03 41.8799 18.19 42.8099 17.48C43.7399 16.78 43.9599 15.45 43.2899 14.54C41.4399 11.99 39.8299 10.79 36.8899 9.77002L36.8999 9.78002ZM50.6899 25.58C50.6199 25.22 50.3299 24.35 49.2899 22.47C48.7399 21.48 47.4699 21.16 46.4699 21.76C46.1499 21.95 45.8899 22.21 45.7099 22.51C45.3299 23.15 45.2799 23.96 45.6499 24.63C46.4699 26.1 46.6399 26.65 46.6499 26.68C46.9699 27.75 48.0799 28.37 49.1599 28.05C50.2499 27.73 50.9199 26.65 50.6899 25.57V25.58Z" fill="#4C150C"/>
<path d="M121.28 39.69L120.57 39.77C116.14 40.28 115.28 38.32 113.72 34.74L113.26 33.69C113.02 33.15 112.45 32.84 111.87 32.92C111.86 32.92 111.19 33.04 111.09 33.05C109.49 33.29 108.18 33.03 107.2 32.3C104.94 30.59 104.42 26.55 104.19 24.83L104.13 24.36C104.06 23.8 103.64 23.35 103.08 23.25L102.62 23.16C100.17 22.69 98.0899 17.94 97.5599 16.32L97.4799 16.06C97.3699 15.73 97.1399 15.46 96.8299 15.3L94.6599 14.2C94.6599 14.2 94.5899 14.17 94.5599 14.15C93.0499 13.53 91.2299 12.87 89.1799 12.64C85.7699 12.25 82.2699 12.77 79.1799 13.23C78.4999 13.33 77.7999 13.46 77.0499 13.62C76.8499 13.64 76.6499 13.66 76.4499 13.69C75.5299 13.83 74.6399 14.09 73.8799 14.44C72.4499 14.88 71.0199 15.41 69.6199 16.01C67.0099 17.14 64.9199 18.86 62.9099 20.51C62.4499 20.89 61.9799 21.27 61.5099 21.65C60.3899 22.54 59.3999 23.38 58.4899 24.24L58.3799 24.34C57.9599 24.74 57.5399 25.14 57.1499 25.55L57.0799 25.63C56.6999 26.03 56.3199 26.45 55.9099 26.92L55.6799 27.19C55.2499 27.7 54.8999 28.13 54.5799 28.57C52.8099 30.96 51.8599 33.39 50.8399 36.02C50.6999 36.39 50.5499 36.77 50.3999 37.15C50.0399 38.06 49.5499 39 49.0299 39.99C47.9599 42.03 46.8599 44.14 46.5799 46.57C46.1499 50.3 46.5299 54.2 46.9199 56.81C47.3999 60.05 47.9499 63.22 49.2899 66.34C50.5899 69.35 52.3899 72.34 54.4999 74.99C55.9899 76.86 58.0399 78.02 60.0199 79.13L60.3399 79.31C61.2199 80.64 62.5799 81.73 64.2799 82.48L64.3599 82.52C64.4699 82.57 64.5899 82.6 64.7099 82.62H64.7699C64.7699 82.62 64.9399 82.65 65.1099 82.66C66.7899 84.02 68.5399 85.38 70.8099 86.28C71.1799 86.43 71.5599 86.57 71.9299 86.71C72.7499 87.02 73.4999 87.28 74.2399 87.52C75.5199 87.93 76.6999 88.25 77.8699 88.49C78.2899 88.58 78.6999 88.65 79.1199 88.72C79.5399 88.79 79.9699 88.85 80.3999 88.9C80.8099 88.95 81.7599 89.06 81.7599 89.06C83.6999 89.3 85.7099 89.54 87.7799 89.52C88.7299 89.51 89.5999 89.44 90.4499 89.32C91.2999 89.2 92.1599 89 93.0699 88.74C95.0399 88.17 96.8699 87.35 98.6599 86.56L98.7699 86.51C99.1699 86.33 99.5599 86.16 99.9499 85.99C100.36 85.81 100.78 85.6 101.2 85.37C101.58 85.15 101.96 84.92 102.36 84.65C103.02 84.21 103.68 83.7 104.45 83.05C104.77 82.78 105.09 82.5 105.42 82.22L106.06 81.65C106.75 81.04 107.41 80.45 108.07 79.93C108.36 79.7 108.64 79.49 108.93 79.28C109.43 78.92 109.93 78.59 110.44 78.24C111.2 77.73 111.99 77.2 112.76 76.61C113.94 75.7 114.83 74.81 115.57 73.81L115.7 73.63C117.92 70.61 119.52 67.83 120.59 65.14C121.57 62.66 121.78 60.27 122 57.69C122.06 56.98 122.12 56.26 122.21 55.53C122.3 54.72 122.44 53.84 122.58 52.99C122.98 50.49 123.4 47.9 123.01 45.29C122.97 45 122.9 44.71 122.84 44.43L122.82 44.34L122.77 44.17C122.75 43.54 122.73 42.73 122.7 41.69L122.68 40.97C122.68 40.6 122.51 40.26 122.23 40.02C121.95 39.78 121.59 39.67 121.22 39.71L121.28 39.69Z" fill="#4C150C"/>
<path d="M110.68 16.95C111.29 16.86 111.88 16.61 112.44 16.2C113.61 15.34 115.33 13.35 114.35 11.31C113.46 9.44999 110.65 8.62999 108.56 8.93999C107.81 9.04999 107.17 9.29999 106.67 9.67999C105.61 10.48 105.38 12.1 106.09 13.81C106.84 15.6 108.55 17.26 110.68 16.94V16.95Z" fill="#4C150C"/>
<path d="M132.72 16.57C131.81 14.97 130.25 14.17 128.54 14.42C127.75 14.54 126.98 14.87 126.26 15.42C124.97 16.39 124.59 18.33 125.34 20.12C126.1 21.93 127.73 22.94 129.49 22.68C130.05 22.6 130.59 22.39 131.19 22.02C132.85 20.9 133.91 18.67 132.72 16.57V16.57Z" fill="#4C150C"/>
<path d="M119.08 22.25C119.47 22.19 119.86 22.05 120.26 21.8C120.31 21.77 120.38 21.72 120.42 21.68C120.78 21.37 121.16 20.76 121.15 20.02C121.15 19.52 120.96 18.79 120.14 18.09C120.12 18.06 120.11 18.03 120.09 18.01C119.85 17.59 119.21 16.46 117.87 16.66C117.5 16.72 117.15 16.87 116.79 17.14C115.88 17.83 115.61 19.19 116.14 20.46C116.68 21.74 117.83 22.45 119.07 22.26L119.08 22.25Z" fill="#4C150C"/>
<path d="M120.75 25.38C120.08 25.48 119.44 25.75 118.87 26.19C117.06 27.55 116.33 30.79 117.3 33.11C118.16 35.17 120.18 36.18 122.68 35.81C122.83 35.79 122.99 35.76 123.16 35.73L123.3 35.7C123.48 35.66 123.65 35.59 123.8 35.48L123.92 35.4C125.41 34.31 127.6 31.77 126.36 29.17C125.41 27.18 123.38 25 120.76 25.39L120.75 25.38Z" fill="#4C150C"/>
<path d="M111.53 14.82C111.53 14.82 113.65 13.27 112.96 11.83C112.27 10.4 108.94 9.74999 107.58 10.77C106.22 11.79 108.68 16.88 111.52 14.81L111.53 14.82Z" fill="#A15E20"/>
<path d="M131.01 17.4C130.22 16.01 128.79 15.82 127.43 16.85C126.06 17.88 127.51 21.84 130.1 20.26C130.1 20.26 131.94 19.03 131.01 17.4Z" fill="#A15E20"/>
<path d="M119.51 20.5C119.51 20.5 120.28 19.83 119.15 18.92C118.81 18.65 118.59 17.37 117.63 18.09C116.67 18.81 117.69 21.61 119.51 20.5V20.5Z" fill="#A15E20"/>
<path d="M120.04 27.62C118.31 28.92 117.8 34.71 122.75 33.68C122.75 33.68 125.45 31.7 124.58 29.87C123.71 28.04 121.77 26.31 120.04 27.62V27.62Z" fill="#A15E20"/>
<path d="M112.07 44.49C110.41 43.47 109.04 41.98 108.52 39.86C99.9899 41.05 95.9599 32.49 96.7799 28.14C91.0599 23.78 90.8199 18.31 91.8899 15.13C90.9399 14.82 89.9699 14.57 88.9699 14.46C86.1699 14.14 83.2399 14.49 80.3199 14.92C80.8299 15.09 81.2399 15.34 81.4999 15.69C82.7299 17.36 79.5699 19.83 79.5699 19.83C75.2199 22.59 72.7599 18.09 73.9999 16.34C72.7799 16.73 71.5799 17.19 70.4199 17.69C67.4899 18.96 65.1999 21.12 62.7499 23.07C62.1999 23.51 61.6699 23.95 61.1499 24.4H61.1599C60.7099 24.77 60.2799 25.16 59.8499 25.55C59.8099 25.58 59.7799 25.62 59.7399 25.65C59.3399 26.03 58.9499 26.41 58.5699 26.8C58.5499 26.82 58.5299 26.84 58.5099 26.86C58.1399 27.25 57.7699 27.65 57.4199 28.06C57.3499 28.15 57.2699 28.23 57.1999 28.32C56.8499 28.74 56.4999 29.16 56.1799 29.61C55.9499 29.93 55.7299 30.24 55.5199 30.56C55.1099 31.2 54.7499 31.85 54.4199 32.51C54.0899 33.17 53.7899 33.85 53.5099 34.53C53.0799 35.56 52.6799 36.63 52.2499 37.73C51.9599 38.46 51.6099 39.18 51.2399 39.9C51.0499 40.26 50.8599 40.63 50.6699 40.99C50.5699 41.17 50.4799 41.35 50.3899 41.54C50.0899 42.12 49.7999 42.71 49.5399 43.3C49.7399 43.13 49.9599 42.99 50.1999 42.89C50.8699 42.62 51.4399 42.77 51.9199 43.1C52.8899 43.76 53.4399 45.12 53.4399 45.12C54.0199 47.29 53.0299 48.75 51.7899 49.44C50.5499 50.12 49.0599 50.03 48.6199 49.09C48.5399 48.93 48.4799 48.75 48.4199 48.56C48.3099 51.11 48.5099 53.83 48.8899 56.38C49.0399 57.38 49.1999 58.37 49.3799 59.33V59.37L50.3399 61.07L52.3799 62.49L54.9699 63.37L57.0099 64.07L55.2699 63.99L53.1899 63.89L51.2199 63.57L50.1699 62.73C50.2199 62.91 50.2699 63.08 50.3199 63.26C50.5499 63.99 50.8099 64.71 51.1199 65.42C51.9099 67.25 52.8899 69.05 53.9799 70.73C54.3099 71.23 54.6499 71.73 54.9899 72.21C55.3399 72.69 55.6899 73.17 56.0599 73.62C56.2399 73.85 56.4399 74.07 56.6499 74.28C56.8599 74.49 57.0799 74.69 57.3099 74.89C57.6199 75.15 57.9399 75.39 58.2699 75.62C58.5999 75.85 58.9499 76.07 59.2999 76.29C59.8299 76.61 60.3699 76.92 60.9199 77.22C61.1999 77.38 61.4799 77.54 61.7699 77.7C60.4699 75.34 61.4699 72.79 63.1999 72.75C65.7099 72.69 69.1799 76.33 68.7699 78.65C68.4899 80.25 66.8499 80.54 65.8499 80.56C67.6299 82.01 69.3399 83.43 71.5599 84.3C74.4599 85.45 77.4799 86.43 80.6499 86.8C81.4199 86.89 82.1999 86.99 82.9899 87.08C83.7799 87.17 84.5799 87.26 85.3799 87.32C85.7799 87.35 86.1799 87.37 86.5799 87.39C87.7899 87.44 88.9999 87.4 90.1999 87.22C90.5999 87.16 90.9999 87.09 91.3899 87C91.7799 86.91 92.1699 86.81 92.5599 86.7C93.7199 86.36 94.8499 85.93 95.9499 85.46C97.0599 84.99 98.1399 84.5 99.1999 84.04C100.3 83.56 101.31 82.9 102.28 82.16C102.6 81.91 102.92 81.66 103.23 81.39C104.11 80.65 104.97 79.87 105.82 79.13C106.18 78.82 106.53 78.52 106.89 78.24C107.64 77.64 108.42 77.12 109.19 76.6C110.33 75.83 111.47 75.08 112.48 74.18C113.04 73.68 113.57 73.12 114.04 72.49C114.25 72.3 114.46 72.08 114.67 71.84L113.7 72.26L109.72 72.14L104.52 70.58L106.65 67.52L106.05 65.88L103.5 63.06C103.5 63.06 105.59 64.48 106.5 65.51C107.41 66.54 107.41 67.86 107.27 67.93C107.13 68 105.61 70.1 105.61 70.1L110.61 71.64H110.71C110.09 71.46 109.59 71.08 109.33 70.53C108.27 68.29 110.4 63.04 112.79 62.06C115.18 61.08 115.7 65.98 115.7 65.98C115.63 69.03 114.36 70.71 112.96 71.38L114.31 71.24L115.56 70.66C118.14 66.96 120.42 60.51 120.45 57.67C120.49 54.28 121.34 48.2 121.34 48.2L120.52 46.29C115.62 46.07 112.07 44.46 112.07 44.46V44.49ZM87.1799 23.52C87.9799 23.77 88.0599 24.32 88.0999 24.52C88.2399 25.25 88.5699 25.5 88.2799 25.93C87.6899 26.78 86.3699 25.91 86.3699 25.91C85.9099 25.61 85.6299 25.21 85.5399 24.87C85.1499 23.44 86.3999 23.27 87.1799 23.51V23.52ZM66.5799 58.76C66.5199 60.15 66.0599 60.72 65.3199 61.34C63.8299 62.59 61.8599 60.39 61.8599 60.39C61.1699 59.62 60.8599 58.76 60.8599 58.11C60.8299 55.33 63.5599 54.41 64.6499 55.5C65.3299 56.17 66.6499 57.38 66.5899 58.76H66.5799ZM69.9899 42.47C69.2199 43.43 68.5899 43.6 67.7299 43.66C65.9999 43.78 65.7399 41.16 65.7399 41.16C65.6499 40.25 65.8799 39.47 66.2199 39C67.6599 37 70.0999 37.76 70.3099 39.12C70.4399 39.96 70.7599 41.52 69.9899 42.48V42.47ZM68.0499 23.29L66.7199 25.77L62.2699 28.51L59.5099 32.12L56.2799 38.42L58.8199 31.82C58.8199 31.82 61.1099 28.1 61.5999 27.75C62.0899 27.41 66.0899 25.19 66.0899 25.19L67.7899 22.62L71.2599 21.04L68.0499 23.3V23.29ZM87.2499 79.46C87.1999 80.52 86.8599 80.95 86.2899 81.43C85.1599 82.39 83.6499 80.7 83.6499 80.7C83.1199 80.11 82.8899 79.46 82.8899 78.96C82.8699 76.84 84.3699 77.36 85.3599 77.98C86.3799 78.61 87.2999 78.4 87.2499 79.46ZM90.4399 62.33L86.2199 62.25L85.4899 61.92C85.1199 61.83 84.7499 61.65 84.3799 61.42L83.4499 60.99L81.8899 60.71L80.1699 59.7L77.1999 58.47L82.3499 60.04C82.3499 60.04 82.6399 60.11 83.0299 60.22C81.4599 58.42 80.4399 55.69 81.1599 54.08C82.2299 51.69 86.4299 52.69 86.4299 52.69C88.6599 53.2 89.6999 54.95 89.9399 56.3C90.3299 58.41 88.9399 60.55 87.4299 61.49C88.2399 61.71 88.9599 61.9 88.9599 61.9L92.7999 61.13L90.4399 62.34V62.33ZM94.9099 40.96C94.7599 42.34 92.0799 42.13 92.0799 42.13C88.5899 41.51 89.5499 38 91.0299 37.87C92.5099 37.74 95.0599 39.58 94.9099 40.96ZM102.93 80.64C103.52 80.32 104.11 79.97 104.7 79.61C104.13 80 103.54 80.34 102.93 80.64ZM109.34 53.83C109.19 54.6 108.8 55.18 108.4 55.48C106.72 56.76 106.23 55.26 106.13 54.09C106.03 52.89 105.31 52.28 106.18 51.69C107.06 51.1 107.61 51.11 108.33 51.28C109.78 51.61 109.33 53.83 109.33 53.83H109.34Z" fill="#A15E20"/>
<path d="M119.89 46.6499C119.89 46.6499 116.68 46.8199 114.52 46.1299L112.35 45.4399C112.35 45.4399 114.52 47.3499 113.82 52.2899C113.12 57.2299 112.09 58.4399 111.39 58.7899C110.69 59.1399 108.96 61.9999 108.96 61.9999C108.96 61.9999 110.69 60.5299 112.77 61.0499C114.85 61.5699 117.88 64.8599 116.76 67.5499L115.63 70.2399C115.63 70.2399 119.18 63.6499 119.62 60.6199C120.06 57.5899 120.14 52.1299 120.49 50.9999C120.84 49.8699 120.75 47.0099 119.88 46.6699L119.89 46.6499Z" fill="#954A04"/>
<path d="M75.1299 17.04C74.7699 18.45 75.4299 19.44 76.1399 19.64C76.1399 19.64 75.0999 17.2 76.8699 15.48C76.8699 15.48 75.4899 15.63 75.1299 17.04V17.04ZM67.3999 41.57C67.1199 40.52 67.2699 39.06 67.6899 38.34C67.6899 38.34 66.4899 39.25 66.6899 40.81C66.8899 42.37 67.3099 42.91 68.0899 43C68.8699 43.09 68.9599 42.83 68.9599 42.83C68.9599 42.83 67.6799 42.61 67.3999 41.56V41.57ZM85.2599 80.34C84.5399 79.76 83.8999 78.67 83.8299 77.96C83.8299 77.96 83.4599 79.2 84.3899 80.18C85.3199 81.16 85.8799 81.32 86.4699 80.98C87.0599 80.64 86.9899 80.43 86.9899 80.43C86.9899 80.43 85.9899 80.93 85.2699 80.34H85.2599ZM92.0399 40.9C91.5499 40.55 90.7299 39.72 91.3099 38.12C91.3099 38.12 90.4799 38.8 90.6399 39.88C90.7999 40.96 91.7899 41.37 92.4399 41.54C93.0899 41.71 92.5299 41.26 92.0399 40.91V40.9ZM85.2699 60.42C82.7499 56.43 84.3199 53.36 84.3199 53.36C84.3199 53.36 82.5199 52.65 82.2399 55.53C81.9599 58.41 85.2699 60.42 85.2699 60.42ZM62.5599 75.31C62.5599 75.31 63.1499 78.07 65.2699 78.64C67.3799 79.21 67.8799 78.64 67.8799 78.64C67.8799 78.64 66.4399 78.31 65.0999 77.55C64.0099 76.93 63.0499 75.95 62.5599 75.32V75.31ZM50.8399 43.35C50.8399 43.35 49.3999 43.94 49.2399 46.23C49.0699 48.52 50.4399 49.1 50.4399 49.1C50.4399 49.1 49.8899 47.47 50.0799 46.01C50.2799 44.42 50.8399 43.36 50.8399 43.36V43.35ZM65.3999 60.83C66.1699 60.39 66.0799 60.1 66.0799 60.1C66.0799 60.1 64.7699 60.75 63.8199 59.98C62.8799 59.21 62.0299 57.79 61.9399 56.85C61.9399 56.85 61.4499 58.47 62.6699 59.76C63.8899 61.05 64.6299 61.26 65.3999 60.82V60.83ZM112.85 62.47C112.85 62.47 110.89 63.66 110.07 66.44C109.25 69.22 109.91 70.43 110.65 70.62C111.39 70.81 111.03 70.38 110.85 69.92C110.67 69.46 110.43 66.32 111.68 64.71C112.94 63.1 113.68 62.81 112.84 62.48L112.85 62.47ZM121.31 41.37C115.12 42.09 113.87 38.42 112.19 34.61C104.48 35.96 103.23 28.26 102.78 24.74C98.5999 23.94 96.2199 16.58 96.2199 16.58L94.3499 15.62C93.2799 18.63 93.6099 23.59 99.3099 26.73C98.5699 30.87 100.16 39.47 110.33 37.76C111.63 44.67 119.77 44.88 121.4 44.43C121.38 43.75 121.31 42.12 121.31 41.37V41.37Z" fill="#64352C"/>
<path d="M94.9099 17.86C94.9099 17.86 95.1499 22.86 97.8199 24.5L100.5 26.13C100.5 26.13 99.7199 31.27 102.09 34.11C105.92 38.72 110.35 36.44 110.35 36.44C110.35 36.44 110.35 39.79 113.52 42.06C116.69 44.33 120.91 44.01 120.91 44.01L120.65 42.93C120.65 42.93 114.6 42.51 113.01 39.3C111.42 36.09 111.14 35.62 111.14 35.62C111.14 35.62 105.66 35.62 103.7 33.38C101.74 31.13 102.02 25.51 102.02 25.51C102.02 25.51 96.9499 23.02 96.7699 19.09C96.6999 18.59 94.8999 17.88 94.8999 17.88L94.9099 17.86Z" fill="#844A04"/>
<path d="M51.91 43.1C52.39 40.07 54.44 37.33 55.55 34.53C56.72 31.58 57.61 28.93 59.48 26.4C60.01 25.69 60.57 25.01 61.15 24.37C60.7 24.75 60.27 25.14 59.84 25.54C59.8 25.57 59.77 25.61 59.73 25.64C59.33 26.02 58.94 26.4 58.56 26.79C58.54 26.81 58.52 26.83 58.5 26.85C58.13 27.24 57.76 27.64 57.41 28.05C57.34 28.14 57.26 28.22 57.19 28.31C56.84 28.73 56.49 29.15 56.17 29.6C55.94 29.92 55.72 30.23 55.51 30.55C55.1 31.19 54.74 31.84 54.41 32.5C54.08 33.16 53.78 33.84 53.5 34.52C53.07 35.55 52.67 36.62 52.24 37.72C51.95 38.45 51.6 39.17 51.23 39.89C51.04 40.25 50.85 40.62 50.66 40.98C50.56 41.16 50.47 41.34 50.38 41.53C50.08 42.11 49.79 42.7 49.53 43.29C49.73 43.12 49.95 42.98 50.19 42.88C50.86 42.61 51.43 42.76 51.91 43.09V43.1Z" fill="#B98353"/>
<path d="M52.3599 62.5001L54.9499 63.3801C54.7699 63.0001 54.5899 62.6101 54.4199 62.2301C53.1899 59.4001 52.6599 56.3901 52.1899 53.1901C52.0099 51.9701 51.8699 50.7101 51.7799 49.4401C50.5399 50.1201 49.0499 50.0301 48.6099 49.0901C48.5299 48.9301 48.4699 48.7501 48.4099 48.5601C48.2999 51.1101 48.4999 53.8301 48.8799 56.3801C49.0299 57.4001 49.1899 58.3901 49.3699 59.3701L50.3199 61.0701L52.3599 62.4901V62.5001Z" fill="#B98353"/>
<path d="M110.2 75.05C107.76 76.99 105.44 79.58 102.51 80.85C101.33 81.36 100.11 81.92 98.8799 82.43C97.1599 83.14 95.3699 83.76 93.5099 84.04C90.3099 84.52 87.0299 83.96 83.9699 83.61C80.7999 83.25 77.7799 82.26 74.8799 81.11C71.9299 79.94 69.3499 75.61 66.8299 73.74C64.2999 71.87 61.3499 72.9 59.3799 70.43C57.8299 68.48 56.4199 66.29 55.2699 63.99L53.1899 63.89L51.2199 63.57L50.1699 62.73C50.2199 62.91 50.2699 63.08 50.3199 63.26C50.5499 63.99 50.8099 64.71 51.1199 65.42C51.9099 67.25 52.8899 69.05 53.9799 70.73C54.6399 71.74 55.3399 72.71 56.0599 73.63C56.4299 74.09 56.8499 74.51 57.3099 74.9C57.6199 75.16 57.9399 75.4 58.2699 75.63C58.5999 75.86 58.9499 76.08 59.2999 76.3C59.8299 76.62 60.3699 76.93 60.9199 77.23C61.1999 77.39 61.4799 77.55 61.7699 77.71C60.4699 75.35 61.4699 72.8 63.1999 72.76C65.7099 72.7 69.1799 76.34 68.7699 78.66C68.4899 80.26 66.8499 80.55 65.8499 80.57C67.6299 82.02 69.3399 83.44 71.5599 84.31C74.4599 85.46 77.4799 86.44 80.6499 86.81C81.4199 86.9 82.1999 87 82.9899 87.09C83.7799 87.18 84.5799 87.27 85.3799 87.33C85.7799 87.36 86.1799 87.38 86.5799 87.4C87.7899 87.45 88.9999 87.41 90.1999 87.23C90.5999 87.17 90.9999 87.1 91.3899 87.01C91.7799 86.92 92.1699 86.82 92.5599 86.71C93.7199 86.37 94.8499 85.94 95.9499 85.47C97.0599 85 98.1399 84.51 99.1999 84.05C100.3 83.57 101.31 82.91 102.28 82.17C102.6 81.92 102.92 81.67 103.23 81.4C104.11 80.66 104.97 79.88 105.82 79.14C106.18 78.83 106.53 78.53 106.89 78.25C107.64 77.65 108.42 77.13 109.19 76.61C110.33 75.84 111.47 75.09 112.48 74.19C113.04 73.69 113.57 73.13 114.04 72.5C114.11 72.4 114.18 72.3 114.25 72.21C113.79 72.54 113.32 72.86 112.84 73.18C111.96 73.77 111.07 74.37 110.21 75.06L110.2 75.05Z" fill="#B98353"/>
<path d="M111.14 73.6901C111.14 73.6901 107.76 74.0401 101.17 72.4801C98.6698 71.8901 98.9998 70.7501 94.2398 71.2701C89.4798 71.7901 89.8698 84.2501 85.7498 82.8801C83.1598 82.0201 82.1898 79.6301 75.4398 80.8901C73.3098 81.2901 72.7498 80.6301 72.7498 80.6301L70.0598 81.6701C70.0598 81.6701 72.7498 85.0501 74.6498 84.1801C76.5498 83.3101 79.1598 87.3901 82.9698 87.5601C86.7798 87.7301 94.9298 86.9501 98.4798 85.2201C102.03 83.4901 109.23 76.2901 110.7 75.3401C112.17 74.3901 114.24 72.2101 114.24 72.2101L111.14 73.6901V73.6901Z" fill="#954A04"/>
<path d="M68.77 30.9701C68.77 30.9701 69.4 31.3801 69.68 30.9701C69.82 30.7701 69.66 30.6401 69.6 30.3001C69.58 30.2001 69.54 29.9401 69.16 29.8201C68.79 29.7101 68.19 29.7901 68.38 30.4701C68.42 30.6301 68.55 30.8201 68.77 30.9601V30.9701Z" fill="#B98353"/>
<path d="M92.93 29.88C93.29 30.02 93.89 29.98 93.76 29.29C93.73 29.13 93.61 28.93 93.4 28.77C93.4 28.77 92.8 28.31 92.49 28.7C92.33 28.89 92.49 29.03 92.52 29.37C92.53 29.47 92.55 29.73 92.92 29.88H92.93Z" fill="#B98353"/>
<path d="M109.4 12.33C109.37 12.17 109.25 11.97 109.04 11.81C109.04 11.81 108.44 11.35 108.13 11.74C107.97 11.93 108.13 12.07 108.16 12.41C108.17 12.51 108.19 12.77 108.56 12.92C108.92 13.06 109.52 13.02 109.39 12.33H109.4Z" fill="#B98353"/>
<path d="M120.26 30.3501C120.06 30.5001 120.18 30.6601 120.13 31.0101C120.12 31.1101 120.07 31.3701 120.4 31.6001C120.72 31.8201 121.31 31.9301 121.34 31.2301C121.34 31.0601 121.28 30.8401 121.12 30.6401C121.12 30.6401 120.65 30.0501 120.26 30.3501Z" fill="#B98353"/>
<path d="M128.72 17.93C128.51 17.6 128.01 17.27 127.71 17.91C127.64 18.06 127.61 18.29 127.68 18.54C127.68 18.54 127.88 19.26 128.36 19.14C128.6 19.08 128.56 18.88 128.74 18.58C128.79 18.49 128.93 18.27 128.72 17.93V17.93Z" fill="#B98353"/>
<path d="M117.63 18.87C117.59 18.94 117.58 19.08 117.62 19.27C117.62 19.27 117.73 19.79 117.99 19.86C118.12 19.9 118.18 19.81 118.27 19.67C118.3 19.63 118.29 19.48 118.17 19.2C118.06 18.92 117.79 18.56 117.63 18.87Z" fill="#B98353"/>
<path d="M77.0599 41.5901C77.2399 41.5201 77.4399 41.3501 77.5799 41.0801C77.5799 41.0801 77.9799 40.3101 77.4799 40.0401C77.2299 39.9001 77.1099 40.1001 76.7199 40.2101C76.6099 40.2401 76.3099 40.3201 76.2199 40.7701C76.1299 41.2101 76.2999 41.8801 77.0499 41.5901H77.0599Z" fill="#B98353"/>
<path d="M61.62 67.1C61.25 66.99 60.65 67.07 60.84 67.75C60.88 67.91 61.01 68.1 61.23 68.24C61.23 68.24 61.86 68.65 62.14 68.24C62.28 68.04 62.12 67.92 62.06 67.57C62.04 67.47 62 67.21 61.62 67.09V67.1Z" fill="#B98353"/>
<path d="M59.6099 47.76C59.4799 47.87 59.3599 48.06 59.3199 48.32C59.3199 48.32 59.1999 49.06 59.6899 49.15C59.9299 49.2 59.9799 49 60.2699 48.8C60.3499 48.74 60.5699 48.6 60.5199 48.2C60.4699 47.81 60.1499 47.31 59.6099 47.76Z" fill="#B98353"/>
<path d="M86.38 71.03C86.62 71.08 86.67 70.88 86.96 70.68C87.04 70.62 87.26 70.48 87.21 70.08C87.16 69.69 86.84 69.19 86.3 69.64C86.17 69.75 86.05 69.94 86.01 70.2C86.01 70.2 85.89 70.94 86.38 71.03V71.03Z" fill="#B98353"/>
<path d="M84.0999 33.8C84.2199 33.82 84.2399 33.73 84.3899 33.62C84.4299 33.59 84.5399 33.52 84.5199 33.32C84.4899 33.13 84.3299 32.87 84.0599 33.1C83.9999 33.15 83.9399 33.25 83.9199 33.38C83.9199 33.38 83.8599 33.75 84.1099 33.8H84.0999Z" fill="#B98353"/>
<path d="M86.2698 19.3C86.3898 19.32 86.4198 19.22 86.5598 19.12C86.5998 19.09 86.7098 19.02 86.6898 18.82C86.6598 18.63 86.4998 18.37 86.2298 18.6C86.1698 18.65 86.1098 18.75 86.0898 18.88C86.0898 18.88 86.0298 19.25 86.2798 19.3H86.2698Z" fill="#B98353"/>
<path d="M101.78 76.52C101.78 76.52 102.39 76.62 102.35 76.18C102.33 75.96 102.15 75.97 101.91 75.77C101.84 75.71 101.67 75.56 101.34 75.69C101.02 75.82 100.66 76.22 101.17 76.58C101.29 76.66 101.54 76.55 101.78 76.52Z" fill="#B98353"/>
<path d="M116.24 58.55C116.01 58.55 116.01 58.74 115.78 58.98C115.72 59.05 115.54 59.22 115.66 59.57C115.78 59.91 116.17 60.31 116.57 59.8C116.67 59.68 116.56 59.41 116.54 59.17C116.54 59.17 116.68 58.54 116.23 58.55H116.24Z" fill="#B98353"/>
<path d="M96.6299 55.82C96.6299 55.82 97.4599 55.96 97.4199 55.36C97.3999 55.06 97.1499 55.07 96.8199 54.8C96.7199 54.72 96.4899 54.51 96.0399 54.69C95.5999 54.87 95.1099 55.41 95.8099 55.9C95.9799 56.02 96.3199 55.85 96.6399 55.82H96.6299Z" fill="#B98353"/>
<path d="M118.99 48.36C118.89 48.28 118.66 48.07 118.21 48.25C117.77 48.43 117.28 48.97 117.98 49.46C118.15 49.58 118.49 49.41 118.81 49.38C118.81 49.38 119.64 49.52 119.6 48.92C119.58 48.62 119.33 48.63 119 48.36H118.99Z" fill="#B98353"/>
<path d="M74.3298 71.46C74.4698 71.49 74.4998 71.37 74.6598 71.26C74.7098 71.23 74.8398 71.14 74.8098 70.91C74.7798 70.68 74.5898 70.39 74.2798 70.65C74.2098 70.71 74.1398 70.83 74.1098 70.98C74.1098 70.98 74.0398 71.41 74.3198 71.46H74.3298Z" fill="#B98353"/>
<path d="M77.17 80.06C77.35 80.09 77.39 79.95 77.6 79.79C77.66 79.75 77.83 79.64 77.79 79.34C77.75 79.05 77.51 78.67 77.1 79.01C77 79.09 76.91 79.24 76.88 79.43C76.88 79.43 76.79 79.99 77.16 80.06H77.17Z" fill="#B98353"/>
<path d="M101.35 49.3701C101.56 49.4101 101.61 49.2401 101.86 49.0601C101.93 49.0101 102.13 48.8801 102.08 48.5301C102.04 48.1901 101.75 47.7401 101.27 48.1401C101.16 48.2301 101.05 48.4101 101.02 48.6401C101.02 48.6401 100.92 49.3001 101.35 49.3701V49.3701Z" fill="#B98353"/>
<path d="M77.8998 48.19C77.8198 48.26 77.7398 48.39 77.7098 48.56C77.7098 48.56 77.6298 49.05 77.9498 49.11C78.1098 49.14 78.1398 49.01 78.3298 48.88C78.3798 48.84 78.5298 48.75 78.4998 48.49C78.4698 48.23 78.2598 47.9 77.8998 48.2V48.19Z" fill="#B98353"/>
<path d="M24.26 89.25C28.56 93.79 34.97 97.01 44.44 97.18C44.75 97.18 45.07 97.18 45.38 97.18C54.42 97.14 61.65 96.3 67.35 95.12C69.7 94.63 71.79 94.09 73.63 93.52C77.28 92.4 79.99 91.18 81.89 90.13C83.22 89.4 84.15 88.74 84.75 88.26C85.03 88.03 85.29 87.8 85.49 87.52C85.69 87.24 85.8 86.95 85.8 86.58C85.8 85.04 83.87 83.28 82.53 83.1C82.3 83.07 82.09 83.09 81.9 83.16C80.36 83.78 75.25 85.45 70.35 84.85C67.05 84.45 64.63 83.14 62.72 81.6C60.16 79.53 58.55 77.06 57.03 75.86C56.2 75.2 55.39 74.92 54.48 75.3C51.06 76.73 53.53 81.56 53.53 81.56C53.53 81.56 51.7 83.91 50.14 83.41L42.66 77.8C32.76 70.37 16.58 58.01 16.58 58.01C16.24 58.33 15.38 64.22 16.35 71.16C16.54 72.51 16.8 73.91 17.14 75.33C17.48 76.75 17.94 78.29 18.49 79.76C19.76 83.14 21.61 86.44 24.27 89.24L24.26 89.25Z" fill="white"/>
<path opacity="0.15" d="M54.1999 99.11C52.9399 99.4 51.5499 99.55 50.0399 99.54C50.6499 103.38 49.8999 106.38 49.8999 109.23C49.8999 110.96 46.0199 133.02 46.5799 135.93C46.5799 139.75 56.9099 143.56 65.5799 142.83C65.3399 140.28 62.2499 137.92 58.0099 137.64C52.8099 137.29 50.0399 135.56 51.7699 123.08C52.7799 115.81 54.0799 105.29 54.1999 99.1V99.11Z" fill="#B98353"/>
<path opacity="0.15" d="M63.1599 91.54C63.5699 91.61 64.2299 91.67 65.0499 91.72C84.9099 90.51 84.5799 87.04 84.5799 87.04C84.5799 87.04 68.5199 90.51 64.1299 89.12C56.4599 86.7 52.5799 77.91 52.5799 77.91L52.8099 79.87C52.8099 79.87 52.8099 82.64 54.8899 87.38C45.8799 91.25 37.9099 89.11 28.1999 83.91C21.2199 80.17 19.2399 67.55 19.9999 60.11C20.2999 57.2 22.9999 54.1 22.9999 54.1C22.9999 54.1 8.7899 41.51 6.7099 28.68C5.4999 21.2 6.54989 16.37 13.8699 6.98999C3.2499 15.27 -7.2501 28.76 16.1299 57.58C16.2999 57.8 16.5299 58.2 16.5299 58.2C16.1899 58.52 15.3699 64.22 16.3399 71.16C16.5299 72.51 16.7899 73.91 17.1299 75.33C17.4799 76.8 17.9299 78.29 18.4799 79.76C19.7499 83.14 21.5999 86.44 24.2599 89.24C28.5599 93.78 34.9599 97 44.4399 97.17C44.7499 97.17 45.0699 97.17 45.3899 97.17C46.7999 97.17 48.1399 97.13 49.4599 97.09C49.4599 97.09 58.6499 96.58 63.1699 91.53L63.1599 91.54Z" fill="#B98353"/>
<path opacity="0.15" d="M105.85 132.79C101.34 132.79 94.4099 131.75 92.3299 131.75C90.2499 131.75 90.2499 127.94 90.5999 117.19C90.9499 106.44 88.1699 100.9 85.3999 97.09C82.6299 93.28 79.5099 93.28 78.4699 98.82C77.4299 104.37 78.8199 123.08 78.8199 123.08C78.8199 123.08 78.9299 123.5 79.1399 124.19C80.8899 112.42 80.8199 99.03 80.8199 99.03C84.5299 104.71 85.6799 110.64 85.9099 116.14C86.0399 119.09 85.9099 121.9 85.7799 124.45C85.5599 129.02 85.3799 132.74 86.8899 134.63C88.7699 136.98 105.68 138.49 110.56 134.31C110.98 133.95 111.38 133.45 111.78 132.85C110.03 132.6 107.71 132.78 105.86 132.78L105.85 132.79Z" fill="#B98353"/>
<path d="M54.1999 99.11C60.6899 97.64 63.9299 93.08 63.9299 93.08C63.9299 93.08 75.6199 94.16 83.3099 89.39C78.8999 91.59 69.4699 91.94 65.0499 91.72C64.2199 91.68 63.5699 91.62 63.1599 91.54C58.6399 96.6 49.4499 97.1 49.4499 97.1C49.4499 97.1 45.3299 99.23 49.1699 99.54C49.4699 99.55 49.7599 99.54 50.0499 99.54C51.5499 99.54 52.9499 99.39 54.2099 99.11H54.1999Z" fill="#4C150C"/>
<path d="M111.4 77.93C111.4 77.93 109.08 74.12 107.07 77.06C106.28 78.21 107.48 81.19 104.12 81.81C99.7999 82.61 89.9999 83.4 90.3299 87.59C90.6599 91.78 103.84 91.1 111.02 87.73C118.2 84.36 126.79 74.82 124.48 60.24C123.01 50.97 122.06 54.44 122.06 54.44C122.06 54.44 122.58 70.04 111.4 77.92V77.93Z" fill="white"/>
<path opacity="0.15" d="M90.3198 87.6C90.3198 87.6 93.7398 91.06 98.2698 90.67C102.8 90.28 115.37 89.3 120.8 78.44C124.57 71.19 124.97 65.39 124.55 62.26L124.13 59.13C124.13 59.13 126.19 78.69 112.62 84.69C104.8 88.46 98.1898 90.56 90.3198 87.59V87.6Z" fill="#B98353"/>
<path d="M81.89 83.16C81.89 83.16 71.19 86.34 64.83 82.41C59.17 78.13 56.74 75.48 56.74 75.48C56.74 75.48 60.55 83.45 67.02 84.95C73.49 86.45 79.39 85.87 82.51 83.1" fill="#4C150C"/>
<path d="M105.51 81.4801C105.51 81.4801 92.9198 85.0601 90.9498 86.2201C88.9798 87.3801 90.4899 85.4101 90.4899 85.4101C90.4899 85.4101 95.7999 81.1301 105.51 81.4801V81.4801Z" fill="#4C150C"/>
</g>
<defs>
<radialGradient id="paint0_radial_401_2" cx="0" cy="0" r="1" gradientUnits="userSpaceOnUse" gradientTransform="translate(66.6499 50.5801) scale(18.02)">
<stop stop-color="#E6E7E8"/>
<stop offset="0.08" stop-color="#B8B9B9"/>
<stop offset="0.19" stop-color="#878889"/>
<stop offset="0.29" stop-color="#5E5E5E"/>
<stop offset="0.4" stop-color="#3C3C3C"/>
<stop offset="0.51" stop-color="#212121"/>
<stop offset="0.62" stop-color="#0E0E0F"/>
<stop offset="0.73" stop-color="#030303"/>
<stop offset="0.85"/>
</radialGradient>
<clipPath id="clip0_401_2">
<rect width="133.23" height="146.1" fill="white"/>
</clipPath>
</defs>
</svg>
