<svg width="2859" height="3858" viewBox="0 0 2859 3858" fill="none" xmlns="http://www.w3.org/2000/svg">
    <g clip-path="url(#clip0_35_87)">
        <path opacity="0.997" d="M229.331 2573.92C227.658 2571.29 287.004 2544.38 324.218 2448.2C337.11 2414.69 347.357 2369.08 337.943 2323.16C334.776 2307.96 329.583 2292.41 320.457 2279.96C313.372 2270.39 303.743 2262.04 292.932 2259.23C281.648 2255.61 267.954 2257.93 254.626 2263.16C231.995 2270.93 211.286 2285.24 190.078 2302.35C167.021 2283.54 134.978 2268.82 104.768 2273.7C81.902 2276.54 60.511 2295.24 49.4462 2318.86C3.74465 2410.06 71.315 2519.88 150.29 2625.09C150.29 2625.09 150.29 2625.09 150.29 2625.09C230.276 2725.89 340.979 2812.76 472.956 2860.92C580.106 2900.19 698.127 2914.49 816.398 2905.34C858.558 2901.63 900.297 2891.12 931.227 2867C941.601 2859.12 950.867 2849.65 958.548 2839.11C967.767 2826.46 974.702 2812.27 978.534 2797.4C985.145 2772.44 984.014 2745.1 975.509 2720.73V2720.73C967.343 2698.01 953.089 2677.33 934.061 2665.58C910.149 2650.23 881.933 2641.07 853.199 2637.76C819.885 2634.11 785.627 2639.42 757.021 2654.45C719.662 2673.22 691.325 2709.24 671.796 2748.4C639.342 2814.04 629.429 2890.35 625.585 2963.42C620.787 3054.16 660.729 3141.58 719.642 3201.36C770.676 3252.96 831.322 3289.74 893.723 3308.69C908.697 3313.56 926.857 3313.53 945.412 3314.04C973.343 3314.51 1002.22 3313.39 1029.19 3312.46C1112.71 3309.54 1178.34 3307.56 1247.24 3311.4C1252.48 3312.55 1259.26 3308.03 1265.44 3302.94C1274.49 3294.73 1281.43 3283.17 1287.71 3271.73C1306.29 3237.38 1318.13 3197.66 1326.75 3167.88C1349.83 3064.98 1363.32 3012.13 1366.36 3012.73C1369.41 3013.33 1361.94 3067.36 1344.36 3171.88C1344.36 3171.88 1344.36 3171.88 1344.36 3171.88C1337.33 3202.62 1327.04 3243.92 1308.44 3282.33C1302.39 3294.99 1294.5 3308.84 1282.76 3320.8C1274.53 3329.67 1261.97 3337.01 1246.23 3337.34C1178.13 3335.81 1114.64 3339.62 1030.69 3344.52C1003.79 3346.11 974.453 3347.89 945.212 3348.03C926.769 3348.32 905.587 3348.33 883.825 3342.43C815.106 3322.91 748.321 3284.25 692.192 3228.84C625.184 3162.88 579.614 3066.05 583.303 2961.59C585.929 2885.84 596.46 2803.96 631.931 2729.13C653.524 2683.25 688.026 2640.3 736.117 2614.43C773.614 2594.93 816.524 2587.77 858.202 2592.39C893.307 2596.11 928.083 2607.44 958.736 2626.81C987.785 2645.66 1008.37 2674.19 1019.07 2705.51V2705.51C1030.67 2738.69 1032.2 2775.02 1023.26 2809.17C1017.73 2829.86 1008.36 2849.2 995.965 2866.3C985.637 2880.55 973.211 2893.24 959.166 2903.86C917.766 2934.55 867.899 2948.06 819.932 2951.28C695.515 2960.79 571.075 2945 457.507 2902.73C317.198 2850.29 201.177 2757.52 118.223 2650.2V2650.2C32.6442 2545.24 -32.8981 2417.48 17.6801 2303.93C33.4423 2270.48 64.451 2246.14 100.199 2240.83C136.634 2236.45 169.491 2255.33 190.178 2280.49C205.009 2262.04 222.599 2245.98 243.989 2236.31C261.83 2229.19 281.993 2227.28 301.035 2233.04C318.973 2239.12 332.793 2251.36 341.852 2265.2C353.144 2282.35 358.941 2301.28 361.69 2318.87C370.075 2371.61 356.822 2420.33 340.993 2455.25C291.994 2563.91 225.032 2567.17 229.331 2573.92V2573.92Z" fill="black"/>
        <path d="M1160.62 2299.49C1160.62 2299.49 1166.66 2341.8 1118.3 2468.75C1069.94 2595.69 1066.92 2885.85 1042.74 2949.32C1018.56 3012.79 885.57 3224.37 915.795 3411.76C946.02 3599.15 1094.12 3865.13 1275.47 3798.64C1456.82 3732.14 1420.55 3744.23 1420.55 3744.23C1420.55 3744.23 1946.46 3859.09 2294.05 3659.6C2372.63 3695.87 2420.99 3726.1 2538.87 3656.58C2656.74 3587.06 2717.19 3396.65 2714.17 3266.68C2711.15 3136.71 2523.75 2852.6 2502.6 2792.15C2481.44 2731.7 2402.86 2435.5 2363.56 2311.58C2324.27 2187.66 2354.5 2166.5 2354.5 2166.5L1160.62 2299.49Z" fill="#DE5700" stroke="black" stroke-width="46.0804"/>
        <path d="M2798.72 15.367C2698.4 16.4866 2391.12 184.492 2306.37 277.783C2219.35 373.579 2165.64 521.033 2148.97 571.513C2050.88 508.595 1907.17 507.155 1907.17 507.155C1907.17 507.155 1991.8 479.955 2082.48 455.775C1925.31 401.371 1722.8 449.727 1722.8 449.727C1722.8 449.727 1813.47 349.989 1895.08 277.45C1768.13 310.697 1620.04 383.233 1529.36 437.638C1553.54 401.368 1595.86 362.076 1680.49 244.199C1447.75 301.626 1160.61 528.318 1060.87 612.947C1072.96 537.385 1103.19 489.025 1139.46 404.395C1002.07 499.513 937.628 607.905 907.715 681.853C876.542 624.261 794.11 483.695 690.543 400.173C558.035 293.312 45.0983 126.611 113.489 254.844C181.88 383.077 164.781 558.322 207.526 827.611C250.27 1096.9 634.972 1250.78 634.972 1250.78C637.192 1249.99 639.395 1249.09 641.592 1248.17C619.011 1319.85 598.866 1424.54 583.679 1597.01C511.014 1706.01 478.959 1727.38 470.41 1767.99C540.938 1733.8 575.13 1708.15 626.423 1695.32C581.542 1770.13 579.407 1872.71 598.642 2035.14C634.975 1943.24 632.833 1945.37 671.303 1917.59C681.988 2026.59 705.503 2086.43 733.287 2120.63C743.973 2060.78 776.031 2037.28 776.031 2037.28C776.031 2037.28 797.404 2167.65 859.383 2257.41C872.207 2178.34 887.165 2165.51 887.165 2165.51C887.165 2165.51 1135.08 2490.37 1767.7 2456.17C2400.31 2421.98 2579.84 1985.98 2579.84 1985.98C2579.84 1985.98 2592.66 2041.56 2592.66 2062.93C2639.68 1994.54 2669.6 1853.48 2669.6 1853.48C2669.6 1853.48 2703.8 1934.69 2695.25 1985.98C2733.72 1921.86 2742.26 1763.72 2725.17 1691.05C2785.01 1755.17 2836.31 1776.54 2836.31 1776.54C2836.31 1776.54 2703.79 1545.72 2699.52 1507.25C2695.25 1468.78 2793.56 1562.81 2793.56 1562.81C2793.56 1562.81 2731.97 1460.26 2716.62 1432.45C2659.41 1328.78 2605.12 1139.43 2528.87 1011.72C2592.86 970.123 2850.88 788.773 2843.33 573.68C2834.72 328.21 2786.46 176.103 2827.99 51.0384C2836.43 25.6346 2824.3 15.0816 2798.72 15.367V15.367Z" fill="#DE5700"/>
        <path d="M1160.62 2299.49C1160.62 2299.49 1166.66 2341.8 1118.3 2468.75C1069.94 2595.69 1066.92 2885.85 1042.74 2949.32C1018.56 3012.79 885.57 3224.37 915.795 3411.76C946.02 3599.15 1094.12 3865.13 1275.47 3798.64C1456.82 3732.14 1420.55 3744.23 1420.55 3744.23C1420.55 3744.23 1946.46 3859.09 2294.05 3659.6C2372.63 3695.87 2420.99 3726.1 2538.87 3656.58C2656.74 3587.06 2717.19 3396.65 2714.17 3266.68C2711.15 3136.71 2523.75 2852.6 2502.6 2792.15C2481.44 2731.7 2402.86 2435.5 2363.56 2311.58C2324.27 2187.66 2354.5 2166.5 2354.5 2166.5L1160.62 2299.49Z" fill="#DE5700"/>
        <path d="M1940.31 2212.63L1557.07 2255.32C1406.21 2289.92 1288.96 2332.21 1288.96 2332.21C1288.96 2332.21 1220.57 2746.83 1233.39 2862.24C1246.22 2977.65 1173.55 3152.9 1212.02 3328.15C1245.61 3481.2 1311.83 3644.02 1558.64 3765.38C1710.04 3782.34 1960.24 3792 2176.82 3713.48C2280.67 3629.51 2354.73 3520.47 2383.22 3435.02C2447.33 3242.67 2370.39 2909.27 2340.47 2840.87C2310.55 2772.48 2344.75 2558.76 2178.04 2315.11C2132.1 2247.96 2043.91 2219.17 1940.31 2212.63Z" fill="#F7EDE9"/>
        <path opacity="0.6" d="M2798.72 15.367C2698.4 16.4866 2391.12 184.492 2306.37 277.783C2219.35 373.579 2165.64 521.033 2148.97 571.513C2050.88 508.595 1907.17 507.155 1907.17 507.155C1907.17 507.155 1991.8 479.955 2082.48 455.775C1925.31 401.371 1722.8 449.727 1722.8 449.727C1722.8 449.727 1813.47 349.989 1895.08 277.45C1768.13 310.697 1620.04 383.233 1529.36 437.638C1553.54 401.368 1595.86 362.076 1680.49 244.199C1447.75 301.626 1160.61 528.318 1060.87 612.947C1072.96 537.385 1103.19 489.025 1139.46 404.395C1002.07 499.513 937.628 607.905 907.715 681.853C876.542 624.261 794.11 483.695 690.543 400.173C558.035 293.312 45.0983 126.611 113.489 254.844C181.88 383.077 164.781 558.322 207.526 827.611C250.27 1096.9 634.972 1250.78 634.972 1250.78C637.192 1249.99 639.395 1249.09 641.592 1248.17C619.011 1319.85 598.866 1424.54 583.679 1597.01C511.014 1706.01 478.959 1727.38 470.41 1767.99C540.938 1733.8 575.13 1708.15 626.423 1695.32C581.542 1770.13 579.407 1872.71 598.642 2035.14C634.975 1943.24 632.833 1945.37 671.303 1917.59C681.988 2026.59 705.503 2086.43 733.287 2120.63C743.973 2060.78 776.031 2037.28 776.031 2037.28C776.031 2037.28 797.404 2167.65 859.383 2257.41C872.207 2178.34 887.165 2165.51 887.165 2165.51C887.165 2165.51 1135.08 2490.37 1767.7 2456.17C2400.31 2421.98 2579.84 1985.98 2579.84 1985.98C2579.84 1985.98 2592.66 2041.56 2592.66 2062.93C2639.68 1994.54 2669.6 1853.48 2669.6 1853.48C2669.6 1853.48 2703.8 1934.69 2695.25 1985.98C2733.72 1921.86 2742.26 1763.72 2725.17 1691.05C2785.01 1755.17 2836.31 1776.54 2836.31 1776.54C2836.31 1776.54 2703.79 1545.72 2699.52 1507.25C2695.25 1468.78 2793.56 1562.81 2793.56 1562.81C2793.56 1562.81 2731.97 1460.26 2716.62 1432.45C2659.41 1328.78 2605.12 1139.43 2528.87 1011.72C2592.86 970.123 2850.88 788.773 2843.33 573.68C2834.72 328.21 2786.46 176.103 2827.99 51.0384C2836.43 25.6346 2824.3 15.0816 2798.72 15.367V15.367Z" fill="url(#paint0_radial_35_87)"/>
        <path d="M1785.69 1777.75C1684.07 1778.04 1631.38 1822.48 1594.58 1842.79C1435.61 2029.15 1115.77 1926.47 942.736 2050.1C912.815 2071.47 871.139 2186.88 871.139 2186.88L873.322 2195.17C881.064 2170.83 887.165 2165.51 887.165 2165.51C887.165 2165.51 1135.08 2490.37 1767.7 2456.17C2277.77 2428.6 2493.17 2139.93 2557.52 2029.09C2551.52 1973.12 2534.07 1898.88 2483.67 1896.22C2402.45 1891.95 2066.9 1864.16 1964.32 1808.59C1922.64 1786.02 1855.22 1777.56 1785.69 1777.75V1777.75Z" fill="#F7EDE9"/>
        <path opacity="0.993" d="M1961.57 1985.15C1963.63 1987.09 1933.18 2033.96 1856.33 2063.83V2063.83C1839.85 2070.21 1822.61 2075.45 1804.72 2079.62C1766.98 2088.41 1729.87 2091.61 1698.49 2092.27C1674.97 2092.78 1655.68 2091.74 1642.07 2090.22C1635 2089.43 1629.58 2088.53 1625.85 2087.62C1623.95 2087.15 1622.51 2086.68 1621.54 2086.24C1621.04 2086.01 1620.67 2085.78 1620.42 2085.57C1620.15 2085.33 1620.02 2085.11 1620.03 2084.89C1620.05 2084.67 1620.2 2084.47 1620.49 2084.27C1620.76 2084.08 1621.15 2083.91 1621.67 2083.73C1622.67 2083.4 1624.14 2083.08 1626.06 2082.78C1629.77 2082.2 1635.24 2081.66 1642.21 2081.09C1655.61 2079.99 1674.75 2078.77 1697.58 2076.59C1728.3 2073.63 1764.16 2069.35 1800.38 2060.94C1817.58 2056.95 1834.05 2052.22 1849.95 2046.59C1918.62 2022.43 1958.6 1982.34 1961.57 1985.15V1985.15Z" fill="black"/>
        <path d="M1934.67 1959.27C1935.77 1956.91 1954.37 1960.97 1967.17 1981.57C1979.98 2002.16 1975.41 2020.64 1972.82 2020.59C1970 2020.53 1967.84 2002.79 1958.14 1987.19C1948.44 1971.58 1933.47 1961.83 1934.67 1959.27V1959.27Z" fill="black"/>
        <path d="M1263.38 1639.08C1266.22 1756.73 1183.41 1844.17 1098.66 1852.16C951.388 1866.04 891.515 1767.76 901.936 1653.12C912.303 1539.07 1011.03 1433.96 1109.23 1430.52C1193.46 1427.58 1260.47 1518.48 1263.38 1639.08Z" fill="black"/>
        <g filter="url(#filter0_f_35_87)">
            <path d="M1109.1 1636.63C1138.87 1598.95 1137.08 1543.74 1105.1 1513.3C1073.11 1482.87 1023.06 1488.73 993.29 1526.41C963.522 1564.08 965.316 1619.29 997.297 1649.73C1029.28 1680.17 1079.34 1674.3 1109.1 1636.63Z" fill="#BEBEBE"/>
        </g>
        <path d="M1109.1 1636.63C1138.87 1598.95 1137.08 1543.74 1105.1 1513.3C1073.11 1482.87 1023.06 1488.73 993.29 1526.41C963.522 1564.08 965.316 1619.29 997.297 1649.73C1029.28 1680.17 1079.34 1674.3 1109.1 1636.63Z" fill="#DEDEDE"/>
        <g filter="url(#filter1_f_35_87)">
            <path d="M1220.38 1725.27C1218.97 1703.96 1200.95 1686.44 1180.12 1686.13C1159.3 1685.82 1143.56 1702.84 1144.97 1724.14C1146.38 1745.45 1164.4 1762.98 1185.22 1763.29C1206.05 1763.6 1221.79 1746.58 1220.38 1725.27Z" fill="#BEBEBE"/>
        </g>
        <path d="M1217.34 1725.22C1216.05 1705.95 1199.48 1690.11 1180.33 1689.83C1161.18 1689.54 1146.71 1704.93 1148.01 1724.2C1149.3 1743.46 1165.87 1759.31 1185.02 1759.59C1204.17 1759.87 1218.64 1744.48 1217.34 1725.22Z" fill="#DEDEDE"/>
        <path d="M2111.74 1483.68C2108.91 1601.33 2191.71 1688.77 2276.47 1696.76C2423.74 1710.64 2483.61 1612.36 2473.19 1497.72C2462.82 1383.67 2364.09 1278.56 2265.89 1275.13C2181.66 1272.18 2114.65 1363.09 2111.74 1483.68Z" fill="black"/>
        <g filter="url(#filter2_f_35_87)">
            <path d="M2266.02 1481.23C2236.25 1443.55 2238.05 1388.34 2270.03 1357.9C2302.01 1327.47 2352.07 1333.34 2381.83 1371.01C2411.6 1408.68 2409.81 1463.9 2377.83 1494.33C2345.85 1524.77 2295.79 1518.9 2266.02 1481.23Z" fill="#BEBEBE"/>
        </g>
        <path d="M2266.02 1481.23C2236.25 1443.55 2238.05 1388.34 2270.03 1357.9C2302.01 1327.47 2352.07 1333.34 2381.83 1371.01C2411.6 1408.68 2409.81 1463.9 2377.83 1494.33C2345.85 1524.77 2295.79 1518.9 2266.02 1481.23Z" fill="#DEDEDE"/>
        <g filter="url(#filter3_f_35_87)">
            <path d="M2154.74 1569.87C2156.15 1548.56 2174.17 1531.04 2195 1530.73C2215.83 1530.42 2231.57 1547.44 2230.16 1568.75C2228.75 1590.05 2210.72 1607.58 2189.9 1607.89C2169.07 1608.2 2153.33 1591.18 2154.74 1569.87Z" fill="#BEBEBE"/>
        </g>
        <path d="M2157.78 1569.82C2159.08 1550.55 2175.65 1534.71 2194.79 1534.43C2213.94 1534.15 2228.41 1549.53 2227.12 1568.8C2225.82 1588.06 2209.25 1603.91 2190.1 1604.19C2170.96 1604.47 2156.49 1589.08 2157.78 1569.82Z" fill="#DEDEDE"/>
        <path d="M1662.35 1829.49C1645.46 1787.85 1850.52 1752.32 1854.28 1791.71C1858.37 1834.59 1804.4 1912.61 1777.2 1917.14C1750 1921.68 1680.39 1873.96 1662.35 1829.49V1829.49Z" fill="black"/>
        <g opacity="0.8">
            <g filter="url(#filter4_f_35_87)">
                <path d="M1786.9 1793.91C1788.82 1786.22 1801.15 1781.29 1814.45 1782.91C1827.74 1784.53 1836.97 1792.08 1835.05 1799.77C1833.13 1807.46 1820.8 1812.39 1807.51 1810.77C1794.21 1809.15 1784.99 1801.61 1786.9 1793.91Z" fill="#BEBEBE"/>
            </g>
            <path d="M1788.84 1794.15C1790.59 1787.19 1801.91 1782.76 1814.14 1784.25C1826.36 1785.74 1834.85 1792.58 1833.11 1799.54C1831.36 1806.49 1820.04 1810.92 1807.81 1809.43C1795.59 1807.94 1787.1 1801.1 1788.84 1794.15Z" fill="#DEDEDE"/>
        </g>
        <path d="M2741.41 163.935C2735.43 163.645 2728.58 173.489 2718.76 194.994C2673.88 293.306 2462.29 385.213 2381.08 483.525C2299.87 581.837 2284.9 697.243 2374.67 851.122C2421.52 931.442 2482.9 980.277 2532.12 1009.56C2600.59 964.628 2850.77 785.686 2843.33 573.68C2841.17 511.985 2836.51 456.206 2831.39 405.253C2769.94 259.579 2759.63 164.818 2741.41 163.935V163.935Z" fill="url(#paint1_radial_35_87)"/>
        <path d="M181.665 291.229C163.173 289.362 174.995 366.697 171.814 505.727C180.547 595.591 187.448 701.123 207.526 827.611C246.789 1074.97 573.781 1224.58 626.915 1247.37C670.403 1199.53 739.457 1106.83 766.704 960.629C806.777 745.606 754.64 615.556 641.83 530.754C529.02 445.951 288.043 418.155 211.526 319.567C197.179 301.081 187.769 291.846 181.665 291.229V291.229Z" fill="url(#paint2_radial_35_87)"/>
        <path d="M2798.72 15.367C2698.4 16.4866 2391.12 184.492 2306.37 277.783C2219.35 373.579 2165.64 521.033 2148.97 571.513C2050.88 508.595 1907.17 507.155 1907.17 507.155C1907.17 507.155 1991.8 479.955 2082.48 455.775C1925.31 401.371 1722.8 449.727 1722.8 449.727C1722.8 449.727 1813.47 349.989 1895.08 277.45C1768.13 310.697 1620.04 383.233 1529.36 437.638C1553.54 401.368 1595.86 362.076 1680.49 244.199C1447.75 301.626 1160.61 528.318 1060.87 612.947C1072.96 537.385 1103.19 489.025 1139.46 404.395C1002.07 499.513 937.628 607.905 907.715 681.853C876.542 624.261 794.11 483.695 690.543 400.173C558.035 293.312 45.0983 126.611 113.489 254.844C181.88 383.077 164.781 558.322 207.526 827.611C250.27 1096.9 634.972 1250.78 634.972 1250.78C637.192 1249.99 639.395 1249.09 641.592 1248.17C619.011 1319.85 598.866 1424.54 583.679 1597.01C511.014 1706.01 478.959 1727.38 470.41 1767.99C540.938 1733.8 575.13 1708.15 626.423 1695.32C581.542 1770.13 579.407 1872.71 598.642 2035.14C634.975 1943.24 632.833 1945.37 671.303 1917.59C681.988 2026.59 705.503 2086.43 733.287 2120.63C743.973 2060.78 776.031 2037.28 776.031 2037.28C776.031 2037.28 797.404 2167.65 859.383 2257.41C872.207 2178.34 887.165 2165.51 887.165 2165.51C887.165 2165.51 1135.08 2490.37 1767.7 2456.17C2400.31 2421.98 2579.84 1985.98 2579.84 1985.98C2579.84 1985.98 2592.66 2041.56 2592.66 2062.93C2639.68 1994.54 2669.6 1853.48 2669.6 1853.48C2669.6 1853.48 2703.8 1934.69 2695.25 1985.98C2733.72 1921.86 2742.26 1763.72 2725.17 1691.05C2785.01 1755.17 2836.31 1776.54 2836.31 1776.54C2836.31 1776.54 2703.79 1545.72 2699.52 1507.25C2695.25 1468.78 2793.56 1562.81 2793.56 1562.81C2793.56 1562.81 2731.97 1460.26 2716.62 1432.45C2659.41 1328.78 2605.12 1139.43 2528.87 1011.72C2592.86 970.123 2850.88 788.773 2843.33 573.68C2834.72 328.21 2786.46 176.103 2827.99 51.0384C2836.43 25.6346 2824.3 15.0816 2798.72 15.367V15.367Z" stroke="black" stroke-width="30.7203" stroke-linecap="round" stroke-linejoin="round"/>
        <path d="M1166.07 3775.9C1091.27 3651.94 1054.81 3567.11 1049.59 3511.42C1044.78 3460.13 1038.37 3398.15 1075.24 3428.61C1085.93 3383.72 1083.79 3358.08 1111.57 3370.9C1139.36 3383.72 1158.59 3411.51 1158.59 3411.51C1158.59 3411.51 1154.32 3347.39 1182.1 3368.76C1233.19 3399.52 1324.44 3688.35 1313.81 3770.16C1302.14 3860.06 1231.96 3879.6 1166.07 3775.9V3775.9Z" fill="url(#paint3_linear_35_87)" stroke="black" stroke-width="23.0402"/>
        <path d="M2556.53 3668.47C2609.53 3533.74 2631.28 3444 2627.1 3388.22C2623.26 3336.85 2619.21 3274.67 2587.96 3310.87C2569.91 3268.41 2567.73 3242.76 2542.48 3260.06C2517.23 3277.35 2502.92 3307.96 2502.92 3307.96C2502.92 3307.96 2496.4 3244.03 2472.59 3269.75C2427.37 3308.62 2385.74 3608.66 2409.91 3687.53C2436.47 3774.21 2508.93 3781.73 2556.53 3668.47V3668.47Z" fill="url(#paint4_linear_35_87)" stroke="black" stroke-width="23.0402"/>
        <path d="M1562.1 3063.57C1524.1 3059.67 1486.65 3074.05 1455.28 3094.55C1440.72 3104.25 1426.76 3115.03 1414.48 3127.52C1438.67 3156.34 1465.72 3183.02 1496.29 3205.05C1502.66 3208.89 1510.79 3214.39 1518.35 3210.58C1525.16 3205.3 1523.61 3195.64 1524.22 3188.07C1530.46 3197.06 1541.84 3202.2 1552.66 3201.65C1562.44 3199.92 1561.73 3187.56 1560.44 3180.1C1559.69 3173.07 1556.6 3166.42 1556.17 3159.41C1562.43 3160.56 1568.02 3169.72 1575.98 3167.49C1584.76 3164.88 1580.38 3153.58 1580.28 3146.94C1575.9 3118.83 1568.65 3091.24 1562.1 3063.57V3063.57Z" fill="url(#paint5_linear_35_87)"/>
        <path d="M1517.64 2663.48C1517.64 2663.48 1517.64 2663.48 1517.67 2663.48C1520.97 2664.02 1526.42 2740.85 1532.65 2874.63C1534.91 2900.48 1540.5 2925.66 1547.39 2954.9C1554.58 2985.32 1562.49 3014.75 1571.38 3047.9C1578.08 3072.85 1585.59 3099.84 1591.55 3126.74C1593.42 3135.07 1595.31 3143.95 1596.25 3153.37C1596.57 3156.1 1596.76 3159.46 1596.39 3163.39C1597.28 3165.14 1595.58 3169.34 1590.43 3175.07V3175.07C1580.39 3180.9 1569.4 3179.92 1561.47 3173.37V3173.37C1559.01 3171.29 1557.89 3169.89 1557.57 3169.88C1559.13 3171.17 1561.37 3170.83 1565.41 3169.42H1565.41C1567.07 3167.09 1567.82 3166.38 1567.48 3165.67C1567.51 3167 1568.74 3169.46 1569.97 3173.33V3173.33C1574.02 3183.37 1572.31 3196.44 1561.97 3206.72V3206.72C1550.18 3212.97 1538.44 3211.07 1531.04 3204.36V3204.36C1528.22 3202.07 1526.49 3200.26 1525.34 3199.66H1525.34C1524.94 3200.04 1525.8 3199.59 1528.79 3199.47V3199.47C1531.49 3196.56 1532.68 3197.17 1530.81 3199.19C1530.12 3201.61 1529.26 3205.67 1526.9 3210.83C1526.22 3212.23 1525.38 3213.53 1524.39 3214.71C1520.87 3218.89 1515.47 3221.56 1508.72 3222C1497.43 3220.63 1489.74 3215.57 1485.08 3211.33C1426.38 3166.73 1381.27 3109.36 1347.87 3050.36C1312.57 2987.93 1289.98 2924.54 1275.1 2870.05C1253.47 2738.94 1243.01 2664.06 1246.21 2663.48C1249.41 2662.9 1265.97 2736.63 1291.73 2866.13V2866.13C1308.09 2918.97 1331.53 2980.15 1366.49 3039.63C1399.64 3096.09 1443.21 3150.79 1498.89 3192.79C1504.65 3196.18 1508.06 3199.72 1509.67 3198.89C1507.79 3199.52 1506.9 3199.67 1506.47 3200.08C1506.35 3200.2 1506.26 3200.33 1506.2 3200.5C1506.94 3199.44 1507.34 3196.53 1508.73 3192.3C1508.67 3188.65 1512.14 3183.04 1520.37 3177.93V3177.93C1527.93 3176.03 1533.99 3177.15 1537.72 3180.15H1537.72C1541.56 3182.71 1544.07 3185.1 1545.79 3186.59V3186.59C1547.9 3187.76 1550.06 3189.47 1548.1 3188.32H1548.1C1549.89 3189.46 1549.02 3184.96 1548.23 3180.69C1547.29 3178.15 1545.76 3174.34 1544.81 3168.99C1543.68 3162.9 1546.08 3156.29 1552.14 3150.81V3150.81C1559.11 3147.32 1565.42 3147.49 1569.99 3150.72V3150.72C1573.53 3153.21 1575.53 3155.29 1576.51 3156.24C1576.77 3156.9 1578.18 3157.59 1576.82 3156.92C1573.94 3160.94 1572.68 3161.93 1573.89 3160.86C1574.1 3159.67 1573.92 3157.84 1573.76 3155.45C1573.11 3147.76 1571.43 3139.75 1569.7 3131.46C1564.19 3105.34 1557.05 3078.42 1550.71 3053.27C1542.36 3020.15 1534.87 2989.98 1528.34 2959.17C1522.03 2929.53 1516.99 2902.93 1515.44 2875.5C1513.55 2741.07 1514.34 2664.11 1517.6 2663.48C1517.63 2663.47 1517.63 2663.48 1517.63 2663.48L1517.64 2663.48Z" fill="black"/>
        <path d="M1565.2 3063.14C1564.91 3065.73 1555.96 3066.2 1541.37 3069.17C1525.48 3072.41 1508.74 3077.63 1488.07 3087.53C1480.4 3091.19 1473 3095.12 1465.92 3099.1C1438.07 3119.19 1417.43 3130.85 1415.06 3127.79C1412.69 3124.73 1429.23 3107.59 1456.25 3085.16C1463.45 3080.3 1471.31 3075.72 1479.69 3071.69C1501.77 3061.09 1522.77 3056.66 1540.11 3056.79C1556.81 3056.91 1565.43 3061.05 1565.2 3063.14V3063.14Z" fill="black"/>
        <path d="M2047.1 3038.3C2015.08 3027.25 1989.62 3002.03 1971.75 2973.82C1956.72 2949.74 1945.57 2923.17 1939.25 2895.65C1918.3 2922.05 1897.04 2948.41 1879.78 2977.47C1875.73 2983.29 1871.18 2994.54 1881.77 2996.72C1891.18 2999.42 1900.88 2996.43 1910.31 2997.32C1906.93 3001.57 1900.26 3003.74 1896.41 3008.26C1889.29 3014.81 1882.1 3026.28 1888.65 3035.81C1897.4 3046.28 1912.16 3048.19 1924.86 3048.06C1933.1 3048.55 1920.45 3056.52 1921.15 3061.12C1917.09 3068.66 1918.61 3081.73 1929.47 3082C1942.49 3082.82 1954.68 3077.29 1966.93 3073.96C1994.86 3064.92 2021.6 3052.63 2047.1 3038.3V3038.3Z" fill="url(#paint6_linear_35_87)"/>
        <path d="M2136.43 2590.6C2136.43 2590.6 2136.43 2590.6 2136.46 2590.61C2138.25 2591.35 2133.68 2615.94 2123.09 2662.55C2113.97 2692.52 2095.65 2744.12 2055.96 2781.07C2017.94 2816.07 1984.67 2855.47 1945.22 2905.25C1930.26 2924.17 1915.03 2943.97 1901.15 2964.57C1896.69 2971.21 1892.4 2977.73 1888.9 2984.37C1887.31 2989.65 1884.88 2991 1886.02 2988.64C1885.41 2987.11 1884.89 2986.63 1883.18 2985.7C1883.88 2986.16 1886.21 2985.54 1889.98 2985.28C1893.03 2984.76 1897.54 2984.08 1903.47 2984.6C1910.57 2985.44 1916.49 2990.55 1919.26 2999.16C1919.62 3007.51 1917.02 3013.57 1913.15 3016.69C1909.61 3020.25 1906.45 3022.49 1904.48 3024.27C1901.57 3026.15 1900.4 3031.06 1902.55 3033.46C1899.98 3033.96 1903.61 3032.95 1908.88 3033.72C1909.75 3033.84 1910.66 3034.02 1911.6 3034.26C1914.77 3034.15 1919.24 3034.1 1924.84 3035.26C1930.94 3036.4 1936.38 3041.11 1939.46 3048.98C1940.49 3058.56 1938.28 3064.62 1936.14 3066.9C1934.09 3071.33 1932.13 3074.45 1931.58 3076.77C1932.68 3076.62 1931.02 3075.79 1927.76 3071.11C1927.93 3072.71 1932.65 3070.31 1940.05 3069.84C2060.52 3040.57 2153.12 2954.06 2211.42 2887.43C2275.45 2796.57 2313.04 2746.24 2315.58 2747.99C2318.13 2749.74 2285.39 2803.44 2224.48 2897.39C2167.72 2967.95 2073.72 3059.09 1945.44 3091.98C1939.78 3094.05 1930.07 3095.88 1918.09 3091.52C1909.3 3084.14 1906.86 3075.86 1909.67 3069.89C1911.51 3064.11 1913.88 3059.89 1915.46 3056.71C1916.37 3052.55 1918.09 3051.64 1917.32 3054.22C1919 3056.69 1919.32 3057.64 1919.99 3057.49C1918.66 3056.99 1915.95 3057.25 1912.03 3057.13C1910.91 3057.36 1909.69 3057.5 1908.41 3057.54C1900.62 3057.76 1890.34 3054.11 1882.13 3043.31C1876.61 3030.37 1879.45 3016.48 1889 3007.16C1892.37 3004.14 1895.17 3002.25 1896.61 3000.66C1896.82 2999.58 1897.47 2999.97 1896.83 3002.48C1898.68 3005.68 1899.46 3006.96 1901.14 3007.12C1899.94 3006.74 1897.3 3007.4 1893.29 3007.76C1889.92 3008.39 1884.94 3008.85 1878.59 3007.7C1870.78 3005.36 1865.44 2999.58 1863.79 2991.91C1863.56 2981.4 1866.8 2975.32 1869.05 2973.44C1873.27 2965.66 1878.02 2958.53 1882.67 2951.79C1897.28 2930.57 1913.07 2910.54 1928.48 2891.68C1968.69 2842.39 2004.17 2802.5 2044.22 2767.98C2081.07 2736.75 2101.47 2687.54 2112.56 2659.14C2126.21 2614.17 2134.44 2590.46 2136.39 2590.6C2136.42 2590.61 2136.42 2590.61 2136.42 2590.61L2136.43 2590.6Z" fill="black"/>
        <path d="M2038.8 3040.8C2037.48 3043.01 2027.68 3040.96 2012.89 3031.42C1997.72 3021.64 1980.73 3005.97 1966.44 2984.73C1959.64 2974.61 1954.07 2964.16 1949.75 2953.83C1940.62 2921.19 1937.42 2899.28 1941.52 2898.01C1945.61 2896.74 1956.14 2916.23 1967.96 2946.88C1972.82 2955.89 1978.21 2964.93 1984.35 2974.02C2009.03 3010.53 2041.64 3036.08 2038.8 3040.8V3040.8Z" fill="black"/>
        <path d="M1643 3039.5V3096H1697.5V3039.5C1697.5 3039.5 1697.5 2974.5 1764.5 2974.5C1831.5 2974.5 1823.5 3039.5 1823.5 3039.5V3096H1874V3039.5C1869.33 3003.67 1850 2922 1764.5 2922C1678.44 2922 1643.67 3001 1643 3039.5Z" fill="#C4C4C4" stroke="black" stroke-width="14"/>
        <rect x="1604.5" y="3089.5" width="333" height="269" fill="#F7CF45" stroke="black" stroke-width="15"/>
    </g>
    <defs>
        <filter id="filter0_f_35_87" x="951.462" y="1473.2" width="199.468" height="216.64" filterUnits="userSpaceOnUse" color-interpolation-filters="sRGB">
            <feFlood flood-opacity="0" result="BackgroundImageFix"/>
            <feBlend mode="normal" in="SourceGraphic" in2="BackgroundImageFix" result="shape"/>
            <feGaussianBlur stdDeviation="10.3119" result="effect1_foregroundBlur_35_87"/>
        </filter>
        <filter id="filter1_f_35_87" x="1135.42" y="1676.67" width="94.5019" height="96.079" filterUnits="userSpaceOnUse" color-interpolation-filters="sRGB">
            <feFlood flood-opacity="0" result="BackgroundImageFix"/>
            <feBlend mode="normal" in="SourceGraphic" in2="BackgroundImageFix" result="shape"/>
            <feGaussianBlur stdDeviation="4.72782" result="effect1_foregroundBlur_35_87"/>
        </filter>
        <filter id="filter2_f_35_87" x="2224.19" y="1317.8" width="199.468" height="216.64" filterUnits="userSpaceOnUse" color-interpolation-filters="sRGB">
            <feFlood flood-opacity="0" result="BackgroundImageFix"/>
            <feBlend mode="normal" in="SourceGraphic" in2="BackgroundImageFix" result="shape"/>
            <feGaussianBlur stdDeviation="10.3119" result="effect1_foregroundBlur_35_87"/>
        </filter>
        <filter id="filter3_f_35_87" x="2145.2" y="1521.27" width="94.5019" height="96.079" filterUnits="userSpaceOnUse" color-interpolation-filters="sRGB">
            <feFlood flood-opacity="0" result="BackgroundImageFix"/>
            <feBlend mode="normal" in="SourceGraphic" in2="BackgroundImageFix" result="shape"/>
            <feGaussianBlur stdDeviation="4.72782" result="effect1_foregroundBlur_35_87"/>
        </filter>
        <filter id="filter4_f_35_87" x="1781.61" y="1777.56" width="58.7359" height="38.5579" filterUnits="userSpaceOnUse" color-interpolation-filters="sRGB">
            <feFlood flood-opacity="0" result="BackgroundImageFix"/>
            <feBlend mode="normal" in="SourceGraphic" in2="BackgroundImageFix" result="shape"/>
            <feGaussianBlur stdDeviation="2.52106" result="effect1_foregroundBlur_35_87"/>
        </filter>
        <radialGradient id="paint0_radial_35_87" cx="0" cy="0" r="1" gradientUnits="userSpaceOnUse" gradientTransform="translate(1760.99 1829.81) rotate(-0.182296) scale(306.481 287.176)">
            <stop stop-color="#CC3100"/>
            <stop offset="1" stop-color="#DE6B00"/>
        </radialGradient>
        <radialGradient id="paint1_radial_35_87" cx="0" cy="0" r="1" gradientUnits="userSpaceOnUse" gradientTransform="translate(2373.33 907.327) rotate(63.7909) scale(608.272 241.85)">
            <stop stop-color="#FF927A"/>
            <stop offset="1" stop-color="#F7C199"/>
        </radialGradient>
        <radialGradient id="paint2_radial_35_87" cx="0" cy="0" r="1" gradientUnits="userSpaceOnUse" gradientTransform="translate(785.008 1066.98) rotate(-157.738) scale(359.552 439.05)">
            <stop stop-color="#FF927A"/>
            <stop offset="1" stop-color="#F7C199"/>
        </radialGradient>
        <linearGradient id="paint3_linear_35_87" x1="1257.34" y1="3813.75" x2="1136.44" y2="3481.28" gradientUnits="userSpaceOnUse">
            <stop stop-color="#F79041"/>
            <stop offset="1" stop-color="#F7C199"/>
        </linearGradient>
        <linearGradient id="paint4_linear_35_87" x1="2481.02" y1="3700.43" x2="2528.01" y2="3388.4" gradientUnits="userSpaceOnUse">
            <stop stop-color="#F79041"/>
            <stop offset="1" stop-color="#F7C199"/>
        </linearGradient>
        <linearGradient id="paint5_linear_35_87" x1="1465.89" y1="3071.73" x2="1527.85" y2="3160.89" gradientUnits="userSpaceOnUse">
            <stop stop-color="#F79041"/>
            <stop offset="1" stop-color="#F7C199"/>
        </linearGradient>
        <linearGradient id="paint6_linear_35_87" x1="1978.5" y1="2970.47" x2="1922.1" y2="3021.61" gradientUnits="userSpaceOnUse">
            <stop stop-color="#F79041"/>
            <stop offset="1" stop-color="#F7C199"/>
        </linearGradient>
        <clipPath id="clip0_35_87">
            <rect width="2858.86" height="3857.48" fill="white"/>
        </clipPath>
    </defs>
</svg>
