<svg width="2959" height="3706" viewBox="0 0 2959 3706" fill="none" xmlns="http://www.w3.org/2000/svg">
    <path opacity="0.997" d="M316.789 2931.12C315.488 2929.29 342.101 2913.78 372.838 2868.23C384.205 2851.41 395.682 2829.37 402.48 2802.88C407.785 2782.32 410.27 2759.1 408.909 2733.66C407.69 2710.88 403.393 2686.99 395.976 2661.83V2661.83C382.3 2615.37 359.257 2568.62 326.569 2519.31C298.838 2477.58 265.182 2435.96 225.052 2395.73C208.608 2379.25 191.087 2363.05 172.444 2347.71C157.209 2335.18 141.225 2323.1 124.379 2312.5C111.765 2304.63 99.0872 2297.4 86.1465 2292.93C81.4965 2291.35 77.2099 2290.09 73.3454 2289.68C70.3614 2289.5 68.2282 2289.3 67.36 2289.79C67.103 2290.02 66.986 2289.93 67.7268 2289.46C67.8742 2288.79 67.916 2289.67 67.402 2291.25V2291.25C66.8491 2293.83 67.2734 2297.48 67.8385 2301.99C68.763 2308.14 70.6571 2314.59 72.9592 2321.43V2321.43C79.957 2342.07 90.3586 2362.14 101.941 2382.98C118.976 2413.51 138.274 2443.25 159.063 2473.54C239.086 2574.41 349.687 2660.96 481.224 2708.82C588.471 2748.15 706.505 2762.42 824.643 2753.29C866.817 2749.58 908.547 2739.08 939.471 2714.96C946.162 2709.88 952.392 2704.14 958.034 2697.88C971.642 2682.77 981.817 2664.63 986.785 2645.36C993.4 2620.4 992.269 2593.07 983.767 2568.69C975.601 2545.97 961.347 2525.28 942.318 2513.53C918.401 2498.17 890.181 2489.01 861.448 2485.7C828.124 2482.05 793.861 2487.36 765.252 2502.39C748.435 2511.06 733.146 2523.06 719.946 2537.05C703.762 2554.16 690.691 2574.62 680.006 2596.35C647.54 2662.01 637.627 2738.34 633.783 2811.39C631.492 2858.76 639.748 2905.63 657.74 2947.16C674.348 2985.79 699.212 3020.25 727.85 3049.36C755.245 3077.18 786.301 3100.41 818.625 3119.3C845.995 3135.23 873.674 3148.13 901.953 3156.71C916.938 3161.58 935.105 3161.55 953.657 3162.06C981.591 3162.53 1010.48 3161.41 1037.44 3160.48C1120.97 3157.55 1186.59 3155.58 1255.49 3159.41C1258.01 3159.67 1260.93 3159.01 1263.71 3157.85C1267.08 3156.47 1270.42 3153.91 1273.73 3150.93C1282.8 3142.7 1289.74 3131.12 1296.02 3119.67C1304.49 3103.94 1311.23 3087.27 1316.96 3071.71C1324.16 3052.16 1330.13 3032.79 1335.12 3015.45C1347.23 2973.37 1356.5 2932.2 1361.78 2909.03C1368.62 2876.64 1372.92 2860.42 1374.61 2860.7C1376.3 2860.97 1375.37 2877.73 1371.82 2910.71V2910.71C1368.73 2935.64 1362.81 2975.3 1352.55 3019.95C1348.43 3037.86 1343.3 3057.89 1336.77 3078.48C1331.6 3094.81 1325.21 3112.65 1316.67 3130.22C1310.63 3142.89 1302.73 3156.75 1290.99 3168.72C1286.56 3173.24 1281.1 3177.52 1274.47 3180.82C1268.55 3183.74 1261.74 3185.39 1254.47 3185.26C1186.38 3183.73 1122.9 3187.53 1038.93 3192.43C1012.03 3194.02 982.698 3195.8 953.459 3195.94C935.016 3196.23 913.838 3196.25 892.086 3190.34C860.467 3181.34 829.909 3167.88 800.35 3151.26C765.137 3131.53 731.042 3106.84 700.477 3076.77C668.369 3045.23 640.218 3007.16 620.629 2963.48C599.562 2916.19 589.495 2863.25 591.598 2809.55C594.222 2733.83 604.742 2651.95 640.214 2577.11C652.15 2552.07 667.567 2527.86 687.265 2506.54C703.474 2489.04 722.685 2473.88 744.379 2462.43C781.862 2442.93 824.765 2435.76 866.445 2440.38C901.541 2444.1 936.315 2455.43 966.972 2474.79C996.013 2493.63 1016.6 2522.16 1027.31 2553.48V2553.48C1038.91 2586.65 1040.44 2622.98 1031.5 2657.13C1024.34 2683.95 1010.73 2708.48 992.439 2728.83C984.857 2737.27 976.473 2744.98 967.414 2751.83C926.027 2782.52 876.166 2796.04 828.18 2799.26C703.899 2808.78 579.433 2793.06 465.731 2750.76C325.525 2698.22 209.253 2605.43 125.942 2497.69C104.813 2466.19 84.9637 2434.73 67.2313 2402.07C55.3916 2380.34 44.3348 2357.9 36.3566 2333.64V2333.64C33.6731 2325.54 31.3734 2316.86 30.0211 2307.57C28.9492 2300.97 28.6637 2293.32 29.9722 2284.91C30.8048 2278.53 33.7282 2271.54 39.1215 2264.8C44.6302 2258.8 51.1436 2255 57.9177 2253.4C65.6381 2251.65 72.5521 2251.65 78.3106 2252.64C85.8795 2253.76 92.7209 2255.75 98.8267 2258.08C115.658 2264.44 130.588 2273.11 144.014 2282.01C162.336 2294.05 179.275 2307.32 195.03 2320.84C214.373 2337.42 232.368 2354.74 249.101 2372.26C289.906 2414.94 323.84 2459.09 351.487 2503.24C384.143 2555.26 406.809 2605.59 419.621 2655.32C426.578 2682.37 430.13 2708.29 430.416 2732.98C430.737 2760.6 426.738 2785.78 419.794 2807.86C410.802 2836.34 396.954 2859.18 383.542 2876.09C346.533 2922.69 316.167 2930.24 316.792 2931.12L316.789 2931.12Z" fill="black"/>
    <path d="M1168.86 2147.45C1168.86 2147.45 1174.91 2189.77 1126.55 2316.71C1078.19 2443.66 1075.16 2733.81 1050.98 2797.29C1026.8 2860.76 893.814 3072.33 924.039 3259.73C954.264 3447.12 1102.37 3713.1 1283.71 3646.6C1465.06 3580.11 1428.79 3592.2 1428.79 3592.2C1428.79 3592.2 1954.71 3707.05 2302.29 3507.57C2380.88 3543.84 2429.23 3574.06 2547.11 3504.55C2664.99 3435.03 2725.44 3244.61 2722.41 3114.65C2719.39 2984.68 2532 2700.57 2510.84 2640.12C2489.68 2579.67 2411.1 2283.46 2371.81 2159.54C2332.51 2035.62 2362.74 2014.46 2362.74 2014.46L1168.86 2147.45Z" fill="#DE5700" stroke="black" stroke-width="46.0804"/>
    <path d="M2910.99 15.367C2810.67 16.4868 2399.36 32.4575 2314.62 125.748C2227.59 221.545 2173.88 368.999 2157.21 419.478C2059.12 356.561 1915.41 355.12 1915.41 355.12C1915.41 355.12 2000.05 327.92 2090.72 303.741C1933.55 249.336 1731.05 297.692 1731.05 297.692C1731.05 297.692 1816.06 254.536 1897.66 181.997C1770.72 215.244 1628.28 231.198 1537.61 285.603C1534.34 256.983 1479.51 292.115 1564.25 174.208C1331.52 231.635 1168.86 376.283 1069.11 460.912C1081.2 385.351 1085.97 396.401 1122.24 311.772C984.85 406.889 945.872 455.871 915.959 529.819C884.785 472.227 802.353 331.66 698.786 248.138C566.279 141.277 -48.0541 314.703 20.3368 442.936C88.7277 571.169 253.044 550.321 295.788 819.61C338.532 1088.9 643.216 1098.74 643.216 1098.74C645.435 1097.95 647.639 1097.05 649.836 1096.13C627.255 1167.82 607.109 1272.5 591.923 1444.97C519.258 1553.97 513.208 1597.36 504.66 1637.96C575.188 1603.77 583.374 1556.11 634.667 1543.29C589.785 1618.09 587.651 1720.68 606.886 1883.1C643.218 1791.2 641.076 1793.34 679.546 1765.56C690.232 1874.55 713.747 1934.4 741.53 1968.59C752.217 1908.75 784.275 1885.25 784.275 1885.25C784.275 1885.25 805.648 2015.62 867.627 2105.38C880.451 2026.3 895.409 2013.48 895.409 2013.48C895.409 2013.48 1143.32 2338.33 1775.94 2304.14C2408.55 2269.94 2588.08 1833.95 2588.08 1833.95C2588.08 1833.95 2600.91 1889.52 2600.91 1910.89C2647.93 1842.5 2677.85 1701.44 2677.85 1701.44C2677.85 1701.44 2712.04 1782.65 2703.49 1833.95C2741.96 1769.83 2750.51 1611.68 2733.41 1539.02C2793.25 1603.13 2844.55 1624.51 2844.55 1624.51C2844.55 1624.51 2712.04 1393.69 2707.76 1355.22C2703.49 1316.75 2801.81 1410.78 2801.81 1410.78C2801.81 1410.78 2740.21 1308.23 2724.86 1280.41C2667.66 1176.75 2613.36 987.392 2537.11 859.689C2601.1 818.088 2795.1 718.757 2787.56 503.664C2778.95 258.194 2898.72 176.103 2940.26 51.0386C2948.69 25.6348 2936.56 15.0816 2910.99 15.367V15.367Z" fill="#DE5700"/>
    <path d="M1168.86 2147.45C1168.86 2147.45 1174.91 2189.77 1126.55 2316.71C1078.19 2443.66 1075.16 2733.81 1050.98 2797.29C1026.8 2860.76 893.814 3072.33 924.039 3259.73C954.264 3447.12 1102.37 3713.1 1283.71 3646.6C1465.06 3580.11 1428.79 3592.2 1428.79 3592.2C1428.79 3592.2 1954.71 3707.05 2302.29 3507.57C2380.88 3543.84 2429.23 3574.06 2547.11 3504.55C2664.99 3435.03 2725.44 3244.61 2722.41 3114.65C2719.39 2984.68 2532 2700.57 2510.84 2640.12C2489.68 2579.67 2411.1 2283.46 2371.81 2159.54C2332.51 2035.62 2362.74 2014.46 2362.74 2014.46L1168.86 2147.45Z" fill="#DE5700"/>
    <path d="M1948.55 2060.6L1565.32 2103.28C1414.45 2137.89 1297.2 2180.18 1297.2 2180.18C1297.2 2180.18 1228.81 2594.8 1241.64 2710.21C1254.46 2825.62 1181.79 3000.87 1220.26 3176.12C1253.86 3329.16 1320.07 3491.98 1566.89 3613.34C1718.29 3630.31 1968.48 3639.97 2185.07 3561.45C2288.91 3477.48 2362.98 3368.43 2391.46 3282.98C2455.58 3090.63 2378.64 2757.23 2348.72 2688.84C2318.79 2620.45 2352.99 2406.72 2186.29 2163.08C2140.34 2095.93 2052.15 2067.14 1948.55 2060.6V2060.6Z" fill="#F7EDE9"/>
    <path opacity="0.6" d="M2910.99 15.367C2810.67 16.4868 2399.36 32.4575 2314.62 125.748C2227.59 221.545 2173.88 368.999 2157.21 419.478C2059.12 356.561 1915.41 355.12 1915.41 355.12C1915.41 355.12 2000.05 327.92 2090.72 303.741C1933.55 249.336 1731.05 297.692 1731.05 297.692C1731.05 297.692 1816.06 254.536 1897.66 181.997C1770.72 215.244 1628.28 231.198 1537.61 285.603C1538.99 259.97 1477.23 293.202 1564.25 174.208C1331.52 231.635 1168.86 376.283 1069.11 460.912C1081.2 385.351 1085.97 396.401 1122.24 311.772C984.85 406.889 945.872 455.871 915.959 529.819C884.785 472.227 802.353 331.66 698.786 248.138C566.279 141.277 -48.0541 314.703 20.3368 442.936C88.7277 571.169 253.044 550.321 295.788 819.61C338.532 1088.9 643.216 1098.74 643.216 1098.74C645.435 1097.95 647.639 1097.05 649.836 1096.13C627.255 1167.82 607.109 1272.5 591.923 1444.97C519.258 1553.97 514.209 1598.36 505.661 1638.96C576.188 1604.77 583.374 1556.11 634.667 1543.29C589.785 1618.09 587.651 1720.68 606.886 1883.1C643.218 1791.2 641.076 1793.34 679.546 1765.56C690.232 1874.55 713.747 1934.4 741.53 1968.59C752.217 1908.75 784.275 1885.25 784.275 1885.25C784.275 1885.25 805.648 2015.62 867.627 2105.38C880.451 2026.3 895.409 2013.48 895.409 2013.48C895.409 2013.48 1143.32 2338.33 1775.94 2304.14C2408.55 2269.94 2588.08 1833.95 2588.08 1833.95C2588.08 1833.95 2600.91 1889.52 2600.91 1910.89C2647.93 1842.5 2677.85 1701.44 2677.85 1701.44C2677.85 1701.44 2712.04 1782.65 2703.49 1833.95C2741.96 1769.83 2750.51 1611.68 2733.41 1539.02C2793.25 1603.13 2844.55 1624.51 2844.55 1624.51C2844.55 1624.51 2712.04 1393.69 2707.76 1355.22C2703.49 1316.75 2801.81 1410.78 2801.81 1410.78C2801.81 1410.78 2740.21 1308.23 2724.86 1280.41C2667.66 1176.75 2613.36 987.392 2537.11 859.689C2601.1 818.088 2801.11 718.757 2793.56 503.664C2784.96 258.194 2898.72 176.103 2940.26 51.0386C2948.69 25.6348 2936.56 15.0816 2910.99 15.367V15.367Z" fill="url(#paint0_radial_28_46)"/>
    <path d="M1793.93 1625.72C1692.31 1626.01 1639.62 1670.45 1602.82 1690.75C1443.85 1877.11 1124.01 1774.44 950.98 1898.07C921.059 1919.44 879.383 2034.85 879.383 2034.85L881.565 2043.13C889.307 2018.8 895.409 2013.48 895.409 2013.48C895.409 2013.48 1143.32 2338.33 1775.94 2304.14C2286.01 2276.56 2501.41 1987.9 2565.77 1877.06C2559.76 1821.08 2542.31 1746.84 2491.91 1744.19C2410.7 1739.91 2075.15 1712.12 1972.56 1656.56C1930.89 1633.98 1863.46 1625.52 1793.93 1625.72V1625.72Z" fill="#F7EDE9"/>
    <path d="M1670.59 1677.46C1653.7 1635.82 1858.76 1600.28 1862.52 1639.68C1866.61 1682.55 1812.65 1760.58 1785.45 1765.11C1758.24 1769.64 1688.63 1721.93 1670.59 1677.46V1677.46Z" fill="black"/>
    <g opacity="0.8" filter="url(#filter0_f_28_46)">
        <path d="M1795.15 1641.88C1797.06 1634.19 1809.39 1629.26 1822.69 1630.88C1835.98 1632.49 1845.21 1640.04 1843.29 1647.73C1841.38 1655.43 1829.05 1660.35 1815.75 1658.74C1802.45 1657.12 1793.23 1649.57 1795.15 1641.88Z" fill="#BEBEBE"/>
    </g>
    <path opacity="0.8" d="M1797.09 1642.11C1798.83 1635.16 1810.16 1630.73 1822.38 1632.22C1834.6 1633.7 1843.1 1640.55 1841.35 1647.5C1839.61 1654.46 1828.28 1658.89 1816.06 1657.4C1803.83 1655.91 1795.34 1649.07 1797.09 1642.11Z" fill="#DEDEDE"/>
    <path d="M2839.03 126.979C2750.83 205.43 2490.04 199.914 2389.32 331.49C2311.81 432.749 2293.15 545.208 2382.91 699.087C2429.76 779.407 2491.15 828.243 2540.37 857.529C2656.85 814.594 2791.93 737.805 2791.56 525.669C2791.4 431.967 2868.09 265.271 2862.97 214.318C2865.39 180.456 2897.45 75.0209 2839.03 126.979V126.979Z" fill="url(#paint1_radial_28_46)"/>
    <path d="M135.341 546.877C204.087 610.736 275.71 693.122 295.788 819.61C335.05 1066.97 582.025 1072.54 635.159 1095.33C678.647 1047.5 747.7 954.793 774.947 808.594C815.021 593.571 743.572 440.231 630.27 356.086C544.242 292.197 465.345 399.217 373.009 410.597C226.391 428.666 137.346 442.883 104.936 460.272C73.1798 477.31 100.208 513.662 135.341 546.877V546.877Z" fill="url(#paint2_radial_28_46)"/>
    <path d="M2910.99 15.367C2810.67 16.4868 2399.36 32.4575 2314.62 125.748C2227.59 221.545 2173.88 368.999 2157.21 419.478C2059.12 356.561 1915.41 355.12 1915.41 355.12C1915.41 355.12 2000.05 327.92 2090.72 303.741C1933.55 249.336 1731.05 297.692 1731.05 297.692C1731.05 297.692 1816.06 254.536 1897.66 181.997C1770.72 215.244 1628.28 231.198 1537.61 285.603C1544.1 286.111 1479.62 292.085 1564.25 174.208C1331.52 231.635 1168.86 376.283 1069.11 460.912C1081.2 385.351 1085.97 396.401 1122.24 311.772C984.85 406.889 945.872 455.871 915.959 529.819C884.785 472.227 802.353 331.66 698.786 248.138C566.279 141.277 -48.0541 314.703 20.3368 442.936C88.7277 571.169 253.044 550.321 295.788 819.61C338.532 1088.9 643.216 1098.74 643.216 1098.74C645.435 1097.95 647.639 1097.05 649.836 1096.13C627.255 1167.82 607.109 1272.5 591.923 1444.97C519.258 1553.97 513.208 1598.36 504.66 1638.96C575.188 1604.77 583.374 1556.11 634.667 1543.29C589.785 1618.09 587.651 1720.68 606.886 1883.1C643.218 1791.2 641.076 1793.34 679.546 1765.56C690.232 1874.55 713.747 1934.4 741.53 1968.59C752.217 1908.75 784.275 1885.25 784.275 1885.25C784.275 1885.25 805.648 2015.62 867.627 2105.38C880.451 2026.3 895.409 2013.48 895.409 2013.48C895.409 2013.48 1143.32 2338.33 1775.94 2304.14C2408.55 2269.94 2588.08 1833.95 2588.08 1833.95C2588.08 1833.95 2600.91 1889.52 2600.91 1910.89C2647.93 1842.5 2677.85 1701.44 2677.85 1701.44C2677.85 1701.44 2712.04 1782.65 2703.49 1833.95C2741.96 1769.83 2750.51 1611.68 2733.41 1539.02C2793.25 1603.13 2844.55 1624.51 2844.55 1624.51C2844.55 1624.51 2712.04 1393.69 2707.76 1355.22C2703.49 1316.75 2801.81 1410.78 2801.81 1410.78C2801.81 1410.78 2740.21 1308.23 2724.86 1280.41C2667.66 1176.75 2613.36 987.392 2537.11 859.689C2601.1 818.088 2797.11 782.772 2789.56 567.679C2780.95 322.209 2898.72 176.103 2940.26 51.0386C2948.69 25.6348 2936.56 15.0816 2910.99 15.367V15.367Z" stroke="black" stroke-width="30.7203" stroke-linecap="round" stroke-linejoin="round"/>
    <path d="M1174.32 3623.87C1099.51 3499.91 1063.06 3415.08 1057.84 3359.39C1053.03 3308.09 1046.62 3246.12 1083.48 3276.57C1094.17 3231.69 1092.03 3206.04 1119.82 3218.87C1147.6 3231.69 1166.83 3259.47 1166.83 3259.47C1166.83 3259.47 1162.56 3195.36 1190.34 3216.73C1241.43 3247.48 1332.69 3536.32 1322.06 3618.13C1310.38 3708.02 1240.21 3727.57 1174.32 3623.87V3623.87Z" fill="url(#paint3_linear_28_46)" stroke="black" stroke-width="23.0402"/>
    <path d="M2564.78 3516.43C2617.78 3381.7 2639.52 3291.97 2635.35 3236.19C2631.5 3184.81 2627.45 3122.63 2596.2 3158.83C2578.16 3116.37 2575.97 3090.73 2550.72 3108.02C2525.48 3125.31 2511.17 3155.92 2511.17 3155.92C2511.17 3155.92 2504.65 3092 2480.83 3117.72C2435.61 3156.59 2393.99 3456.62 2418.16 3535.5C2444.71 3622.17 2517.17 3629.7 2564.78 3516.43V3516.43Z" fill="url(#paint4_linear_28_46)" stroke="black" stroke-width="23.0402"/>
    <path d="M1547.64 2230.3C1547.64 2230.3 1409.61 2394.34 1345.59 2428.35C1281.58 2462.36 1537.64 2590.38 1537.64 2590.38C1537.64 2590.38 1687.67 2386.34 1693.67 2308.32L1699.68 2230.3H1547.64Z" fill="#F7EDE9"/>
    <path d="M1552.45 2225.31C1571.48 2258.43 1605.03 2280.42 1639.99 2293.91C1656.36 2300.07 1673.27 2305.1 1690.57 2307.77C1699.84 2271.3 1705.7 2233.76 1705.72 2196.08C1705.12 2188.67 1704.84 2178.86 1697.33 2174.95C1689.06 2172.5 1682.13 2179.41 1675.63 2183.33C1679.28 2173.01 1676.81 2160.78 1670.04 2152.31C1662.92 2145.38 1653.3 2153.18 1648.01 2158.59C1642.73 2163.3 1639.14 2169.69 1633.7 2174.14C1630.98 2168.39 1635.15 2158.49 1628.69 2153.34C1621.45 2147.74 1614.83 2157.89 1609.5 2161.85C1589.24 2181.83 1571.08 2203.83 1552.45 2225.31V2225.31Z" fill="url(#paint5_linear_28_46)"/>
    <path d="M1253.67 2495.08C1253.67 2495.08 1253.7 2495.06 1253.71 2494.98C1253.73 2494.91 1253.75 2494.77 1253.73 2494.55C1253.85 2494.31 1254.06 2494 1254.36 2493.63C1254.95 2492.9 1255.9 2491.91 1257.19 2490.66C1259.68 2488.27 1263.48 2484.94 1268.52 2480.67C1277.89 2472.76 1291.17 2462 1308.59 2447.97C1332.04 2429.09 1377.21 2393.23 1416.14 2359.67C1435.84 2342.71 1453.06 2323.43 1472.83 2300.71C1493.32 2277.11 1512.59 2253.5 1534.3 2226.92C1550.64 2206.9 1568.16 2185.04 1586.51 2164.5C1592.19 2158.11 1598.29 2151.39 1605.38 2145.13C1607.41 2143.27 1610.03 2141.16 1613.44 2139.16C1614.53 2138.47 1616.19 2137.74 1618.44 2137.08C1620 2136.39 1622.68 2136.37 1626.4 2137.18C1631.32 2138.25 1636.42 2142 1640.22 2148.66C1642.23 2154.09 1642.53 2158.57 1641.93 2161.68C1641.68 2164.89 1641.2 2166.62 1641.38 2166.88C1641.51 2164.86 1639.93 2163.24 1636.43 2160.78C1633.57 2160.8 1632.55 2160.6 1632.18 2161.3C1633.23 2160.49 1634.51 2158.06 1636.94 2154.8C1639.08 2151.42 1642.54 2147.44 1647.9 2143.9C1654.96 2140.17 1662.36 2139.65 1668.71 2141.79C1674.35 2143.23 1679.64 2147.46 1683.14 2154.38C1685.12 2160.15 1685.36 2164.93 1684.86 2168.28C1684.65 2171.9 1684.19 2174.36 1684.38 2175.65C1684.92 2175.76 1684.05 2175.31 1682.21 2172.96C1680.34 2172.13 1679.39 2171.73 1679.02 2171.98C1678.97 2172.08 1679.56 2171.81 1680.8 2171.48C1683.17 2170.62 1686.96 2168.95 1692.53 2167.86C1693.69 2167.59 1695.01 2167.47 1696.48 2167.52C1698.3 2167.58 1700.34 2167.9 1702.57 2168.52C1707.01 2170.25 1710.27 2172.9 1712.21 2176.09C1717.7 2186.05 1718.08 2195.25 1717.36 2201.51C1715.45 2275.24 1695.21 2345.41 1666.81 2407C1636.86 2472 1598.69 2527.26 1563.18 2571.11C1524.08 2619.42 1486.97 2655.52 1460.54 2678.9C1446.05 2691.72 1434.5 2700.95 1426.26 2707C1421.97 2710.14 1418.65 2712.38 1416.29 2713.78C1415.08 2714.49 1414.14 2714.98 1413.46 2715.25C1413.12 2715.38 1412.84 2715.46 1412.63 2715.49C1412.53 2715.5 1412.44 2715.5 1412.37 2715.49C1412.3 2715.47 1412.24 2715.44 1412.21 2715.4C1412.17 2715.35 1412.14 2715.31 1412.16 2715.22C1412.16 2715.15 1412.17 2715.06 1412.21 2714.96C1412.28 2714.77 1412.41 2714.51 1412.62 2714.21C1413.02 2713.6 1413.68 2712.78 1414.6 2711.74C1416.38 2709.72 1419.19 2706.81 1422.87 2703.08C1430.3 2695.57 1440.14 2685.87 1453.75 2671.8C1477.95 2646.79 1512.96 2609.16 1549.7 2560.56C1583.1 2516.35 1619.21 2461.46 1647.22 2398.15C1673.71 2338.25 1692.69 2270.9 1694.25 2201.13C1693.64 2194.48 1694.52 2189.65 1692.9 2188.82C1693.08 2189.33 1693.81 2189.75 1695.21 2190.46C1695.85 2190.55 1696.22 2190.64 1696.36 2190.69C1696.47 2190.73 1696.44 2190.74 1696.24 2190.7C1694.94 2190.72 1692.35 2192.09 1688.11 2193.43C1686.33 2194.1 1683.84 2194.74 1680.61 2195.05C1677.54 2195.49 1673.78 2194.67 1669.64 2192.37C1663.69 2187.36 1661.05 2181.78 1661.31 2177V2177C1661.15 2172.39 1661.62 2168.95 1661.82 2166.69C1661.73 2164.15 1662.06 2162.83 1661.8 2163.16C1662.81 2164.08 1662.41 2164.31 1661.87 2163.8C1660.62 2163.58 1659.43 2163.35 1659.67 2163.67C1658.82 2163.83 1657.66 2165.67 1655.61 2168.16V2168.16C1654.1 2170.4 1651.9 2173.87 1648.11 2177.76C1643.82 2182.24 1637.07 2184.15 1629.07 2182.43C1622.17 2178.82 1618.62 2173.59 1618.58 2168V2168C1618.53 2163.66 1619.06 2160.83 1619.25 2159.47C1619.14 2157.69 1619.49 2157.05 1619.48 2158C1620.8 2159.19 1620.41 2159.57 1619.62 2158.83C1622.22 2159.29 1623.69 2159.41 1624.13 2159.02C1624.75 2158.78 1624.9 2158.78 1624.53 2158.91C1623.44 2159.44 1622.06 2160.64 1620.22 2162.16C1614.36 2167.19 1608.83 2173.23 1603.11 2179.48C1585.13 2199.21 1567.45 2220.73 1550.73 2240.56C1528.73 2266.69 1508.62 2290.39 1487.43 2313.69C1467.11 2336.07 1448.51 2355.66 1427.18 2372.92C1384.59 2407.27 1342.02 2437.75 1315.01 2456.55C1296.77 2469.25 1282.19 2478.95 1271.97 2485.38C1266.36 2488.91 1262.02 2491.49 1258.97 2493.12C1257.38 2493.97 1256.14 2494.55 1255.26 2494.88C1254.81 2495.05 1254.45 2495.15 1254.19 2495.19C1253.98 2495.1 1253.85 2495.08 1253.77 2495.07C1253.7 2495.07 1253.67 2495.08 1253.67 2495.08L1253.67 2495.08Z" fill="black"/>
    <path d="M1550.29 2223.04C1552.02 2222.06 1555.96 2226.15 1563.08 2233.04C1570.64 2240.36 1579.91 2248.83 1593.5 2258.19C1600.35 2262.92 1607.58 2267.34 1615.33 2271.58C1622.75 2275.64 1630.22 2279.3 1637.63 2282.7C1670.11 2293.53 1691.56 2303.44 1690.46 2307.15C1689.37 2310.85 1665.88 2307.47 1631.98 2298.68C1623.76 2295.61 1615.41 2291.88 1607.22 2287.42C1598.68 2282.76 1590.69 2277.53 1583.42 2271.78C1569.42 2260.68 1560.14 2248.95 1554.8 2239.31C1549.55 2229.84 1548.78 2223.89 1550.29 2223.04V2223.04Z" fill="black"/>
    <path d="M2182.1 2821.65C2148.09 2821.91 2115.82 2806.33 2089.83 2785.3C2067.85 2767.28 2048.77 2745.55 2034 2721.26C2022.45 2753.72 2010.59 2786.27 2003.4 2820.03C2001.39 2826.99 2000.64 2839.35 2011.42 2837.84C2021.24 2837.24 2029.53 2831.07 2038.79 2828.73C2036.92 2833.96 2031.26 2838.31 2029.04 2843.95C2024.34 2852.66 2021.14 2866.11 2030.41 2873.05C2042.08 2880.13 2056.74 2876.96 2068.8 2872.51C2076.8 2870.19 2067.29 2882.14 2069.42 2886.32C2067.95 2894.94 2073.56 2906.98 2083.99 2903.55C2096.65 2899.92 2106.5 2890.47 2117.11 2883.12C2140.83 2864.95 2162.39 2844.07 2182.1 2821.65V2821.65Z" fill="url(#paint6_linear_28_46)"/>
    <path d="M2124.7 2361.37C2124.7 2361.37 2124.69 2361.37 2124.7 2361.37C2126.63 2361.25 2130.12 2386.35 2134.88 2434.81C2135.35 2453.78 2134.73 2477.74 2130.57 2503.41C2127.18 2524.43 2120.99 2548.65 2108.67 2571.61C2096.65 2593.93 2086.27 2617.36 2075.16 2644.03C2064.04 2670.75 2053.24 2698.81 2042.73 2728.46C2034.5 2751.7 2026.3 2775.9 2019.64 2800.39C2017.5 2808.27 2015.49 2816 2014.27 2823.56C2013.89 2825.98 2013.58 2828.06 2013.57 2829.79C2014.02 2831.42 2013.52 2831.12 2012.88 2828.64C2013.06 2828.52 2012.5 2828.22 2011.21 2827.25C2009.87 2826.84 2009.31 2826.6 2009.25 2826.77C2010.06 2826.98 2012.08 2825.6 2015.59 2824.07C2018.33 2822.53 2022.41 2820.34 2028.22 2818.83C2030.63 2818.04 2034.14 2818.05 2038.54 2819.25C2043.23 2821.27 2046.38 2824.16 2047.89 2827.45C2050.9 2835.35 2050.35 2842.05 2047.66 2846.36C2045.41 2850.98 2043.12 2854.21 2041.81 2856.58C2040.65 2859.24 2039.62 2860.95 2040.01 2861.51C2039.43 2861.99 2041.07 2863.68 2042.89 2866.07C2042.2 2865.98 2042.89 2865.88 2043.64 2865.99C2044.95 2866.01 2046.72 2865.44 2049 2864.68C2049.85 2864.39 2050.77 2864.08 2051.77 2863.76C2054.75 2862.59 2059 2861.02 2064.7 2860.23C2070.87 2859.25 2077.55 2861.93 2082.98 2868.44L2082.98 2868.44C2085.37 2872.89 2086.2 2876.48 2085.97 2878.82V2878.82C2086.05 2881.94 2085.82 2884.6 2085.52 2886.78C2084.98 2891.73 2084.11 2895.39 2084.32 2897.81C2084.65 2898.69 2084.3 2898.52 2083.76 2896.92C2082.02 2894.82 2080.59 2893.78 2078.89 2893.67C2078.04 2893.95 2078.68 2893.42 2080.68 2893.01V2893.01C2083.59 2892.01 2086.71 2890.26 2090.18 2888.27L2090.18 2888.27C2140.92 2854.85 2181.84 2810.27 2213.89 2764.4C2248.17 2715.46 2272.77 2664.59 2290.65 2620.8C2322.67 2511.91 2342.43 2450.89 2345.4 2451.7C2348.38 2452.52 2334.32 2515.13 2306.25 2625.93C2289.7 2671.41 2265.85 2724.43 2231.15 2776.22C2198.69 2824.56 2156.17 2871.74 2102.37 2907.71C2098.38 2910.13 2093.86 2912.59 2088.63 2914.6C2086.06 2915.87 2081.86 2916.84 2076.18 2916.55C2071.56 2916.09 2067.33 2913.5 2064.07 2908.9C2061.84 2904.53 2061.06 2900.99 2061.27 2898.63C2061.18 2892.46 2062.1 2887.6 2062.59 2884.02C2062.78 2882.14 2062.96 2880.71 2062.88 2879.75C2062.52 2878.92 2062.91 2879.21 2063.57 2880.99L2063.57 2880.99C2065.95 2882.79 2066.56 2883.6 2067.15 2883.22C2065.73 2883.19 2063.23 2884.37 2059.46 2885.58C2058.49 2885.95 2057.43 2886.34 2056.29 2886.71C2053.25 2887.71 2049.62 2888.62 2045.35 2889.06C2039.02 2889.69 2032.31 2887.55 2026.58 2882.45C2021.64 2878.11 2017.75 2871.14 2016.92 2862.1C2017.1 2855.05 2019.1 2849.42 2021.62 2845.41C2023.87 2841.36 2025.93 2838.6 2026.8 2836.58C2026.66 2835.47 2027.4 2835.63 2027.59 2838.26C2027.8 2839.09 2028.89 2839.83 2030.96 2840.94C2032.77 2841.23 2033.43 2841.45 2033.17 2841.25C2031.91 2841.29 2029.6 2842.82 2025.89 2844.53C2022.89 2846.28 2018.3 2848.41 2011.88 2849.46C2008.88 2849.97 2005.24 2849.48 2001.23 2847.77C1996.95 2845.35 1994.14 2842.37 1992.76 2839.32C1990.7 2834.14 1990.32 2830.66 1990.83 2829.24C1990.95 2825.7 1991.39 2822.55 1991.89 2819.79C1993.44 2810.89 1995.69 2802.43 1997.98 2794.38C2005.13 2769.04 2013.8 2744.45 2022.47 2721.1C2033.56 2691.25 2045.05 2663 2056.94 2636.2C2056.94 2636.2 2056.94 2636.2 2056.94 2636.2C2068.74 2609.56 2080.15 2585.7 2093.32 2563.01C2105.09 2542.96 2111.7 2520.53 2115.92 2500.68C2121.01 2476.68 2122.93 2453.52 2123.78 2435.1C2122.46 2387.18 2122.76 2361.68 2124.68 2361.37L2124.7 2361.37Z" fill="black"/>
    <path d="M2175 2826.87C2174.44 2829.44 2164.46 2830.8 2147.34 2826.66C2129.78 2822.41 2108.61 2813.13 2088.24 2797.58C2078.48 2790.13 2069.81 2781.92 2062.37 2773.42C2043.37 2745.24 2033.41 2725.37 2036.91 2722.76C2040.4 2720.15 2056.55 2735.24 2077.5 2760.58C2085.04 2767.64 2093.09 2774.53 2101.89 2781.22C2120.61 2795.44 2137.36 2804.74 2152.67 2812.56C2166.96 2819.86 2175.65 2823.9 2175 2826.87V2826.87Z" fill="black"/>
    <path opacity="0.969" d="M2271.02 1481.65C2270.98 1481.7 2270.96 1481.76 2270.93 1481.82C2270.3 1482.5 2269.52 1483.07 2268.45 1483.4C2266.31 1484.06 2263.43 1484.13 2259.51 1483.48C2251.72 1482.17 2240.55 1478.45 2225.78 1472.61C2195.05 1460.45 2150 1440.05 2094.71 1417.03C2083.82 1413.11 2066.88 1406.63 2047.14 1395.61C2042.15 1394.09 2032.43 1386.77 2019.12 1373.26C2005.68 1360.16 2000.71 1338.54 2004.65 1309.48V1309.48C2015.17 1285.72 2024.38 1273.62 2031.14 1272.29C2040.81 1265.93 2048.46 1262.35 2053.94 1260.86C2072.42 1254.93 2088.82 1252.2 2103.52 1250.56C2122.55 1247.86 2141.12 1246.81 2159.25 1246.97C2184.24 1247.19 2208.15 1249.72 2230.89 1253.25C2276.78 1260.23 2318.45 1271.46 2353.6 1283.35C2444.6 1317.86 2493.15 1346 2484.81 1358.31C2477.63 1368.89 2429.3 1366.68 2351.7 1352.28C2319.35 1347.49 2279.06 1341.07 2239.34 1336.79C2204.14 1333.35 2168.81 1329.86 2134.1 1332.29C2133.42 1332.34 2132.74 1332.39 2132.06 1332.44C2117.45 1333.99 2104.62 1334.71 2092.5 1336.9C2088.86 1337.69 2086.18 1337.74 2084.54 1337.85C2083.85 1338.92 2083.97 1336.16 2085.92 1331.01C2085.96 1323.35 2084.56 1319.35 2081.58 1317.6C2079.4 1317.18 2079.97 1318.08 2081.88 1320.29C2089.26 1327.57 2100.53 1333.47 2111.5 1339.38C2169.79 1370.45 2212.91 1401.57 2241.33 1428.53C2254.76 1441.26 2263.67 1452.08 2268.92 1460.88C2271.53 1465.26 2272.96 1468.94 2273.54 1472.03C2273.83 1473.57 2273.79 1474.92 2273.58 1476.1C2273.39 1476.64 2273.09 1477.16 2272.82 1477.63V1477.63C2283.36 1455.58 2295.93 1429.3 2306.47 1407.26C2306.56 1407.07 2306.56 1407.08 2306.47 1407.26C2329.9 1358.27 2248.02 1529.51 2271.45 1480.52C2271.32 1480.9 2271.19 1481.31 2271.02 1481.65L2271.02 1481.65Z" fill="black"/>
    <path opacity="0.997" d="M2062.08 1928.03C2066.08 1963.78 2031.67 1988.95 1996.69 1993.07C1952.17 1998.32 1895.66 1971.73 1812.67 1981.01C1754.15 1987.55 1699.65 2020.18 1652.86 2030.03C1581.12 2045.14 1530.79 2037.18 1525.3 1988C1516.22 1906.75 1629.02 1827.46 1777.25 1810.9C1925.48 1794.33 2053 1846.78 2062.08 1928.03V1928.03Z" fill="black"/>
    <path opacity="0.969" d="M928.618 1507.23C938.738 1515.86 985.438 1505.63 1058.08 1479.04C1088.78 1468.85 1127.78 1455.32 1166.09 1444.19C1201.06 1434.49 1236.16 1424.44 1272.09 1420.85C1274.07 1420.72 1276.03 1420.58 1277.96 1420.44C1290.49 1419.5 1301.76 1418.33 1312.8 1418.39C1316.66 1418.53 1319.6 1418.1 1321.7 1417.99C1322.82 1418.82 1322.93 1416.45 1321.25 1412.65C1320.85 1406.53 1321.81 1403.64 1324 1402.45C1325.64 1402.66 1324.84 1404.21 1323.13 1406.79C1316.37 1415.86 1305.6 1423.98 1295.62 1431.73C1242.64 1472.89 1205.17 1511.48 1181.64 1543.57C1170.52 1558.73 1163.7 1571.17 1160.11 1581.02C1158.32 1585.91 1157.66 1589.9 1157.68 1593.16C1157.68 1594.78 1158.04 1596.16 1158.48 1597.34C1158.81 1597.86 1159.26 1598.34 1159.64 1598.77C1143.14 1572.13 1123.51 1540.47 1107.01 1513.83C1106.88 1513.63 1106.88 1513.63 1107.01 1513.83C1067.71 1450.43 1200.7 1665.03 1161.4 1601.63C1161.56 1602.08 1161.71 1602.62 1161.9 1603C1162.06 1603.17 1162.23 1603.33 1162.41 1603.48C1162.93 1603.91 1163.53 1604.25 1164.29 1604.43C1166.32 1604.89 1168.93 1604.66 1172.5 1603.49C1179.61 1601.16 1189.55 1595.86 1202.88 1587.73C1230.59 1570.82 1271.17 1543.07 1322 1510.73C1332.09 1505.08 1348.78 1495.65 1367.94 1481.3C1372.95 1479.1 1382.55 1469.79 1395.45 1453.3H1395.45C1408.68 1437.14 1411.42 1412.6 1403.47 1380.91V1380.91C1388.85 1356.01 1377.31 1343.97 1369.85 1343.56C1358.65 1338.09 1350.13 1335.4 1344.28 1334.74C1324.43 1331.51 1307.46 1331.4 1292.46 1332.26C1269.62 1332.69 1247.91 1335.32 1227.11 1339.44C1205.39 1343.75 1184.84 1349.64 1165.34 1356.17C1120.73 1370.95 1081.19 1389.4 1048.22 1407.42C960.49 1459.08 916.235 1496.67 928.618 1507.23V1507.23Z" fill="black"/>
    <path d="M2570.51 1270.25C2570.51 1270.25 2611.95 1201.33 2707.84 1167.02C2803.74 1132.7 2924.6 1340.93 2570.51 1270.25Z" fill="#71E0E0"/>
    <path opacity="0.997" d="M2773.75 1203.7C2773.35 1218.61 2757.87 1223.28 2737.72 1222.74C2717.56 1222.2 2700.36 1216.65 2700.76 1201.74C2701.16 1186.83 2717.82 1175.18 2737.98 1175.72C2758.13 1176.26 2774.15 1188.79 2773.75 1203.7V1203.7Z" fill="white"/>
    <path d="M2715.89 1392.5C2715.89 1392.5 2772.4 1373.32 2843.17 1399.83C2913.95 1426.34 2882.64 1602.24 2715.89 1392.5Z" fill="#71E0E0"/>
    <path opacity="0.997" d="M2862.94 1452.19C2855.56 1460.45 2844.55 1455.68 2833.39 1445.72C2822.23 1435.75 2815.15 1424.36 2822.52 1416.1C2829.89 1407.85 2844.91 1409.23 2856.08 1419.2C2867.24 1429.16 2870.31 1443.94 2862.94 1452.19V1452.19Z" fill="white"/>
    <path d="M841.958 1500.18C841.958 1500.18 771.339 1461.71 671.266 1480.64C571.194 1499.57 572.326 1740.33 841.958 1500.18Z" fill="#71E0E0"/>
    <path opacity="0.997" d="M632.987 1545.62C640.877 1558.28 656.592 1554.48 673.702 1543.82C690.813 1533.15 702.84 1519.65 694.949 1507C687.059 1494.34 666.792 1492.73 649.681 1503.39C632.57 1514.06 625.096 1532.97 632.987 1545.62V1545.62Z" fill="white"/>
    <path d="M778.439 1679.19C778.439 1679.19 719.99 1691.24 672.36 1749.92C624.73 1808.6 740.752 1944.48 778.439 1679.19Z" fill="#71E0E0"/>
    <path opacity="0.997" d="M681.813 1805.09C692.35 1808.48 699.433 1798.79 704.016 1784.55C708.599 1770.31 708.946 1756.9 698.41 1753.51C687.874 1750.12 675.617 1758.91 671.033 1773.16C666.45 1787.4 671.277 1801.7 681.813 1805.09V1805.09Z" fill="white"/>
    <path d="M1833.6 1920.21C1830.99 1920.21 1828.37 1920.21 1825.74 1920.25C1816.01 1920.32 1806.14 1921.2 1796.18 1922.94C1702.44 1939.32 1636.6 1955.14 1607.38 2036.68C1621.25 2035.85 1636.48 2033.62 1652.86 2030.17C1699.65 2020.32 1754.15 1987.69 1812.67 1981.15C1895.67 1971.87 1952.17 1998.46 1996.69 1993.21C2001.8 1992.61 2006.89 1991.55 2011.86 1990.08C1974.97 1931.79 1909.4 1920.36 1833.6 1920.22V1920.21Z" fill="#DF6747"/>
    <defs>
        <filter id="filter0_f_28_46" x="1790.28" y="1625.95" width="57.8831" height="37.7055" filterUnits="userSpaceOnUse" color-interpolation-filters="sRGB">
            <feFlood flood-opacity="0" result="BackgroundImageFix"/>
            <feBlend mode="normal" in="SourceGraphic" in2="BackgroundImageFix" result="shape"/>
            <feGaussianBlur stdDeviation="2.30794" result="effect1_foregroundBlur_28_46"/>
        </filter>
        <radialGradient id="paint0_radial_28_46" cx="0" cy="0" r="1" gradientUnits="userSpaceOnUse" gradientTransform="translate(1769.23 1677.78) rotate(-0.182296) scale(306.481 287.176)">
            <stop stop-color="#CC3100"/>
            <stop offset="1" stop-color="#DE6B00"/>
        </radialGradient>
        <radialGradient id="paint1_radial_28_46" cx="0" cy="0" r="1" gradientUnits="userSpaceOnUse" gradientTransform="translate(2381.57 755.292) rotate(63.7909) scale(608.272 241.85)">
            <stop stop-color="#FF927A"/>
            <stop offset="1" stop-color="#F7C199"/>
        </radialGradient>
        <radialGradient id="paint2_radial_28_46" cx="0" cy="0" r="1" gradientUnits="userSpaceOnUse" gradientTransform="translate(793.252 914.947) rotate(-157.738) scale(359.552 439.05)">
            <stop stop-color="#FF927A"/>
            <stop offset="1" stop-color="#F7C199"/>
        </radialGradient>
        <linearGradient id="paint3_linear_28_46" x1="1265.58" y1="3661.71" x2="1144.68" y2="3329.24" gradientUnits="userSpaceOnUse">
            <stop stop-color="#F79041"/>
            <stop offset="1" stop-color="#F7C199"/>
        </linearGradient>
        <linearGradient id="paint4_linear_28_46" x1="2489.26" y1="3548.4" x2="2536.25" y2="3236.36" gradientUnits="userSpaceOnUse">
            <stop stop-color="#F79041"/>
            <stop offset="1" stop-color="#F7C199"/>
        </linearGradient>
        <linearGradient id="paint5_linear_28_46" x1="1615.27" y1="2298.63" x2="1651.45" y2="2196.26" gradientUnits="userSpaceOnUse">
            <stop stop-color="#F79041"/>
            <stop offset="1" stop-color="#F7C199"/>
        </linearGradient>
        <linearGradient id="paint6_linear_28_46" x1="2095.19" y1="2779.79" x2="2057.55" y2="2847.94" gradientUnits="userSpaceOnUse">
            <stop stop-color="#F79041"/>
            <stop offset="1" stop-color="#F7C199"/>
        </linearGradient>
    </defs>
</svg>
